<?xml version="1.0" encoding="utf-8"?>
<!-- Generator: Adobe Illustrator 21.0.0, SVG Export Plug-In . SVG Version: 6.00 Build 0)  -->
<svg version="1.1" xmlns="http://www.w3.org/2000/svg" xmlns:xlink="http://www.w3.org/1999/xlink" x="0px" y="0px"
	 viewBox="0 0 549.3 494.4" enable-background="new 0 0 549.3 494.4" xml:space="preserve">
<g id="hintergründe">
</g>
<g id="text">
</g>
<g id="farbig_mit_transparenz">
</g>
<g id="rechts_farbig">
</g>
<g id="farbig_ohne_transparenz">
</g>
<g id="rechts_farbig_black">
</g>
<g id="mitte_farbig">
</g>
<g id="stempel">
	<g>
		<path fill-rule="evenodd" clip-rule="evenodd" fill="#FFFFFF" d="M0,492.8h68.5v-10.6H11.4v-90.9H0V492.8L0,492.8z M184.1,494.4
			c25.4,0,42.3-15.4,42.3-44.9v-58.1H215v59c0,22.2-11.9,33.5-30.6,33.5c-19.4,0-31-12.3-31-34.2v-58.3H142v59
			C142,479,159.1,494.4,184.1,494.4L184.1,494.4z M342,492.8h11.6v-40.3l42.2-61.2h-13.3L348,442l-34.2-50.7h-13.9l42.2,61.3V492.8
			L342,492.8z M446.1,492.8h11.7c20.7-46.1,15.6-35.1,39.7-88.8c26.3,59.1,16.5,37.1,39.4,88.8h12.3l-46.2-102.2h-10.7L446.1,492.8
			L446.1,492.8z"/>
		<g>
			<path fill-rule="evenodd" clip-rule="evenodd" fill="#FFFFFF" d="M292.2,29.9l8.6-15c5.5-9.4,15.3-14.8,25.4-15H221.3
				c-10.5-0.1-20.7,5.2-26.3,15c-30.6,53-60.5,104.7-91,157.6c-5.3,9-5.8,20.6-0.2,30.3l0.5,0.8v0l0.3,0.5
				c4.6,7.5,12.4,12.6,21.2,13.7l2.4,0.3l55.4,0.1L292.2,29.9L292.2,29.9z"/>
			<path fill-rule="evenodd" clip-rule="evenodd" fill="#FFFFFF" d="M390,280.7l-0.8-1.9l-28.4-49.3H180.7h-21.3h-15h-17.3
				c-10.9,0-20.5-5.8-25.7-14.6l44,76.2l0,0l8.5,14.7c5.1,9.2,14.9,15.3,26.1,15.3c61.1,0,120.9,0,181.9,0
				c10.5,0.1,20.7-5.2,26.3-15l2.6-4.5l-0.2,0l0.2-0.5C393.1,294.5,392.8,287.2,390,280.7z"/>
			<path fill-rule="evenodd" clip-rule="evenodd" fill="#FFFFFF" d="M452.3,182.2c-11.1-19.2-22.2-38.4-33.2-57.6
				c-5.6-9.7-15.9-15.1-26.4-15l-104.9,0c10.2,0.2,20,5.5,25.4,15l8.6,15l50.3,87.1l0,0l27.2,47.1l0,0l0.1,0.2l0.2,0.3l0,0
				c4.4,7.7,5.3,17.2,2,25.8l51-88.3c-0.1,0.1-0.1,0.2-0.2,0.3C457.5,203,457.8,191.7,452.3,182.2z"/>
		</g>
	</g>
</g>
</svg>
