<svg xmlns="http://www.w3.org/2000/svg" height="512" width="512"><defs><clipPath id="a"><path fill="gray" d="M6 0h512v512H6z"/></clipPath></defs><g fill-rule="evenodd" clip-path="url(#a)" transform="translate(-6)"><g stroke-width="1pt"><path d="M-214.886 35.35l.126 121.777L809.217 369.76v-120.9l-1024.1-213.51z" fill="#fff"/><path d="M-214.76 263.084v248.9H809.217V476.44L-214.76 263.082zm1023.977-14.191V-.01H-214.76v35.55L809.217 248.894z" fill="#fdd114"/><path d="M-214.76 156.49v106.666L809.548 476.44l-.33-106.678L-214.76 156.49z"/></g><path stroke="#000" stroke-width="1.468" fill="#cf1126" d="M267.336 211.455h8.967v23.933h-8.967z"/><path d="M415.12 645.68c-.24-33.566 1.125-65.845 3.766-75.002s6.556-11.06 11.416-15.608c-11.512-1.043-24.218 8.647-30.06 21.408-3.707-14.398-10.64-24.156-16.74-29.056-6.098 4.9-13.29 14.808-16.567 29.183-6.01-10.712-16.555-22.588-29.028-21.254 4.434 4.62 8.48 6.333 11.178 15.286s4.044 41.016 3.075 74.6" transform="matrix(.428 0 0 .49 107.45 -41.457)" stroke="#000" stroke-width="3.207" fill="#cf1126"/><path d="M414.44 641.96c-.24-33.565 1.37-62.22 3.677-71.327 2.31-9.106 5.993-10.806 11.258-14.746-11.512-1.043-22.48 1.756-28.902 17.355-3.592-14.5-10.64-21.623-16.74-26.523-6.098 4.9-13.29 12.273-16.567 26.648-7.053-15.474-16.903-18.94-29.376-17.606 5.186 4.316 9.262 5.927 11.8 14.855s2.86 37.315 1.89 70.9" transform="matrix(.467 0 0 .587 92.49 -61.408)" stroke="#000" stroke-width="2.804" fill="#cf1126"/><path d="M291.342 326.36c-.183-4.585.447-10.744 1.489-13.123 1.042-2.38 2.497-4.119 3.964-6.136-6.294-.908-12.694-.445-16.092 8.786-2.202-8.438-5.504-12.84-9.084-15.717-3.581 2.876-6.69 7.279-8.891 15.717-3.399-9.23-9.83-9.79-16.316-8.786 1.467 2.017 2.978 3.755 4.076 6.136 1.098 2.38 1.785 8.538 1.6 13.123m16.216-161.696v18.907h6.674v-18.907h-6.674z" stroke="#000" stroke-width="1.467" fill="#cf1126"/><path opacity=".99" stroke-linejoin="bevel" d="M314.641 397.829c1.652 1.103 8.239 2.26 20.18.182 20.845-3.651 20.67-24.214 53.14-14.675-1.467-2.935-6.603-11.922-19.262-12.286 1.285-4.22 2.202-10.455-.183-14.311-2.446 5.441-6.232 7.971-8.978 9.75-.846-.458-5.753-4.467-6.285-10.507-.737-11.975-6.58-14.088-7.201-13.771-3.751-.106-26.339 35.601-74.708 35.836-47.658.229-71.508-35.52-74.202-35.836-.62-.317-6.464 1.796-7.202 13.77-.531 6.04-5.496 9.874-6.33 10.408-2.734-1.702-6.486-4.209-8.933-9.65-2.384 3.856-1.467 10.09-.183 14.311-12.657.364-17.794 9.35-19.261 12.286 32.469-9.539 32.534 11.024 53.38 14.675 11.94 2.078 18.13 1.103 19.782.006" stroke="#000" stroke-width="1.467" fill="#cf1126"/><path opacity=".99" stroke-linejoin="bevel" d="M213.906 387.556c-11.308-.452-33.37-17.65-30.238-21.19.993-1.004 5.854.03 14.268 5.917 12.489 8.511 23.205 35.349 73.305 35.143 51.057-.205 61.535-26.632 74.02-35.143 8.415-5.888 13.666-6.827 14.258-5.677 3.005 3.393-19.078 20.551-30.386 21.003" stroke="#000" stroke-width="1.467" fill="#cf1126"/><path d="M198.42 214.073c-44.676 47.069-20.643 155.18 72.213 156.74 93.357 1.047 120.588-108.16 74.203-156.945m-137.37 1.821c-23.768 40.02.942 110.145 64.5 110.145 64.082 0 87.568-70.634 64.03-110.386" stroke="#000" stroke-width="1.467" fill="#cf1126"/><path d="M288.36 384.862c3.25.722 6.215 4.078 5.02 7.527-1.325 4.11-6.22 5.11-8.07 4.81-1.99-1.194-.797-2.918 5.306-3.582 3.98-1.46.355-4.15-2.653-5.44-1.635-.7-1.13-3.655.397-3.316zm-10.08-1.06c1.51-1.72 2.74 3.55 3.075 7.204.44 3.567.486 7.967-.952 8.185-.877.148-.14-4.095-1.047-7.988-1.183-4.507-1.693-6.644-1.076-7.4z" stroke="#cf1126" stroke-width=".22" fill="#fdd114"/><path d="M274.81 390.302c3.794 3.677-2.633 14.328-16.694 9.685-.796-1.46 5.584-.016 10.08-.796 8.56-1.35 4.887-10.52 6.614-8.888z" stroke="#cb4f46" stroke-width=".22" fill="#fdd114"/><path d="M267.93 383.002c1.512-1.72.63 3.723.946 7.38.308 3.434-.076 7.615-1.706 7.074-.883-.426.564-4.284-.342-7.91-.97-4.56-.045-5.39 1.102-6.544zm-9.65-1.46c2.683-.017 1.964.736 1.773 7.903-.21 8.032-6.993 8.93-8.605 6.727-1.355-1.73-.858-2.25-6.92-1.67-1.356-.683-1.304-2.136-5.733-1.764-1.145.21-1.107-1.96-3.173-3.26-3.602-2.15-4.8 1.588-11.67-2.37-.428-.24-3.215-2.005-2.706-5.496.53-4.41-3.492.54-7.913-1.386-.855-.382-3.446-1.46-5.732-3.466-3.226-2.775.153-3.336 4.513-.507 2.692 1.707 6.646-2.22 6.753-6.152.24-4.16-1.83-5.253 1.38-5.15 1.788.053 1.363 7.27-1.677 10.463-4.07 4.397-1.324 3.55.13 3.328 1.514-.378 8.406-8.918 9.555-8.185 1.79 1.216-5.373 6.676-3.77 11.844.767 2.303 5.037 4.51 8.552 4.867 4.133.688 4.145-4.924 5.82-3.86 2.318 1.52-4.43 4.384 2.655 6.473 1.565.47 2.47-3.516 3.395-3.343 2.223.363-1.453 4.654 2.522 5.336 2.77.46 2.01-4.007 3.73-3.735 1.987-.127.12 7.147 5.632 6.405 2.323-.304-1.31-12.985 1.488-13z" stroke="#cf1126" stroke-width=".22" fill="#fdd114"/><path d="M208.33 372.102c1.596-.34 4.33-1.823 4.445-4.217.228-2.62-3.42-3.533-7.75-2.85-2.28.343-6.153-1.14-8.433-3.077-2.28-2.85-2.28-6.04-5.014-4.672-2.05.91 2.85 6.154 5.242 7.408 2.394 1.254 6.27 1.14 6.496 2.963.228 1.824-.912 4.673 5.014 4.445zm96.98 12.23c-.88.426-1.594 8.39 3.38 8.562 6.246.223 9.387-2.945 10.952-4.07 2.6-1.976 7.283-5.924 5.115-9.328-1.085-1.236-1.684 2.274-2.935 4.328-1.702 3.012-7.53 6.586-11.992 6.1-5.467-.337-3.407-5.877-4.52-5.592z" stroke="#cf1126" stroke-width=".22" fill="#fdd114"/><path d="M318.15 380.642c-1.27-.96 2.826-2.534 3.25-4.02.425-1.488-1.81-2.89-.567-4.518 1.303-2.145 1.374 4.043 3.03 4.22 4.586.48 1.312 3.44-.418 2.87-1.958-.585-4.528 2.17-5.295 1.448zm-3.55-9.37c-.295 2.066.96 2.582 1.33 1.402.44-2.214-.814-3.247-1.33-1.402z" stroke="#cf1126" stroke-width=".22" fill="#fdd114"/><path d="M317.92 369.132c-.738.058-.84 2.62.12 2.692 1.037.082.558 1.83 1.43 1.808 1.035-.027 1.114-2.934-.058-2.96-1.09-.028-.833-1.528-1.492-1.54zm8.3-.49c-.877 1.11-2.542-4.277 3.06-5.048 2.663.235 4.934 4.62 4.7 8.85-.09 1.564-.157 5.09-1.018 6.814-.706 1.645-3.29 7.05-4.543 6.58-1.254-.47.327-2.734 2.427-5.875 1.698-2.572 2.35-9.712 1.488-10.965s-1.73 3.133-3.524 4.073c-1.493.784-3.053-1.48-3.288-2.577-.186-1.3.998-2.1 1.8-.555.64 1.16 2.607-1.143 2.56-2.79.053-2.66-1.712-.55-3.662 1.494zm12.07-12.02c-.705 1.02-3.132 3.29-3.602 4.23s-.55 2.584.234 4.15c.784 1.567 2.428 4.073 2.115 6.345-.314 2.27-1.88 6.97-1.018 6.58.86-.393 2.975-5.014 2.505-8.54-.47-3.523-2.115-5.48-1.802-6.656.313-1.173 2.27-3.366 2.663-4.854.392-1.49-.235-5.483-.783-5.796s-2.506.392-1.88 1.723c.627 1.332 1.958.548 1.567 2.82z" stroke="#cf1126" stroke-width=".22" fill="#fdd114"/><path d="M341.51 358.442c-.88.8-.442 5.164.767 3.606 1.1-1.518-.063-4.32-.767-3.606z" stroke="#cf1126" stroke-width=".207" fill="#fdd114"/><path d="M318.49 390.842c-.412 1.91 1.47 2.514 1.986 1.423.618-2.046-1.264-3.128-1.986-1.423z" stroke="#cf1126" stroke-width=".25" fill="#fdd114"/><path d="M321.37 389.222c-.61 1.567 2.115 1.704 2.88.81.917-1.68-1.81-2.21-2.88-.81z" stroke="#cf1126" stroke-width=".276" fill="#fdd114"/><path d="M207.99 366.632c-1.458-.652-1.367 2.28-.683 3.077.683.797 4.66-1.25.683-3.078z" stroke="#cf1126" stroke-width=".22" fill="#cf1126"/><path d="M272.237 205.466c-14.643 2.931-24.697 11.514-19.984 14.434 2.887 1.924 16.444-3.363 19.304-7.85 5.201 7.938 19.313 10.932 22.72 9.152" stroke="#000" stroke-linecap="round" stroke-width="1.467" fill="#cf1126"/><path d="M196.367 201.005c2.432 3.758 15.03 12.82 24.09 13.484 9.063.662 29.617 4.86 33.595 3.093 3.978-1.768 15.25-9.505 18.123-8.178 2.874 1.326 19.67 10.61 25.86 10.388 6.187-.22 46.19-11.493 47.517-13.703 1.326-2.21-7.957-7.958-13.924-7.958-5.968 0-135.26 3.095-135.26 2.873z" fill="#cf1126"/><path d="M231.47 218.997c.072 2.257 1.807 3.89 5.971 3.933 6.991.145 18.817-3.161 25.88-11.099" stroke="#000" stroke-linecap="round" stroke-width="1.467" fill="#cf1126"/><path d="M210.496 215.645c-.364 1.894 2.768 4.37 8.885 4.442s27.455-2.548 34.3-9.685" stroke="#000" stroke-linecap="round" stroke-width="1.467" fill="#cf1126"/><path d="M196.05 209.91c-3.277 4.223 7.164 5.737 13.426 5.664 6.264-.073 22.427-.156 29.667-5.545" stroke="#000" stroke-linecap="round" stroke-width="1.467" fill="#cf1126"/><path d="M184.61 202.825c-3.132 4.151 7.39 7.797 20.207 7.506 11.798-.291 23.815-4.37 23.815-4.37m82.834 13.036c-.073 2.257-1.808 3.89-5.972 3.933-6.991.145-18.817-3.161-25.88-11.099" stroke="#000" stroke-linecap="round" stroke-width="1.467" fill="#cf1126"/><path d="M332.44 215.645c.363 1.894-2.768 4.37-8.886 4.442s-27.455-2.548-34.3-9.685" stroke="#000" stroke-linecap="round" stroke-width="1.467" fill="#cf1126"/><path d="M346.791 209.998c3.278 4.224-7.072 5.646-13.334 5.572-6.264-.072-22.427-.156-29.667-5.544" stroke="#000" stroke-linecap="round" stroke-width="1.467" fill="#cf1126"/><path d="M358.361 202.754c3.132 4.152-7.425 7.869-20.243 7.577-11.798-.29-23.815-4.37-23.815-4.37" stroke="#000" stroke-linecap="round" stroke-width="1.467" fill="#cf1126"/><path d="M209.756 202.437c-16.28 2.351-23.78 1.153-27.028-.4-4.06-1.786-11.01-7.226-.743-7.423 6.804-.133 10.232.387 17.967.346 19.784-.247 48.345-15.87 57.003-15.934 8.042-.059 10.176 3.659 14.761 3.735 4.695.054 6.215-3.795 14.258-3.735 8.658.064 37.218 15.686 57.003 15.934 7.734.04 11.163-.48 17.966-.347 10.267.198 3.317 5.637-.743 7.424-3.249 1.553-10.748 2.75-27.028.4" stroke="#000" stroke-linecap="round" stroke-width="1.467" fill="#cf1126"/><path d="M271.414 144.073c-7.66.385-18.201-.924-21.586 7.618-5.156 9.772-3.702 20.849-1.386 21.082 4.147.458 4.542-11.063 6.31-11.08 1.848-.02 1.847 10.003 5.463 9.926 2.693-.076 4.386-10.08 5.233-10.002s2.616 9.617 6.022 9.617c3.638 0 5.176-9.54 6.023-9.617s2.54 9.926 5.232 10.002c3.616.078 3.615-9.946 5.464-9.926 1.768.018 2.547 11.461 6.694 11.004 2.317-.234 3.463-11.234-1.693-21.006-3.385-8.54-14.158-7.233-21.776-7.617z" stroke="#000" stroke-width="1.467" fill="#cf1126"/><path d="M253.023 147.572c2.057 3.455 18.1 3.373 19.005 3.373s14.893.165 18.183-3.208m-21.691-36.201V145.6s.184 1.901 3.008 1.963 3.252-1.595 3.252-1.841l-.122-34.249" stroke="#000" stroke-width="1.467" fill="#cf1126"/><path d="M271.825 115.486c12.834-.657 16.66 6.912 20.28 8.557s5.266 2.303 10.203 1.974c4.936-.329-8.557 8.228-8.557 8.557l4.937 8.885c-4.608.658-13.333-3.595-16.784-5.923-3.903-2.305-8.227-.988-9.872-1.317l-.207-20.733z" stroke="#000" stroke-width="1.467" fill="#cf1126"/><path d="M313.4 264.67c0 4.333-3.893 7.85-8.69 7.85-4.796 0-8.69-3.517-8.69-7.85 0-4.332 3.894-7.848 8.69-7.848 4.797 0 8.69 3.516 8.69 7.848z" transform="matrix(.853 0 0 .902 11.88 -133.538)" stroke="#000" stroke-width="1.674" fill="#cf1126"/><g stroke="#cf1126" stroke-width=".375" fill="#fdd114"><path d="M192.21 274.313c-.977 1.367-1.82-2.23-5.18.293-1.895 1.62-2.654 4.101-2.64 9.287.01 4.397 2.54 7.333 4.008 7.04 2.248-.294 1.074-5.67 3.52-6.648 3.519-1.663 8.505.879 9.385 4.105s-1.663 6.746-4.4 6.355c-1.564-.587.88-2.835 1.076-3.813.195-.977.488-4.204-1.858-5.083-2.346-.88-1.955 2.346-2.052 3.226-.098.88-1.76 3.616-3.617 3.519-1.858-.098-4.81-.088-7.724-3.226-1.545-1.61-3.422-5.964-1.76-11.44 1.662-5.474 4.497-5.963 6.062-6.06 1.564-.098 5.572.88 5.181 2.444zm-4.008 22.781c-1.632-.871.613-4.048-3.617-2.932-1.703.474 2.541 5.376 4.399 5.573 2.053-.197 1.48-1.529-.782-2.64zm4.496 2.642c.88 4.008 1.712 3.668 1.857 5.67.073 2.557-4.302 1.466-4.888 2.639-.587 1.174-1.368 4.204 1.466 4.4 2.835.195 6.904-.895 7.723 1.075 2.209 5.543 6.917 4.74 9.112 3.877 2.483-.994 8.327-6.26 9.66-6.713 1.983-.726-1.858-2.15-4.106-.195-.587.587-5.475 5.572-8.017 5.67-1.856.206-4.733-4.5-4.595-6.159.195-1.174 4.473-.205 5.084-2.64.455-1.739.488-3.617-.88-3.715-1.369-.098-7.822.782-8.017-.195-1.174-2.836 1.174-4.008.294-4.79-.978-.392-4.596-.978-4.693 1.075zm21.737 15.543c-2.069 2.167-7.514 5.636-7.514 8.086 0 1.389 1.52 3.566 2.777 4.084 1.875.74 4.753.554 6.941-1.143 2.476-2.011 3.59-4.05 2.533-4.41-3.744-1.07-3.84 4.09-5.635 4.247-1.718.142-4.33-2.614-.899-6.045 3.43-3.43 8.167-6.86 8.004-7.84-.164-.98-4.723 1.526-6.207 3.023zm-8.901 14.376c-.152 1.38 3.512 1.388 4.166.163.49-.898-4.002-1.551-4.166-.163zm12.347.911c-2.069 2.166.245 4.63 1.826 6.649.874 1.078 2.884 2.129 4.14 2.647 1.877.738 5.616.481 7.805-1.215 2.475-2.012 2.671-5.544 1.168-5.56-3.886-.044-1.18 5.168-2.978 5.324-1.717.143-6.531-.942-8.873-5.9-1.337-2.924 2.467-3.482 1.898-4.752-.58-1.364-3.5 1.311-4.985 2.807z" stroke-width=".22"/><path d="M227.384 330.756c.803 1.13 3.543-1.298 3.217-2.646-.232-.995-4.017 1.501-3.217 2.646zm6.058 9.923c-.112 1.59.359 3.736-1.509 3.808-1.868.071-4.238-2.443-6.106-2.372-1.868.073-2.66 1.509-2.444 2.3.216.79 3.45 1.724 8.982 1.365s4.31 3.017 8.188 2.73c3.88-.288 4.456-1.58 4.168-2.442-.288-.863-3.593-.288-4.813-.503-1.221-.216-3.377-2.156-3.665-3.808-.287-1.653-.287-4.5 1.15-4.526 2.659-.047 1.43 2.415 1.532 3.28.09.764.96 1.557 2.132.168 1.558-1.843.719-4.742-.79-5.747s-6.544 1.879-6.825 5.747zm13.718.288c-.283 2.848-2.322 3.056-2.084 4.095.295 1.193 1.033 1.568 1.509 4.525.27 1.458 2.083 2.077 4.383 1.94 1.878-.05 3.164-2.596 4.382-2.514 1.723.092.287 3.992 4.31 3.952 3.233-.031 4.024-2.803 5.173-2.875 1.15-.072 1.006 3.233 3.664 3.233 2.658 0 3.808-3.017 5.03-3.089 1.292.072 1.292 3.233 5.243 3.017 3.953-.216 6.898-.79 7.832-1.58.934-.79 1.365-3.377 2.658-3.52 1.293-.144 3.305 2.441 5.101 2.441s5.531-4.524 6.68-4.596c1.15-.072 2.084 2.801 4.671 2.801 4.023-.071 4.493-5.302 6.367-5.55 3.378-.328 3.51-1.706 3.69-2.066.36-1.005-.025-5.722-.792-7.875-.373-1.137-4.666-10.732-6.606-10.948-1.94-.215-1.365 2.587-.216 4.24 1.15 1.652 7.04 9.339 6.25 11.566-.79 2.227-4.957-.934-8.262-.934-4.597 0-7.39 9.295-10.632 9.627-1.423.153-2.945-1.22-2.442-2.228.934-1.435 2.011-4.883-1.58-4.38-3.593.502-7.256 2.153-6.682 4.094.575 1.94 2.73 3.88.36 4.67s-6.466 1.006-8.478.359c-2.012-.647-.79-5.173-2.012-5.173-1.364 0-1.436 5.316-3.376 5.46-1.94.143-3.664-.648-4.095-2.156-.431-1.509.718-3.377-.575-3.593-1.293-.215-2.587 5.964-4.526 5.82s-2.012-.574-3.161-1.796c-1.15-1.221 1.005-5.388-.933-5.747-1.941-.36-3.88 6.179-5.174 6.107-1.294-.072-3.234-.144-3.808-1.437-.288-.647-.207-4.692-.143-6.332-.036-.776-1.868-.435-1.726.44zm65.304-17.605c3.54 5.36 6.728 12.61 8.693 13.004 1.307.192-4.096-9.698-5.892-11.926-1.508-2.298-5.846-5.75-2.801-1.078z" stroke-width=".22"/><path d="M342.16 613.74c-1.144 2.287-.735 4.493 1.225 4.166s4.492-4.166 3.84-4.9-3.513-1.39-5.065.734z" transform="matrix(.462 0 0 .57 88.745 -12.577)"/><path d="M322.865 325.74c-.011 2.905 2.046 6.193 5.876 5.986 3.83-.207 8.03-4.442 8.34-8.79s-5.056-7.539-6.401-6.607c-1.346.932.505 4.174 3.942 4.373 1.472.09.991 2.969-1.83 5.246-2.955 2.336-7.331 2.292-8.4.68-.828-2.278-1.581-2.293-1.527-.888z" stroke-width=".22"/><path d="M325.172 316.935c-.56 1.15.608 3.804 1.874 3.686 1.284-.125-1.463-4.448-1.874-3.686zm11.241-2.06c.746 1.723 1.632 4.351 3.204 4.351 1.572 0 2.84.423 2.84 1.753s-4.097 5.756-4.23 7.254c-.23 2.552 1.631 2.418 2.538 1.027.906-1.39 3.357-7.929 3.868-9.732.222-1.425 1.984-4.104 2.055-6.892-.112-3.142 2.78-.603 4.17-.481 1.275.055 2.66-2.298 2.842-3.99.182-1.693-1.33-1.995-1.33-3.506 0-.846 1.616-3.566 1.692-5.38.18-1.603-3.143-6.225-4.533-6.165-1.149.06-.182 1.753.484 2.479.663.725 2.356 2.236 1.752 3.566-1.088 2.599-6.408 3.263-6.649 6.045-.242 1.994.24 8.28-1.391 8.28s-2.967-3.927-5.5-3.929c-2.84-.076-2.401 4.006-1.813 5.32zM340.587 291c.078 1.12 2.418 5.984 3.808 5.984 1.994 0-.907-2.296-.726-3.143s3.04-2.121 1.874-2.418c-2.083-.638-5.06-1.902-4.956-.423zm-.182-6.287c.423 1.572 6.89 3.93 9.67 4.715s6.166 4.11 7.436 3.022c1.27-1.088-8.522-4.956-9.974-5.5s-7.434-3.808-7.132-2.237zm19.523 10.155c2.419.06 1.088-4.715.484-5.864-.605-1.148-1.511 2.177-1.39 3.144.12.967.182 2.66.906 2.72zm-14.082-23.755c-.02 1.081 6.68.314 9.793 1.148 1.343.375 5.923 2.84 6.769 2.236.967-1.27-6.226-3.989-10.336-3.989-1.33.02-6.202-.671-6.226.605zm-1.755 3.081c-1.199 1.284 4.041 2.72 8.704 2.901 4.645.182 7.655 2.972 7.254 5.017-.665 3.446-6.468 1.208-5.742 3.082.422 1.451 2.974.919 3.264 2.479.2 1.572 1.837 1.85 1.75-.09-.01-1.54 3.598-4.08 3.508-4.806-.182-1.45-2.357-6.527-7.918-7.072-5.56-.543-9.289-3.222-10.82-1.51z" stroke-width=".22"/></g><path d="M195.54 308.292c-.746-.43-3.405 1.96-2.45 2.492 1.81 1.025 3.584-1.858 2.45-2.492zm5.71-2.84c-1.29-.16-1.915 2.58-.835 2.743 2.744.38 3.285-2.447.835-2.743zm139.18 7.69c-.61-.003-2.54.847-1.874 2.178.665 1.33 2.574 1.362 3.447.605.778-.737.602-2.77-1.573-2.783zm7.56-5.81c.195 1.463 1.265 1.226 2.116.907.968-.424 1.25-1.704.303-2.178-.99-.494-2.62.226-2.42 1.27zm-43.7 34.21c-1.303 2.878-.18 5.693 1.897 5.15s4.157-4.518 2.62-5.783-3.652-1.28-4.517.632z" stroke="#cf1126" stroke-width=".073" fill="#cf1126"/><g fill="#cf1126"><path d="M128.946 222.138c-4.85-.44-15.868-2.645-16.31-.44-.44 2.204 5.95 27.99 9.257 31.297 3.306 3.306 18.733 10.36 20.276 9.477 1.54-.88-3.087-16.97-4.85-19.836-1.763-2.865-7.052-13.224-6.61-13.665.44-.44-1.985-6.832-1.764-6.832z"/><path d="M119.205 221.119c1.18-6.2 8.39 1.22 7.677 9.298-.353 2.741 1.18 5.76 2.657 7.237" stroke="#000" stroke-width="1.467"/><path d="M125.404 221.412l-.27.36c3.616-6.118 7.111 2.593 7.651 12.632m-19.814-13.948c-.209-5.011 7.93-6.45 7.425 11.663 3.55 2.297 7.725 11.065 7.934 14.198 2.664.626 7.099 3.9 8.18 6.615" stroke="#000" stroke-width="1.467"/><path d="M132.929 320.827c.38-13.792.598-43.324-.847-46.528-2.539-5.93-15.314-12.807-19.207-22.131-3.898-9.864-7.22-32.364-5.638-35.076 2.072-3.91 8.978 4.802 7.1 14.406 8.351 9.813 6.595 15.659 8.141 16.912 5.15 3.966 13.015 6.681 14.406 10.23 2.863 6.35-.626-8.978-2.923-12.11-2.295-3.131-6.263-10.021-3.549-11.691s7.516 2.714 8.142 3.967 7.1 8.352 8.978 10.022c3.34 2.505 11.778 8.106 11.61 12.907-.009 7.762.68 58.823.68 58.823m-28.449 18.448l-.052 5.656c2.41 2.933 12.465 3.259 14.716 3.246 2.2-.065 11.663.106 13.862-3.508.053-.106.136-4.716.136-5.983" stroke="#000" stroke-width="1.467"/><path d="M130.921 330.81c-2.785.62-3.513 4.022-1.548 6.5 1.594 2.01 8.203 4.332 15.785 4.488 7.583.153 17.642-2.477 18.106-6.655.155-4.178-3.769-3.924-3.305-3.769" stroke="#000" stroke-width="1.467"/><path d="M130.921 323.122c-2.785.62-3.306 4.127-1.34 6.604 1.593 2.01 8.304 4.797 15.887 4.952 7.583.155 17.178-2.94 17.642-7.118.155-4.179-2.731-3.819-2.941-3.714" stroke="#000" stroke-width="1.467"/><path d="M146.706 327.401c10.058.155 16.558-4.797 16.558-7.427 0-2.631-3.25-2.786-5.262-2.012-2.012.773-5.107 2.737-11.605 2.784-6.654.203-12.535-4.642-14.547-4.487-2.012.154-3.588 2.336-2.94 4.642.796 2.287 7.892 6.809 17.796 6.499z" stroke="#000" stroke-width="1.467"/></g><g fill="#cf1126"><path d="M415.483 222.138c4.85-.44 15.868-2.645 16.31-.44.44 2.203-5.952 27.99-9.258 31.297-3.305 3.306-18.732 10.36-20.275 9.477-1.542-.88 3.086-16.97 4.85-19.836 1.762-2.865 7.05-13.224 6.61-13.665-.44-.44 1.984-6.832 1.763-6.832z"/><path d="M425.228 221.119c-1.18-6.2-8.39 1.22-7.677 9.298.353 2.741-1.18 5.76-2.657 7.237" stroke="#000" stroke-width="1.467"/><path d="M419.03 221.412l.27.36c-3.617-6.118-7.112 2.593-7.652 12.632m19.814-13.948c.209-5.011-7.93-6.45-7.425 11.663-3.55 2.297-7.725 11.065-7.934 14.198-2.664.626-7.099 3.9-8.18 6.615" stroke="#000" stroke-width="1.467"/><path d="M411.504 320.827c-.38-13.792-.598-43.324.847-46.528 2.539-5.93 15.314-12.807 19.207-22.131 3.898-9.864 7.22-32.364 5.638-35.076-2.072-3.91-8.978 4.802-7.1 14.406-8.351 9.813-6.595 15.659-8.141 16.912-5.15 3.966-13.015 6.681-14.406 10.23-2.863 6.35.626-8.978 2.923-12.11 2.295-3.131 6.263-10.021 3.549-11.691s-7.516 2.714-8.142 3.967-7.1 8.352-8.978 10.022c-3.34 2.505-11.778 8.106-11.61 12.907.009 7.762-.68 58.823-.68 58.823m28.449 18.448l.052 5.656c-2.41 2.933-12.465 3.259-14.716 3.246-2.2-.065-11.663.106-13.862-3.508-.053-.106-.136-4.716-.136-5.983" stroke="#000" stroke-width="1.467"/><path d="M413.512 330.81c2.785.62 3.513 4.022 1.548 6.5-1.594 2.01-8.203 4.332-15.785 4.488-7.583.153-17.642-2.477-18.106-6.655-.155-4.178 3.769-3.924 3.305-3.769" stroke="#000" stroke-width="1.467"/><path d="M413.512 323.122c2.785.62 3.306 4.127 1.34 6.604-1.593 2.01-8.304 4.797-15.887 4.952-7.583.155-17.178-2.94-17.642-7.118-.155-4.179 2.731-3.819 2.941-3.714" stroke="#000" stroke-width="1.467"/><path d="M397.727 327.401c-10.058.155-16.558-4.797-16.558-7.427 0-2.631 3.25-2.786 5.262-2.012 2.012.773 5.107 2.737 11.605 2.784 6.654.203 12.535-4.642 14.547-4.487 2.012.154 3.588 2.336 2.94 4.642-.796 2.287-7.892 6.809-17.796 6.499z" stroke="#000" stroke-width="1.467"/></g></g></svg>