<svg xmlns="http://www.w3.org/2000/svg" height="512" width="512"><g fill-rule="evenodd" stroke-width="1pt"><path fill="#06f" d="M0 0h512.003v511.994H0z"/><path fill="#fff" d="M170.67 0h170.67v512.004H170.67z"/></g><path d="M254.165 316.19c1.813-1.884 11.462-4.83 18.322-5.421 5.928-.468 9.751-4.365 13.263-4.75 10.152-10.208 23.423-14.109 32.102-33.98 1.65-5.964 2.823-13.226 3-20.173-3.276-23.206-5.395-22.58-10.285-37.925" stroke="#000" stroke-width=".515" fill="none"/><path d="M271.53 313.614c.176 1.716 5.417 8.043 14.47 6.93-.81-1.746-2.777-3-5.597-5.627-1.292-1.33-8.94-2.114-8.874-1.303zm10.774-1.798c-1.053.092-1.99.718-.19 2.298 3.034 2.55 13.92 4.896 15.56 1.66-4.82-.65-8.03-1.672-8.526-1.654-2.238-.732-5.123-2.466-6.844-2.304z" fill-rule="evenodd" fill="#0c5c1d"/><path d="M276.875 311.037c2.195-1.51 3.896-1.385 5.316-1.683 3.638-.252 6.126.248 7.648.877 2.253.97 5.535 3.4 5.95 5.163-3.344-.063-5.56-2.587-9.868-3.544-2.197-.19-6.258-.473-9.045-.813zm-5.811-.659c6.344-3.905 12.36-11.062 12.976-18.542-7.923 6.2-13.295 15.152-12.976 18.542z" fill-rule="evenodd" fill="#0c5c1d"/><path d="M274.646 310.304c5.364-2.327 12.632-7.54 13.515-18.38-7.36 4.632-9.714 11.483-13.514 18.38zm11.322-5.224c-.414-3.06 6.934-19.05 11.222-23.165.468 6.155-5.518 23.44-11.222 23.164zm-.228.613c1.116 4.742 13.246 5.973 17.16.414-4.874-.814-10.902-1.287-17.16-.414zm5.333-3.256c4.96 3.126 17.054.936 24.1-4.65-10.525-3.172-23.557 2.876-24.1 4.65zm9.561-6.837c.787-3.445 10.992-10.25 17.573-9.873-4.18 5.674-5.614 4.703-7.792 7.22-1.488 1.867-6.682 3.238-9.78 2.654zm3.356-7.828c-3.61-1.37-2.805-11.792-.39-16.044 2.447 5.74 3.1 14.686.39 16.044zm4.983-3.85c-4.807-2.674-3.074-15.75-.513-19.417 2.01 3.905 3.063 17.517.513 19.417zm1.842-.116c2.783-4.383 12.48-4.572 16.734-2.878-4.627 4.527-11.75 4.754-16.735 2.878zm2.865-2.816c-4.006-6.262-1.52-9.58.926-17.335 1.183 6.584.23 13.532-.926 17.335zm5.077-13.888c.69-5.805 5.948-8.547 11.927-10.543-1.24 4.273-3.82 8.9-11.927 10.542z" fill-rule="evenodd" fill="#0c5c1d"/><path d="M317.328 270.27c-6.258-1.073-6.55-7.042-6.42-12.88 1.786 3.215 6.066 7.357 6.42 12.88zm-1.59-10.12c1.48-3.627-1.12-13.437-7.51-17.05.1 6.006 4.19 13.47 7.51 17.05zm3.546-2.113c.916-2.164 1.51-3.264 2.89-6.02 2.4-5.033.85-3.347 4.09-9.438 1.75 6.798-1.752 14.913-6.98 15.457zm.424-18.211c-4.332 2.376-8.724.836-14.737-3.98 4.962-.448 9.413 1.936 14.738 3.98zm-1.195-2.416c2.59-8.602 4.114-10.067 6.24-19.405-5.316 4.304-8.05 13.63-6.24 19.405zm-.975-.57c-5.834-4.237-7.206-9.046-13.92-10.8.14 2.405 9.795 12.444 13.92 10.8z" fill-rule="evenodd" fill="#0c5c1d"/><path d="M316.03 230.946c-3.724-4.635-5.78-8.418-11.297-11.768.883 5.654 7.06 13.87 11.298 11.768zm-7.062-10.338c1.183-6.467-6.826-10.758-9.604-14.075-.314 5.714 4.687 12.438 9.604 14.075z" fill-rule="evenodd" fill="#0c5c1d"/><path d="M308.92 213.165c1.857-5.827-3.364-9.775-5.964-12.747.416 5.686 1.276 11.552 5.963 12.747zm7.563 11.572c2.3-3.755.99-12.37-.497-15.997-1.857 1.988-2.745 15.318.497 15.997z" fill-rule="evenodd" fill="#0c5c1d"/><path d="M312.922 217.1c2.606-4.604 1.145-9.523-.384-13.146-1.687 5.377-2.91 10.552.384 13.147zm5.312 36.482c3.865-.496 6.602-8.557 3.94-15.766-2.477 6.416-2.472 9.47-3.94 15.766z" fill-rule="evenodd" fill="#0c5c1d"/><path d="M317.245 239.308c4.81.246 7.842-3.91 10.392-11.18-3.96 2.543-5.91 9.264-10.392 11.18zm3.25 16.248c-4.4 1.053-9.36-10.47-5.955-16.963 3.734 7.442 4.577 10.563 5.955 16.963zm-4.685 16.894c.603-4.398 10.043-5.517 14.783-4.55-3.792 3.046-11.506 4.93-14.784 4.55z" fill-rule="evenodd" fill="#0c5c1d"/><path d="M313.572 279.434c2.68-2.34 6.922.184 13.723-13.082-9.15 5.22-12.665 11.297-13.723 13.082z" fill-rule="evenodd" fill="#0c5c1d"/><path d="M259.037 316.187c-1.455-2.065-9.133-4.293-15.993-4.884-5.928.25-11.363-1.14-16.308-3.675-10.153-10.207-21.453-16.974-30.132-36.846-1.65-5.964-2.645-11.435-2.822-18.382 3.276-23.206 3.605-25.444 12.615-40.788" stroke="#000" stroke-width=".515" fill="none"/><path d="M238.037 313.754c-.178 1.715-6.18 7.027-14.47 6.93.81-1.746 8.962-3.616 11.18-6.77.657-.95 3.355-.97 3.29-.16zm-6.087-2.434c1.042-.174 1.608.34-.19 1.92-3.036 2.55-8.21 3.752-15.814 5.083 2.534-2.553 8.664-4.716 9.16-4.697 2.237-.733 4.868-1.96 6.844-2.305z" fill-rule="evenodd" fill="#0c5c1d"/><path d="M236.365 311.05c-.8-1.763-1.61-2.654-3.03-2.952-3.638-.252-6.507.374-7.648.877-1.238.716-5.154 3.27-5.57 5.035 2.964-.825 4.927-3.095 9.234-3.67 2.07-.698 4.99-.6 7.015.71zm8.1-1.928c-6.345-3.905-10.33-8.905-10.946-16.385 7.922 6.2 11.264 12.995 10.945 16.385z" fill-rule="evenodd" fill="#0c5c1d"/><path d="M240.504 310.194c-6-2.58-8.19-7.413-12.373-15.336 7.49 3.744 10.605 7.676 12.374 15.336zm-13.48-2.694c1.302-5.345-.97-13.21-4.876-17.072-.342 6.028.82 16.08 4.876 17.072z" fill-rule="evenodd" fill="#0c5c1d"/><path d="M224.96 306.086c-1.115 4.742-13.5 4.83-17.16.414 3.733.837 11.918.998 17.16-.414zm-3.293-3.763c-3.82 2.87-19.21-1.856-19.406-4.524 2.024-.254 18.864 2.748 19.407 4.523z" fill-rule="evenodd" fill="#0c5c1d"/><path d="M220.553 301.33c2.232-4.408-3.905-18.354-6.36-18.243 1.45 10.432 4.073 15.174 6.36 18.242zm-4.015-3.685c-1.422-3.32-12.134-8.982-17.573-9.875 4.435 4.66 7.288 4.005 8.808 6.966 1.107 1.994 5.92 2.35 8.765 2.91z" fill-rule="evenodd" fill="#0c5c1d"/><path d="M214.526 295.137c1.115-4.184.557-5.858-2.177-8.87-.28 4.406.28 6.136 2.176 8.87zm-4.016-4.673c3.013-1.974 1.172-12.072-1.506-14.894-.557 7.28-1.283 13.71 1.507 14.894zm-5.356-7.546c5.19-1.785 1.17-11.436-.502-15.228-2.01 3.904 1.507 5.968.502 15.228zm-.949.64c-4.306-4.128-11.97-4.445-16.226-2.75 5.132 1.734 13.017 2.85 16.225 2.75zm-4.518-9.206c-1.126-4.295-10.633-4.277-15.223-2.75 4.13 2.57 12.014 3.52 15.223 2.75z" fill-rule="evenodd" fill="#0c5c1d"/><path d="M202.682 281.096c-2.68-2.34-6.922.184-13.724-13.082 9.15 5.22 12.666 11.297 13.724 13.082z" fill-rule="evenodd" fill="#0c5c1d"/><path d="M201.594 281.256c4.005-6.262 1.518-9.58-.927-17.334-1.183 6.584-.23 13.53.927 17.334zm-6.099-14.266c-1.198-5.68-6.583-8.548-12.054-9.275 1.496 2.878 5.6 3.95 12.055 9.274z" fill-rule="evenodd" fill="#0c5c1d"/><path d="M196.43 269.876c6.324-.575 7.087-6.503 7.416-12.334-2.033 3.065-6.627 6.856-7.415 12.334zm-.058-7.46c3.69.37 8.294-7.647 6.65-14.093-3.01 7.14-3.277 9.646-6.65 14.093zm-1.569-6.818c3.89-.233 7.164-8.09 4.995-15.463-1.8 6.817-.978 9.806-4.995 15.463zm-.683 3.52c-.936-2.274-2.716-3.004-3.55-5.972-1.51-5.31-4.383-6.148-3.944-10.297 6.685 7.78 8.45 12.432 7.495 16.268zm.333-5.822c-1.677-15.045 1.304-8.643-5.213-22.827 9.707 8.694 7.024 22.238 5.213 22.826z" fill-rule="evenodd" fill="#0c5c1d"/><path d="M194.9 246.93c-.325-4.804 3.783-7.903 11.01-10.57-2.478 4.002-9.168 6.06-11.01 10.57zm1.726-11.026c-2.59-8.603-4.114-10.068-6.24-19.406 5.316 4.304 8.05 13.63 6.24 19.406zm2.379-.324c5.834-4.236 7.206-9.045 13.92-10.8-.142 2.406-9.796 12.445-13.92 10.8z" fill-rule="evenodd" fill="#0c5c1d"/><path d="M198.61 231.596c3.723-4.634 5.78-8.418 11.296-11.768-.882 5.654-7.058 13.87-11.297 11.768zm8.493-14.541c.19-6.572 8.917-9.102 12.324-11.767-.882 5.654-7.173 11.19-12.324 11.767z" fill-rule="evenodd" fill="#0c5c1d"/><path d="M206.394 212.54c-1.16-6.006 4.488-9.314 7.42-11.96-1.08 5.597-2.625 11.322-7.42 11.96zm-7.727 9.67c-2.3-3.754-.99-12.368.496-15.997 1.857 1.988 2.745 15.32-.496 15.998zm4.013-5.312c-1.92-4.93.234-9.59 2.267-12.955.898 5.564 1.363 10.86-2.268 12.955z" fill-rule="evenodd" fill="#0c5c1d"/><path d="M233.6 298.336c17.485-17.102 32.69-31.925 57.016-47.205-39.38 30.673-38.163 33.068-54.736 48.46-.684-.57-1.597-.683-2.28-1.254z" fill-rule="evenodd" fill="#6f8593"/><path d="M202.48 302.37l6.516 7.16 19.744-29.973 8.31-8.828-2.012-2.928-12.76 12.473-1.468 2.924-18.33 19.17zm107.773.457l-8.34 7.386-18.603-30.2-10.818-11.793 2.924-2.014 14.356 14.525 1.468 2.925 19.013 19.172z" fill-rule="evenodd" fill="#6a0d06"/><path d="M283.295 284.55c.17-1.084 1.594-3.193-1.598-6.044.076-1.52 1.634-3.097 2.852-3.876 1.024 0 3.99 2.07 5.3 4.39.743 1.615 1.122 4.123.172 6.042-.704 1.064-1.52 2.3-2.395 2.794-.418.303-1.35.208-2.11-.115-1.197-.607-2.11-2.355-2.222-3.19z" fill-rule="evenodd" fill="#bbcdcd"/><path d="M243.394 231.2l-14.56-14.693-.87.035-.304.97-.467 1.35-1.725 1.62-22.74-21.324 21.385 23.324 1.01.012 3.12-3.247 1.313.305 10.723 12.557 3.114-.91zm19.001 87.567c26.642-43.264 49.85-73.08 7.336-111.31-1.59-1.602-7.082-6.67-10.522-7.763-.478-3.097 1.87-7.987-4.13-8.392-2.55.135-3.808 1.046-3.757 3.35.006 1.788.952 2.572.465 4.172-.18.8-2.167 2.625-2.045 4.952.772 4.958 2.687 6.17 3.268 6.877 1.04 1.034 1.662 1.763 4.717 3.024.34.406 1.24 1.165 1.704 1.675 5.613 1.2 10.73.588 14.357 2.396 1.58.487 4.117 3.17 4.942 4.514 10.242 11.23 14.675 29.252-.988 48.28 3.137.256 10.647-12.6 12.362-23.515-2.4 16.282-7.71 21.968-10.342 26.834 5.26-3.504 9.496-15.845 10.482-18.38-4.172 22.464-25.775 50.202-39.367 56.025 12.303-2.852 20.557-15.11 24.934-19.504-4.262 8.792-13.03 21.232-13.415 26.773z" fill-rule="evenodd"/><path d="M280.704 299.476c-17.03-17.216-44.207-43.213-57.702-46.064 21.02 13.57 39.532 31.812 55.42 47.32.685-.572 1.598-.685 2.282-1.256z" fill-rule="evenodd" fill="#6f8593"/><path d="M270.04 232.345l16.015-15.836.873.034.302.97.468 1.35 1.724 1.62 22.74-21.324-21.385 23.324-1.01.012-3.12-3.247-1.313.304L271.7 234.66l-1.66-2.315z" fill-rule="evenodd"/><path d="M227.675 226.498c.837-4.56 2.242-7.867 6.956-8.665 12.354-.533 23.796-.61 36.72-.343 3.686 2.927-.153 8.932-3.992 9.237 5.892 10.184 13.95 17.976 15.053 29.986.38 6.31-1.84 10.4-4.074 12.67-16.982.415-25.21 2.53-39.405 3.63-3.965.476-6.946-4.136-6.908-7.976.023-3.968 1.654-7.07 6.064-7.62 1.368-.148 3.273-.058 4.984-.02-3.307-9.88-16.08-21.587-15.395-30.9z" fill-rule="evenodd" fill="#e3cf6e"/><path d="M249.973 202.194c-1.465 4.705 2.217 8.747 2.798 9.453 1.042 1.034 1.72 1.877 4.776 3.138.338.407 4.71 2.9 5.336 3.49 4.65 1.218 7.12-.87 12.414.428-1.363-3.364-15.507-17.162-25.323-16.51z" fill-rule="evenodd" fill="#336446"/><path d="M250.092 204.33c-1.424 2.328 2.338 7.9 2.92 8.607 1.04 1.034 1.718 1.877 4.773 3.138.34.407 1.853 1.173 2.075 1.44l4.004.733c-1.362-3.365-9.1-15.004-13.772-13.917z" fill-rule="evenodd" fill="#402e08"/><path d="M251.602 196.376l-.952.693 1.385.69-.433-1.384z" fill-rule="evenodd"/><path d="M249.73 205.962c.773 4.957 2.62 6.306 3.24 6.974 1 1.072 1.76 1.756 4.816 3.138 1.226 1.012 1.692 1.294 2.64 1.803l3.235.48c-1.36-3.363-9.428-11.028-13.93-12.395z" fill-rule="evenodd" fill="#8c361d"/><path d="M228.81 284.146c-.17-1.084-1.595-3.192 1.598-6.043-.077-1.52-1.634-3.097-2.852-3.877-1.026 0-3.99 2.07-5.302 4.39-.742 1.616-1.122 4.123-.17 6.043.703 1.063 1.52 2.298 2.393 2.793.418.303 1.35.208 2.11-.115 1.197-.608 2.11-2.356 2.223-3.192z" fill-rule="evenodd" fill="#bbcdcd"/><path d="M231.09 299.936c-1.444 1.672-7.106 4.94-8.21 6.044-.912 1.216 1.255 2.89 2.623 3.078 2.433-1.824 4.865-4.333 7.07-5.814 3.074-2.84 2.87-3.073 7.87-1.597-.724-2.66-5.78-4.75-8.668-5.358-4.866.53-7.11 2.544-8.097 5.357 3.23-2.433 5.436-3.61 7.413-1.71z" fill-rule="evenodd" fill="#d4be72"/><path d="M284.13 284.478c.09-.52.383-.8.392-1.822 1.066 1.533 1.575 2.313 2.96 4.26-.5.667-1.22.353-1.898.03-.633-.406-1.54-1.712-1.453-2.468zm-56.01-.342c-.092-.52-.384-.8-.393-1.823-1.066 1.534-1.575 2.314-2.96 4.26.5.668 1.22.353 1.898.03.633-.405 1.54-1.712 1.454-2.467z" fill-rule="evenodd" fill="#fff"/><path d="M282.19 301.076c1.445 1.673 7.107 4.94 8.21 6.044.913 1.216-1.253 2.89-2.622 3.08-2.433-1.826-4.865-4.335-7.07-5.816-2.518-3.025-3.61-2.888-7.87-1.597.724-2.66 5.78-4.75 8.668-5.358 4.866.53 7.11 2.545 8.097 5.357-3.23-2.433-5.436-3.61-7.413-1.71z" fill-rule="evenodd" fill="#d4be72"/><path d="M242.99 257.438c1.21 1.734 2.218 5.562 2.38 8.022.215 4.756-4.61 7.175-6.25 6.974-3.117-.377-5.672-2.728-5.927-6.37.497-4.245 2.284-6.598 5.24-6.773 1.938.338 4.114 2.65 4.114 5.444-.053 2.312-.712 4.622-2.137 4.676-3.467-.268-3.266-2.27-3.83-3.346-.148-.792-.272-2.938.12-3.466.52-.642 2.904-1.49 4.072.16 1.263 1.29-1.867-.684-3.103.2-.633.902-.216 2.366-.042 2.944.216.578.19 2.486 2.58 2.38.875-.134 1.183-1.924 1.25-3.67.136-1.195-1.545-3.6-3.225-4.11-1.17-.19-4.03 2.202-3.91 5.562.23 3.817 3.36 5.133 5.04 4.878 1.705-.457 5.267-1.8 5.12-5.603-.377-4.194-1.158-5.928-2.5-7.943.523 0 .484 0 1.008.04zm25-29.628l-.728-1.17H251.62c-4.435.403-11.19 1.075-13.514 2.082-5.953 2.93-7.574-2.243-7.897-3.533-.347-1.184.392-3.32 1.548-4.072.457-.874 3.012-1.83 4.557-1.253 1.748.74 2.507 2.944 2.23 4.436-.526 2.22-4.722 3.59-3.23 1.332.188-.992.944-3.75-.387-5.725l-1.218.242c1.693 3.523.14 5.27.06 6.278-.08 1.694 1.367 1.546 2.488 1.503.765-.04 2.058-1.008 2.582-1.533.63-.55.728-1.617.805-2.86.198-3.282-2.808-5.618-4.837-5.322-6.168 1.532-6.317 6.678-4.92 9.352.78 1.343 1.68 2.164 3.186 2.943 1.263.377 3.173.16 4.676-.404 2.976-1.068 7.798-2.015 13.805-2.163l16.434-.134z" fill-rule="evenodd"/><path d="M257.056 235.713l.646.942-.097.01a3.26 3.26 0 0 0-.512-.446 1.512 1.512 0 0 0-.444-.2 1.176 1.176 0 0 0-.39-.007l-.272.03 1.84 2.682c.123.178.21.288.26.33.05.043.118.078.2.106a.68.68 0 0 0 .282.023l.12-.013.066.095-1.91.204-.065-.096.122-.013c.106-.01.178-.038.22-.08.03-.03.038-.074.025-.135-.01-.043-.073-.152-.193-.327l-1.84-2.683-.264.028c-.246.026-.39.095-.434.205-.06.156-.023.364.112.625l-.103.01-.646-.94 3.276-.35zm-9.488 1.229l.97 1.416.074-.007c.23-.024.352-.11.36-.26.01-.15-.064-.362-.22-.635l.1-.01 1.25 1.82-.1.012a2.887 2.887 0 0 0-.473-.473 1.283 1.283 0 0 0-.415-.23 1.187 1.187 0 0 0-.444-.023l.674.98c.13.192.22.31.265.35.046.04.102.072.168.095.065.022.15.028.254.017l.218-.024c.34-.036.562-.14.663-.313.102-.172.093-.417-.028-.734l.1-.01.594 1.124-3.154.335-.065-.096.122-.013c.106-.01.18-.037.22-.08.03-.03.037-.073.022-.134-.008-.043-.073-.152-.192-.327l-1.57-2.29a3.432 3.432 0 0 0-.212-.288.588.588 0 0 0-.195-.128.686.686 0 0 0-.328-.042l-.122.013-.064-.095 3.053-.325.705 1.03-.1.01c-.226-.246-.423-.418-.594-.518a1.595 1.595 0 0 0-.563-.2c-.12-.02-.32-.014-.595.015l-.377.04zm-3.12 3.745l.066.095-1.907.204-.065-.096.12-.012c.106-.012.18-.04.22-.08.03-.03.037-.075.022-.136-.008-.043-.072-.152-.192-.326l-1.57-2.29a1.936 1.936 0 0 0-.258-.33.658.658 0 0 0-.477-.128l-.12.014-.066-.095 1.908-.203.065.094-.12.013c-.107.012-.18.04-.22.082-.03.03-.04.074-.025.136.008.042.072.152.19.326l1.57 2.288c.123.178.21.288.26.33a.628.628 0 0 0 .48.128l.12-.013zm-2.988-.89l.702 1.236-3.238.345-.065-.095.12-.013c.105-.01.178-.038.218-.08.03-.03.038-.074.023-.135-.007-.043-.07-.152-.19-.327l-1.57-2.288c-.123-.178-.21-.288-.26-.33s-.116-.077-.198-.103a.648.648 0 0 0-.278-.026l-.122.014-.064-.095 1.944-.208.065.095-.16.017c-.104.01-.177.038-.217.08-.03.03-.04.075-.026.136.008.043.073.152.193.327l1.52 2.216c.122.178.21.29.266.338.054.046.12.078.2.095.056.01.17.007.342-.01l.304-.034c.192-.02.33-.07.416-.148.085-.08.125-.193.122-.343 0-.152-.053-.368-.156-.65l.11-.013zm22.23-1.057l-.065-.095.12-.013c.107-.01.177-.035.21-.072a.154.154 0 0 0 .038-.144c-.01-.038-.074-.146-.197-.326l-1.57-2.288c-.122-.178-.208-.288-.258-.33s-.117-.077-.2-.103a.617.617 0 0 0-.278-.027l-.12.013-.066-.095 1.633-.172a3.35 3.35 0 0 1 1.167.057c.42.104.81.287 1.17.55.36.262.66.57.905.925.166.244.28.474.34.69.057.214.067.396.03.545a.732.732 0 0 1-.234.37c-.115.1-.28.185-.498.255-.095.032-.26.06-.495.086l-1.633.174zm-.86-3.43l1.862 2.715c.098.144.166.23.203.262a.35.35 0 0 0 .123.067c.066.02.145.025.236.015.3-.032.46-.154.486-.366.034-.286-.14-.706-.52-1.26-.305-.447-.623-.795-.953-1.047-.26-.196-.506-.322-.74-.378-.167-.04-.4-.043-.697-.01zm-1.578 2.628l-1.29.137.08.356a.833.833 0 0 0 .117.288.504.504 0 0 0 .27.202c.068.023.2.03.4.024l.066.095-1.214.128-.065-.095c.118-.033.19-.096.218-.188.025-.095.01-.28-.05-.56l-.598-2.914.05-.005 3.272 2.713c.31.257.53.416.66.477.096.047.204.07.32.065l.066.095-1.765.19-.064-.097.072-.008c.143-.015.23-.044.26-.088.02-.03.014-.072-.022-.124a.545.545 0 0 0-.08-.093 6.251 6.251 0 0 0-.213-.184l-.49-.412zm-.222-.18l-1.365-1.14.262 1.258 1.103-.118zm-8.666.489l.668.974c.13.19.222.307.28.354.058.045.127.08.208.102.08.023.204.025.372.007l.065.095-1.867.2-.065-.096c.168-.018.272-.045.31-.08a.137.137 0 0 0 .047-.132c-.008-.05-.076-.17-.205-.358l-1.55-2.257c-.128-.19-.22-.305-.28-.35-.056-.048-.126-.082-.207-.105s-.205-.025-.37-.007l-.066-.095 1.695-.18c.44-.047.782-.053 1.027-.016.244.036.485.126.722.27.234.142.425.318.57.528.175.257.223.48.145.667-.052.12-.17.217-.356.294l1.684 1.085c.22.14.366.226.44.26.11.044.214.064.315.06l.064.094-1.148.12-2.263-1.46-.24.027zm-1.17-1.707l1.045 1.524.152-.016c.25-.027.42-.068.515-.124.094-.057.136-.147.13-.267-.008-.122-.074-.274-.2-.458-.182-.266-.382-.454-.6-.567a1.304 1.304 0 0 0-.756-.124l-.287.03zm-5.371 2.125c.4.04.706.108.92.202.308.134.547.325.717.574.18.262.218.49.114.685-.128.236-.45.38-.967.436l-1.854.198-.065-.094c.17-.02.272-.045.312-.08a.139.139 0 0 0 .046-.132c-.008-.05-.077-.17-.206-.358l-1.55-2.258c-.128-.188-.22-.304-.278-.35a.573.573 0 0 0-.208-.104 1.078 1.078 0 0 0-.372-.008l-.065-.094 1.75-.186c.417-.045.737-.04.96.012.222.052.432.144.63.274.197.13.35.274.46.434.113.167.153.324.115.47-.038.142-.19.27-.46.38zm-1.027.035c.255-.027.423-.075.506-.142a.307.307 0 0 0 .122-.26c-.004-.107-.06-.237-.164-.39a1.393 1.393 0 0 0-.356-.368 1.252 1.252 0 0 0-.426-.196c-.154-.04-.36-.043-.62-.014l.938 1.37zm.138.2l.765 1.116.085.13c.063.09.135.16.216.2a.475.475 0 0 0 .27.047.57.57 0 0 0 .333-.132c.08-.073.113-.17.1-.293a.942.942 0 0 0-.17-.397 1.7 1.7 0 0 0-.418-.424c-.168-.122-.34-.2-.512-.237a2.14 2.14 0 0 0-.67-.01zm13.721 2.342l.917 1.416.074-.007c.232-.024.355-.11.37-.26.015-.15-.05-.362-.197-.635l.102-.01 1.18 1.82-.104.01c-.15-.195-.3-.352-.453-.47a1.186 1.186 0 0 0-.405-.23 1.155 1.155 0 0 0-.443-.024l.635.98c.124.192.208.31.252.35.045.04.1.072.165.095a.598.598 0 0 0 .252.016l.22-.022c.34-.036.567-.14.674-.312.11-.173.11-.418 0-.735l.1-.01.552 1.123-3.166.336-.06-.096.12-.013c.107-.01.18-.037.222-.08.032-.03.04-.074.03-.134-.008-.044-.068-.152-.18-.327l-1.483-2.29a2.844 2.844 0 0 0-.2-.288.55.55 0 0 0-.19-.128.671.671 0 0 0-.328-.042l-.12.013-.062-.095 3.065-.325.667 1.03-.104.01c-.214-.246-.405-.42-.572-.518-.164-.1-.35-.166-.556-.2-.12-.02-.32-.014-.596.015l-.38.04zm-8.935.736l1.714-.182.156.69-1.443.154.087.36c.636-.043 1.21.053 1.72.29.42.195.74.46.955.792.137.214.21.43.214.65a.65.65 0 0 1-.234.53c-.162.133-.38.215-.658.244-.3.032-.563.003-.792-.086-.16-.063-.272-.143-.334-.24-.048-.072-.06-.14-.04-.203.023-.063.073-.098.15-.107.07-.007.15 0 .24.02s.26.077.51.175c.157.06.283.1.38.12.07.014.14.017.21.01.147-.016.24-.08.275-.194.04-.113.012-.242-.08-.385-.197-.302-.513-.53-.952-.683-.44-.155-.9-.207-1.38-.155l-.22.025-.48-1.824zm-1.853.119l1.843 2.845c.138.214.236.35.295.407.058.055.13.1.217.13s.2.04.34.024l.083-.01.06.096-1.927.205-.062-.095.098-.01c.157-.017.257-.046.3-.087.046-.04.06-.093.046-.155-.016-.063-.095-.204-.237-.423l-1.167-1.803a1.947 1.947 0 0 0-.22-.298.442.442 0 0 0-.157-.093.4.4 0 0 0-.18-.026.618.618 0 0 0-.283.117l-.108-.086.968-.727.09-.01zm7.483 3l-.06-.094.12-.014c.108-.012.18-.036.214-.072a.17.17 0 0 0 .043-.145c-.007-.037-.07-.146-.186-.326L254 242.16c-.116-.18-.197-.29-.246-.33s-.114-.078-.196-.104a.636.636 0 0 0-.276-.026l-.122.013-.062-.094 1.64-.175a3.365 3.365 0 0 1 1.166.057c.415.104.797.287 1.146.55.35.262.642.57.87.925.16.244.264.475.315.69.05.214.053.396.01.545a.786.786 0 0 1-.248.372c-.12.098-.288.183-.508.254a2.94 2.94 0 0 1-.5.085l-1.64.174zm-.727-3.43l1.757 2.715c.093.144.158.23.193.262.036.03.076.053.12.067.066.02.145.026.237.017.3-.032.467-.154.5-.366.044-.285-.112-.705-.47-1.26-.29-.446-.594-.794-.916-1.046a1.92 1.92 0 0 0-.726-.377c-.164-.04-.396-.043-.695-.01zm19.515 3.66l.987 1.416.072-.007c.23-.025.35-.112.358-.262.008-.15-.07-.36-.23-.634l.104-.01 1.267 1.82-.1.012a2.789 2.789 0 0 0-.478-.473 1.28 1.28 0 0 0-.417-.23 1.189 1.189 0 0 0-.445-.025l.684.98c.133.192.223.31.27.35.046.04.103.072.17.095.064.022.15.028.253.017l.217-.024c.34-.036.56-.14.66-.313.1-.172.09-.417-.035-.734l.1-.01.605 1.122-3.148.336-.067-.095.12-.014c.107-.01.18-.038.22-.08.03-.03.036-.074.02-.135-.01-.042-.073-.15-.195-.326l-1.594-2.288a3.514 3.514 0 0 0-.216-.29.59.59 0 0 0-.196-.127.698.698 0 0 0-.33-.043l-.12.013-.066-.095 3.05-.325.715 1.03-.1.01c-.23-.246-.428-.42-.6-.518a1.6 1.6 0 0 0-.564-.2c-.12-.02-.32-.014-.596.015l-.376.04zm-10.258 3.34l-.61-2.4 1.484-.157.066.095-.118.012c-.108.012-.18.04-.22.08-.028.03-.036.075-.024.134.01.044.074.152.194.324l1.598 2.294c.124.178.21.288.262.33.05.043.118.078.203.106a.69.69 0 0 0 .28.022l.117-.012.066.095-1.902.202-.067-.095.118-.013c.107-.012.18-.04.22-.08.028-.03.036-.075.022-.136-.01-.043-.074-.152-.195-.326l-1.797-2.58.814 3.324-.065.007-3.614-3 1.708 2.45c.12.172.198.276.234.315a.89.89 0 0 0 .297.194.906.906 0 0 0 .424.04l.067.095-1.245.133-.067-.095.038-.004a.41.41 0 0 0 .2-.06c.05-.033.08-.075.084-.123s-.01-.114-.047-.196c-.01-.02-.07-.106-.177-.262l-1.534-2.2c-.123-.177-.21-.286-.26-.326a.537.537 0 0 0-.2-.102.629.629 0 0 0-.28-.026l-.115.012-.066-.094 1.49-.16 2.62 2.185zm-6.252-1.582l.987 1.416.073-.006c.23-.025.35-.112.357-.262.008-.15-.07-.36-.228-.634l.102-.01 1.268 1.82-.102.01a2.793 2.793 0 0 0-.476-.47 1.28 1.28 0 0 0-.417-.23 1.165 1.165 0 0 0-.444-.024l.682.98c.134.19.224.308.27.35.047.04.103.07.17.094a.61.61 0 0 0 .254.016l.217-.023c.34-.035.56-.14.66-.31.1-.174.09-.42-.036-.736l.1-.01.606 1.122-3.15.336-.065-.095.12-.013c.106-.01.178-.038.218-.08.03-.03.038-.075.022-.135-.01-.045-.074-.153-.196-.328l-1.594-2.288a3.882 3.882 0 0 0-.215-.29.583.583 0 0 0-.197-.127.68.68 0 0 0-.33-.042l-.12.013-.066-.095 3.05-.325.716 1.03-.102.01c-.227-.246-.426-.42-.597-.518-.17-.1-.358-.166-.566-.2-.12-.02-.32-.014-.596.015l-.376.04zm.592 3.357l.066.096-1.905.203-.065-.094.12-.013c.106-.012.18-.04.218-.08.03-.03.038-.075.022-.136-.01-.043-.075-.152-.196-.326l-1.595-2.288c-.124-.177-.21-.288-.262-.33a.563.563 0 0 0-.202-.103.607.607 0 0 0-.276-.027l-.12.013-.067-.094 1.905-.203.065.093-.12.013c-.106.01-.18.04-.218.08-.03.03-.04.075-.025.136.01.043.074.153.195.327l1.595 2.287c.124.178.21.288.262.33a.635.635 0 0 0 .481.128l.12-.013zm-4.568-3.145l.656.94-.097.01c-.207-.21-.38-.36-.515-.445a1.551 1.551 0 0 0-.447-.198 1.144 1.144 0 0 0-.39-.008l-.27.03 1.87 2.682c.123.178.21.29.26.33a.652.652 0 0 0 .484.128l.122-.013.066.095-1.907.204-.066-.095.12-.013c.107-.01.18-.04.218-.08.03-.03.04-.075.025-.136-.01-.043-.074-.152-.196-.326l-1.87-2.684-.263.028c-.244.027-.388.095-.43.206-.06.155-.02.363.118.624l-.103.01-.656-.94 3.272-.35zm-8.868 1.158l.986 1.416.073-.006c.23-.025.35-.112.358-.262.008-.15-.068-.36-.227-.634l.1-.01 1.27 1.82-.102.012a2.745 2.745 0 0 0-.475-.473 1.286 1.286 0 0 0-.416-.23 1.194 1.194 0 0 0-.445-.023l.682.98c.134.19.224.308.27.35.047.04.104.07.17.094.065.022.15.028.254.017l.22-.024c.34-.035.56-.14.658-.31.1-.174.09-.42-.035-.736l.1-.01.605 1.122-3.15.336-.065-.095.12-.013c.107-.01.18-.038.218-.08.032-.03.04-.074.024-.135-.01-.044-.074-.153-.196-.328l-1.595-2.288a3.36 3.36 0 0 0-.215-.29.59.59 0 0 0-.196-.127.695.695 0 0 0-.33-.042l-.12.013-.067-.095 3.05-.325.717 1.03-.103.01c-.228-.246-.427-.418-.598-.518-.17-.1-.358-.166-.566-.2-.12-.02-.32-.014-.596.015l-.376.04zm-2.17-.07l.837 1.156-.11.013a2.73 2.73 0 0 0-.87-.66c-.327-.155-.61-.22-.846-.196-.182.02-.294.082-.337.188-.04.104-.02.216.065.337.054.078.12.144.2.2.108.074.246.145.416.212.123.047.388.126.792.237.566.156.986.315 1.258.476.27.163.485.358.645.588.203.29.258.553.167.79-.09.233-.32.37-.685.408-.114.013-.23.013-.348.002a4.082 4.082 0 0 1-.472-.085.836.836 0 0 0-.248-.03.153.153 0 0 0-.112.068c-.028.04-.034.096-.017.17l-.1.01-.915-1.313.1-.01c.336.36.684.626 1.043.797.36.17.67.24.93.212.2-.02.324-.09.37-.207.048-.117.022-.245-.074-.383a.984.984 0 0 0-.236-.232 1.778 1.778 0 0 0-.36-.196c-.14-.06-.37-.133-.682-.22-.44-.12-.77-.226-.992-.32a2.984 2.984 0 0 1-.592-.33 1.936 1.936 0 0 1-.427-.436c-.193-.277-.25-.524-.173-.74.077-.22.278-.346.602-.38a1.72 1.72 0 0 1 .372.004c.1.012.228.04.387.083.16.042.266.06.314.055.046-.005.073-.023.08-.053.01-.03-.012-.1-.06-.206l.08-.01zm7.016 1.388l.672.964c.13.19.226.306.284.353a.58.58 0 0 0 .21.102c.082.022.206.025.37.007l.067.094-1.852.198-.065-.095c.17-.018.273-.045.31-.08a.135.135 0 0 0 .045-.132c-.008-.05-.078-.17-.21-.358l-1.572-2.257c-.13-.19-.225-.305-.284-.35-.058-.048-.128-.083-.21-.105s-.204-.025-.37-.008l-.067-.094 1.588-.17c.524-.055.96-.006 1.312.147.35.154.62.364.806.63.157.227.218.428.184.604-.035.176-.16.308-.38.393-.144.06-.423.112-.837.156zm-1.187-1.703l1.048 1.503c.062-.003.108-.006.14-.01.217-.023.343-.103.375-.238.03-.137-.044-.336-.225-.596-.18-.26-.37-.442-.572-.55a1.115 1.115 0 0 0-.655-.122l-.11.012zm19.997-.597c.398.04.706.107.922.202.31.134.55.325.723.573.182.262.222.49.12.685-.125.236-.446.38-.96.436l-1.852.196-.067-.095c.168-.017.272-.044.31-.078a.136.136 0 0 0 .045-.132c-.007-.05-.077-.17-.208-.358l-1.573-2.258c-.133-.188-.227-.305-.286-.35a.558.558 0 0 0-.208-.104 1.044 1.044 0 0 0-.37-.008l-.067-.095 1.745-.186c.417-.043.738-.04.96.014.224.052.435.143.633.274.2.13.353.274.464.434.117.167.158.324.122.47-.037.142-.188.27-.455.38zm-1.027.035c.254-.027.422-.075.504-.142a.3.3 0 0 0 .118-.26c-.005-.107-.06-.237-.167-.39a1.42 1.42 0 0 0-.36-.368 1.288 1.288 0 0 0-.428-.196c-.154-.04-.36-.043-.622-.014l.955 1.37zm.14.2l.777 1.116.086.13c.065.09.138.16.22.2.082.042.17.057.268.047a.569.569 0 0 0 .333-.13.33.33 0 0 0 .095-.295.934.934 0 0 0-.173-.398 1.774 1.774 0 0 0-.424-.423c-.17-.122-.34-.2-.514-.237a2.173 2.173 0 0 0-.67-.01zm3.749-.261l.68.975c.13.188.225.305.283.352.06.045.128.08.21.102.08.023.204.025.37.007l.068.095-1.865.2-.067-.096c.17-.018.273-.045.313-.08a.136.136 0 0 0 .044-.132c-.01-.05-.08-.17-.21-.358l-1.573-2.257c-.13-.188-.226-.305-.284-.35a.565.565 0 0 0-.208-.104 1.084 1.084 0 0 0-.372-.007l-.066-.095 1.692-.18c.442-.047.784-.053 1.03-.016s.485.126.723.27c.237.142.43.318.575.528.18.257.23.48.154.667-.05.12-.17.217-.354.294l1.697 1.086c.22.14.368.226.442.258.11.045.216.065.316.06l.067.095-1.146.12-2.278-1.46-.24.027zm-1.19-1.707l1.064 1.525.153-.017c.248-.026.42-.068.513-.124.092-.057.134-.146.125-.267-.007-.122-.075-.274-.203-.457-.185-.265-.387-.454-.606-.567a1.31 1.31 0 0 0-.76-.123l-.287.03zm-1.805 5.507l1.34 2.845c.1.214.176.35.224.407.048.055.113.1.195.13s.194.04.335.024l.085-.01.045.096-1.964.205-.046-.095.1-.01c.16-.017.265-.046.317-.087a.178.178 0 0 0 .07-.156c-.003-.062-.057-.203-.16-.422l-.85-1.803a1.582 1.582 0 0 0-.166-.298.343.343 0 0 0-.14-.092.353.353 0 0 0-.176-.028.713.713 0 0 0-.303.117l-.092-.086 1.098-.728.09-.01zm-.647 3.789l-2.197.23-.026-.058c.32-.817.492-1.363.513-1.636a1.487 1.487 0 0 0-.14-.78.97.97 0 0 0-.388-.427.82.82 0 0 0-.522-.134c-.283.03-.44.185-.472.465l-.117-.023c-.055-.34-.02-.597.108-.776.13-.178.324-.28.588-.31.19-.018.38.004.576.07.194.066.37.167.525.3.155.134.262.263.32.387.108.228.15.466.123.714-.036.336-.232.82-.59 1.45l.807-.083c.198-.02.323-.042.374-.064a.203.203 0 0 0 .114-.092.75.75 0 0 0 .04-.25l.1-.01.265 1.028zm-7.806-2.908l1.34 2.845c.102.214.176.35.224.407a.45.45 0 0 0 .195.13c.082.032.193.04.335.025l.085-.01.045.096-1.965.206-.045-.095.1-.01c.16-.016.264-.045.317-.086a.175.175 0 0 0 .07-.156c-.003-.062-.058-.203-.16-.42l-.85-1.805c-.076-.16-.13-.26-.167-.298a.35.35 0 0 0-.14-.092.353.353 0 0 0-.176-.028.735.735 0 0 0-.303.117l-.093-.087 1.097-.727.09-.01zm-5.342.842l.667 1.415.073-.008c.237-.024.376-.11.416-.26.04-.15.012-.362-.086-.635l.105-.01.858 1.82-.105.012a2.058 2.058 0 0 0-.37-.473.94.94 0 0 0-.365-.228 1.125 1.125 0 0 0-.44-.024l.463.98c.092.19.155.308.192.35.038.04.088.07.148.094a.58.58 0 0 0 .25.017l.224-.025c.348-.036.592-.14.73-.313.14-.172.184-.417.13-.734l.102-.01.352 1.122-3.224.336-.045-.095.123-.012a.422.422 0 0 0 .236-.08c.035-.03.053-.074.05-.135.002-.044-.04-.152-.12-.327l-1.08-2.288a2.205 2.205 0 0 0-.15-.29.425.425 0 0 0-.166-.127.627.627 0 0 0-.32-.04l-.124.012-.045-.095 3.123-.325.485 1.03-.105.01c-.17-.246-.332-.42-.48-.518a1.3 1.3 0 0 0-.522-.2c-.117-.02-.317-.014-.6.015l-.384.04zm-3.985 3.854l-.044-.095.123-.014c.11-.01.184-.035.226-.07a.194.194 0 0 0 .068-.146c0-.037-.043-.146-.128-.325l-1.078-2.29c-.084-.177-.146-.287-.187-.33a.454.454 0 0 0-.178-.102.63.63 0 0 0-.273-.026l-.124.013-.045-.094 1.67-.174c.446-.047.832-.028 1.156.057.398.103.747.286 1.05.55.304.26.54.57.707.924.116.244.18.474.193.69.013.214-.016.396-.086.545a.983.983 0 0 1-.313.37c-.136.1-.32.184-.553.255-.1.032-.272.06-.512.085l-1.67.174zm-.123-3.43l1.278 2.715c.068.143.117.23.147.262.03.03.065.052.108.066.062.02.14.026.234.016.306-.032.494-.153.563-.366.096-.286.014-.706-.248-1.26-.21-.447-.453-.795-.73-1.047a1.585 1.585 0 0 0-.66-.377c-.157-.04-.387-.04-.693-.008zm13.096.016c.347.152.608.3.782.446.175.143.31.315.404.515.132.282.13.53-.005.75-.134.216-.395.345-.784.385-.37.04-.694-.016-.976-.164-.28-.148-.48-.344-.594-.588-.088-.187-.107-.356-.058-.508.05-.153.185-.3.402-.446-.395-.18-.665-.332-.813-.457a1.307 1.307 0 0 1-.342-.45c-.11-.233-.1-.448.027-.646.13-.2.378-.32.747-.358.355-.037.665.013.93.15.266.136.45.314.553.533a.598.598 0 0 1 .05.45c-.045.136-.152.266-.322.39zm-.27-.11a.703.703 0 0 0 .016-.302 1.327 1.327 0 0 0-.116-.354 1.182 1.182 0 0 0-.394-.495.556.556 0 0 0-.383-.104c-.123.013-.208.066-.255.16-.047.09-.042.197.016.32.06.125.167.25.327.375.16.124.424.258.79.4zm-.296.6a.366.366 0 0 0-.06.143.875.875 0 0 0 .025.272c.024.117.065.24.124.363.076.16.162.294.258.4a.789.789 0 0 0 .297.213c.104.04.2.055.285.047.134-.014.226-.072.275-.172.048-.102.034-.232-.04-.39-.157-.333-.545-.624-1.166-.876z" fill="#8c361d"/></svg>