<svg xmlns="http://www.w3.org/2000/svg" height="512" width="512"><defs><clipPath id="a"><path fill-opacity=".67" d="M0 .354h495.71v495.71H0z"/></clipPath></defs><g fill-rule="evenodd" clip-path="url(#a)" transform="translate(0 -.366) scale(1.0329)"><g stroke-width="1pt"><path fill="#e4104d" d="M0 248.03h744.09v248.03H0z"/><path fill="#8a85ff" d="M0 .354h744.09v247.68H0z"/></g><path d="M145.201 150.51l48.58-.185s17.939-21.555 8.441-35.678c-9.497-14.122-46.733-.446-46.883-.446-.15 0-.301-7.581-9.497-7.73-9.196.149-9.347 7.73-9.497 7.73-.151 0-37.387-13.676-46.883.446-9.498 14.123 8.442 35.678 8.442 35.678l47.3.184z" fill="#f3ef7d"/><path d="M145.227 150.506l46.635-.18s17.223-20.938 8.105-34.657c-9.118-13.72-44.864-.434-45.008-.434-.144 0-.29-7.365-9.117-7.51-8.828.145-8.973 7.51-9.118 7.51-.144 0-35.89-13.285-45.007.434-9.118 13.719 8.104 34.658 8.104 34.658l45.409.179z"/><path d="M199.445 121.21h-.553v6.63h.553zm-2.01-3.598h-.553v13.634h.553zm-1.92-1.865h-.649v17.935h.649zm-2.46-1.311h-.703v21.451h.703zm-2.79-.768h-.703v24.041h.703zm-2.85-.931h-.697v26.196h.697zm-2.42-.203h-.703v27.301h.703zm-2.43 0h-.703v28.069h.703zm-3.04.06h-.649v29.277h.649zm-2.85.282h-.799v29.293h.799zm-3.12.719h-.799v28.861h.799zm-3.05 1.12h-.751v27.946h.751zm-3.19 1.281h-.703v26.46h.703zm-2.64.863h-.703v24.686h.703zm-2.81 1.669h-.601v22.263h.601zm-2.46 2.16h-.505v19.025h.505zm-2.21 2.111h-.601v15.475h.601zm-2.16 3.234h-.54v9.879h.54zm-63.08-5.486h.553v6.63h-.553zm2.01-3.598h.553v13.634h-.553zm1.92-1.865h.649v17.935h-.649zm2.46-1.311h.703v21.451h-.703zm2.79-.768h.703v24.041h-.703zm2.85-.931h.697v26.196h-.697zm2.42-.203h.703v27.301h-.703zm2.43 0h.703v28.069h-.703zm3.04.06h.649v29.277h-.649zm2.85.282h.799v29.293h-.799zm3.12.719h.799v28.861h-.799zm3.05 1.12h.751v27.946h-.751zm3.19 1.281h.703v26.46h-.703zm2.64.863h.703v24.686h-.703zm2.81 1.669h.601v22.263h-.601zm2.46 2.16h.505v19.025h-.505zm2.21 2.111h.601v15.475h-.601zm2.16 3.234h.54v9.879h-.54zm8.647-34.917l-.064-1.003c0-.2-1.409-1.337-1.409-4.212s1.217-4.011 1.857-4.011 2.05.936 2.113 3.944c.064 3.009-1.408 4.145-1.408 4.145l-.128 1.204s1.024.066 1.088.066c.064 0 1.409-1.203 4.867-1.07s3.65 1.605 3.714 2.073c.064.468-.512 1.872-3.97 1.872s-4.483-1.671-4.547-1.671c-.064 0-1.088-.067-1.088-.067v.87s1.344 1.069 1.28 4.612c-.064 3.543-1.409 3.744-1.793 3.744-.512 0-1.6-.2-1.665-3.677.128-3.543 1.025-4.546 1.025-4.613v-.87h-.96s-1.025.87-4.547.937c-3.522.067-3.715-1.003-3.779-1.605-.064-.601.64-1.671 3.715-1.738 3.073-.067 4.546 1.07 4.546 1.07h1.153z" fill="#f3ef7d"/><g transform="matrix(.3339 0 0 .3551 69.731 71.52)" stroke-width="1pt" fill="#f3ef7d"><rect rx="5.828" ry="5.828" height="11.656" width="11.656" y="105.59" x="188.99"/><rect rx="5.828" ry="5.828" height="11.656" width="11.656" y="103.23" x="177.22"/><rect rx="5.828" ry="5.828" height="11.656" width="11.656" y="99.703" x="164.86"/><rect rx="5.828" ry="5.828" height="11.656" width="11.656" y="96.759" x="152.49"/><rect rx="5.828" ry="5.828" height="11.656" width="11.656" y="94.404" x="139.54"/><rect rx="5.828" ry="5.828" height="11.656" width="11.656" y="92.638" x="126.59"/><rect rx="5.828" ry="5.828" height="11.656" width="11.656" y="91.461" x="114.23"/><rect rx="5.828" ry="5.828" height="11.656" width="11.656" y="90.872" x="101.27"/><rect rx="5.828" ry="5.828" height="11.656" width="11.656" y="92.638" x="88.911"/><rect rx="5.828" ry="5.828" height="11.656" width="11.656" y="94.404" x="75.96"/><rect rx="5.828" ry="5.828" height="11.656" width="11.656" y="98.525" x="64.185"/><rect rx="5.828" ry="5.828" height="11.656" width="11.656" y="106.18" x="53"/><rect rx="5.828" ry="5.828" height="11.656" width="11.656" y="116.78" x="45.346"/><rect rx="5.828" ry="5.828" height="11.656" width="11.656" y="127.96" x="40.637"/><rect rx="5.828" ry="5.828" height="11.656" width="11.656" y="140.32" x="38.871"/><rect rx="5.828" ry="5.828" height="11.656" width="11.656" y="153.28" x="39.459"/><rect rx="5.828" ry="5.828" height="11.656" width="11.656" y="165.64" x="42.403"/><rect rx="5.828" ry="5.828" height="11.656" width="11.656" y="178" x="47.113"/><rect rx="5.828" ry="5.828" height="11.656" width="11.656" y="188.6" x="52.411"/></g><g transform="matrix(-.3339 0 0 .3551 222.045 71.52)" stroke-width="1pt" fill="#f3ef7d"><rect rx="5.828" ry="5.828" height="11.656" width="11.656" y="105.59" x="188.99"/><rect rx="5.828" ry="5.828" height="11.656" width="11.656" y="103.23" x="177.22"/><rect rx="5.828" ry="5.828" height="11.656" width="11.656" y="99.703" x="164.86"/><rect rx="5.828" ry="5.828" height="11.656" width="11.656" y="96.759" x="152.49"/><rect rx="5.828" ry="5.828" height="11.656" width="11.656" y="94.404" x="139.54"/><rect rx="5.828" ry="5.828" height="11.656" width="11.656" y="92.638" x="126.59"/><rect rx="5.828" ry="5.828" height="11.656" width="11.656" y="91.461" x="114.23"/><rect rx="5.828" ry="5.828" height="11.656" width="11.656" y="90.872" x="101.27"/><rect rx="5.828" ry="5.828" height="11.656" width="11.656" y="92.638" x="88.911"/><rect rx="5.828" ry="5.828" height="11.656" width="11.656" y="94.404" x="75.96"/><rect rx="5.828" ry="5.828" height="11.656" width="11.656" y="98.525" x="64.185"/><rect rx="5.828" ry="5.828" height="11.656" width="11.656" y="106.18" x="53"/><rect rx="5.828" ry="5.828" height="11.656" width="11.656" y="116.78" x="45.346"/><rect rx="5.828" ry="5.828" height="11.656" width="11.656" y="127.96" x="40.637"/><rect rx="5.828" ry="5.828" height="11.656" width="11.656" y="140.32" x="38.871"/><rect rx="5.828" ry="5.828" height="11.656" width="11.656" y="153.28" x="39.459"/><rect rx="5.828" ry="5.828" height="11.656" width="11.656" y="165.64" x="42.403"/><rect rx="5.828" ry="5.828" height="11.656" width="11.656" y="178" x="47.113"/><rect rx="5.828" ry="5.828" height="11.656" width="11.656" y="188.6" x="52.411"/></g><g stroke-width="1pt" transform="translate(-16.385 221.83)"><path d="M227.04-79.384L215.936-46.58s-18.36-7.676-52.782-7.676c-34.424 0-50.108 6.716-50.108 6.716l-16.15-32.234c14.367-2.67 18.746 9.571 18.746 9.571s.978-14.296 12.26-16.833c9.532-1.652 17.954 10.712 17.954 10.712s1.985-13.914 16.07-14.296c14.085.382 16.07 14.296 16.07 14.296s8.422-12.363 17.953-10.712c11.283 2.537 12.261 16.834 12.261 16.834s4.38-12.243 18.83-9.182z" fill="#f3ef7d"/><rect transform="translate(13.258 -218.32)" rx="51.429" ry="8.13" height="16.261" width="102.86" y="162.27" x="100.1"/><g transform="matrix(.3339 0 0 .3551 86.116 -150.31)"><rect rx="3.434" ry="4.651" height="9.301" width="6.868" y="175.06" x="228.46"/><rect rx="3.434" ry="4.651" height="9.301" width="6.868" y="177.41" x="237.82"/><rect rx="3.434" ry="4.651" height="9.301" width="6.868" y="175.06" x="219.87"/><rect rx="3.434" ry="4.651" height="9.301" width="6.868" y="182.12" x="203.48"/><rect rx="3.434" ry="4.651" height="9.301" width="6.868" y="177.41" x="211.28"/><rect rx="3.434" ry="4.651" height="9.301" width="6.868" y="189.19" x="197.23"/><rect rx="3.434" ry="4.651" height="9.301" width="6.868" y="182.71" x="245.63"/><rect rx="3.434" ry="4.651" height="9.301" width="6.868" y="189.19" x="252.65"/></g><g transform="matrix(.32984 .0552 -.05191 .35078 129.39 -157.7)"><rect rx="3.434" ry="4.651" height="9.301" width="6.868" y="175.06" x="228.46"/><rect rx="3.434" ry="4.651" height="9.301" width="6.868" y="177.41" x="237.82"/><rect rx="3.434" ry="4.651" height="9.301" width="6.868" y="175.06" x="219.87"/><rect rx="3.434" ry="4.651" height="9.301" width="6.868" y="182.12" x="203.48"/><rect rx="3.434" ry="4.651" height="9.301" width="6.868" y="177.41" x="211.28"/><rect rx="3.434" ry="4.651" height="9.301" width="6.868" y="189.19" x="197.23"/><rect rx="3.434" ry="4.651" height="9.301" width="6.868" y="182.71" x="245.63"/><rect rx="3.434" ry="4.651" height="9.301" width="6.868" y="189.19" x="252.65"/></g><g transform="matrix(.32842 -.06406 .06024 .34928 42.896 -131.04)"><rect rx="3.434" ry="4.651" height="9.301" width="6.868" y="175.06" x="228.46"/><rect rx="3.434" ry="4.651" height="9.301" width="6.868" y="177.41" x="237.82"/><rect rx="3.434" ry="4.651" height="9.301" width="6.868" y="175.06" x="219.87"/><rect rx="3.434" ry="4.651" height="9.301" width="6.868" y="182.12" x="203.48"/><rect rx="3.434" ry="4.651" height="9.301" width="6.868" y="177.41" x="211.28"/><rect rx="3.434" ry="4.651" height="9.301" width="6.868" y="189.19" x="197.23"/><rect rx="3.434" ry="4.651" height="9.301" width="6.868" y="182.71" x="245.63"/><rect rx="3.434" ry="4.651" height="9.301" width="6.868" y="189.19" x="252.65"/></g><rect transform="matrix(.97649 -.21555 .19155 .98148 13.258 -218.32)" rx="1.15" ry="1.647" height="3.295" width="2.299" y="155.25" x="57.043"/><rect transform="matrix(.97649 -.21555 .19155 .98148 13.258 -218.32)" rx="1.15" ry="1.647" height="3.295" width="2.299" y="156.09" x="60.179"/><rect transform="matrix(.97649 -.21555 .19155 .98148 13.258 -218.32)" rx="1.15" ry="1.647" height="3.295" width="2.299" y="157.96" x="62.792"/><rect transform="matrix(.97649 -.21555 .19155 .98148 13.258 -218.32)" rx="1.15" ry="1.647" height="3.295" width="2.299" y="160.26" x="65.144"/><g transform="matrix(.3091 .1343 -.12628 .32873 148.87 -220.32)"><rect rx="3.434" ry="4.651" height="9.301" width="6.868" y="285.4" x="359.08"/><rect rx="3.434" ry="4.651" height="9.301" width="6.868" y="292.46" x="342.69"/><rect rx="3.434" ry="4.651" height="9.301" width="6.868" y="287.75" x="350.49"/><rect rx="3.434" ry="4.651" height="9.301" width="6.868" y="299.53" x="336.44"/></g><path d="M154.13-76.395c8.052 6.397 8.196 18.41 8.196 18.41s-1.295-12.637 7.333-17.786c-4.457 1.405-4.314 1.093-6.758.937l-.575-4.057s-.432 2.028-1.294 3.9c-1.87.624-2.301.624-6.902-1.404zm-31.814 4.675c9.241 4.202 12.04 15.841 12.04 15.841S130.3-67.837 137.547-75c-4.021 2.48-3.95 2.141-6.361 2.601l-1.457-3.798s.03 2.079-.394 4.114c-1.679 1.075-2.098 1.183-7.019.363zm65.371-3.76c6.304 8.325 3.635 19.999 3.635 19.999s1.7-12.583 11.26-15.288c-4.645.181-4.433-.083-6.764-.88l.391-4.081s-.892 1.85-2.165 3.435c-1.957.11-2.374-.004-6.357-3.185zm-82.767 9.718c6.946 3.425 10.553 13.579 10.553 13.579s-4.514-10.398-.584-16.908c-2.398 2.298-2.399 1.998-3.985 2.473l-1.55-3.298s.322 1.828.326 3.63c-.995.994-1.267 1.101-4.76.524zm106.736-4.468c1.328 8.02-4.446 16.97-4.446 16.97s5.443-9.882 12.713-10.172c-3.144-.78-2.913-.952-4.186-2.065l1.659-3.237s-1.227 1.325-2.615 2.359c-1.336-.3-1.574-.477-3.125-3.855z"/></g><g stroke-width="1pt" transform="translate(-16.385 221.83)"><rect transform="translate(13.258 -218.32)" rx="3.362" ry="3.51" height="7.02" width="6.724" y="97.304" x="145.26" fill="#f3ef7d"/><path d="M161.658-121.016h.704v7.02h-.704z"/><rect transform="translate(13.258 -218.32)" rx="1.553" ry="1.756" height="3.512" width="3.106" y="119.51" x="147.36" fill="#f3ef7d"/><rect transform="translate(13.258 -218.32)" rx="1.454" ry="1.651" height="3.303" width="2.909" y="115.96" x="147.36" fill="#f3ef7d"/><rect transform="translate(13.258 -218.32)" rx="1.454" ry="1.547" height="3.094" width="2.909" y="112.61" x="147.36" fill="#f3ef7d"/><rect transform="translate(13.258 -218.32)" rx="1.258" ry="1.233" height="2.467" width="2.516" y="109.9" x="147.56" fill="#f3ef7d"/><rect transform="translate(13.258 -218.32)" rx="1.258" ry="1.442" height="2.885" width="2.516" y="106.76" x="147.56" fill="#f3ef7d"/><rect transform="translate(13.258 -218.32)" rx="1.061" ry="1.024" height="2.049" width="2.123" y="104.46" x="147.76" fill="#f3ef7d"/><path d="M165.368-117.9l.004.735-6.724.041-.004-.735z"/><rect transform="translate(13.258 -218.32)" rx="1.946" ry="2.07" height="4.139" width="3.892" y="123.07" x="146.97" fill="#f3ef7d"/></g></g></svg>