<svg xmlns="http://www.w3.org/2000/svg" height="512" width="512"><path fill-rule="evenodd" fill="#fc0" d="M0 0h512v512H0z"/><path fill-rule="evenodd" fill="#f60" d="M203.76 42.685h163.63v426.63H203.76z"/><path fill-rule="evenodd" fill="#060" d="M42.663 42.685h161.23v426.7H42.663z"/><path fill-rule="evenodd" fill="#991b33" d="M138.017 220.2H470.29v248.21H138.017z"/><g fill="#fc0"><path stroke-linejoin="round" d="M268.863 335.091l4.9.126s-5.528 4.649-4.272 10.931c5.781-8.543 7.917-6.911 7.917-6.911-1.76 1.884-5.152 4.523-2.514 10.304 2.263-5.906 6.911-10.43 6.911-10.43s-1.257 6.534 1.507 12.565c2.01-6.031 5.403-11.182 5.403-11.182s-.502 6.534 2.388 8.92c2.26-2.01 3.77-7.162 3.77-7.162s4.272 7.54 6.91 8.67c2.136-5.152 2.136-9.172 2.136-9.172s8.796 6.283 15.83 2.639c-6.282-2.261-8.417-7.539-8.417-7.539s11.434 5.026 16.334 2.765c-4.776-3.645-15.957-9.047-15.957-9.047s8.293 3.015 10.68 2.261c-1.131-1.633-4.775-3.644-4.775-3.644" fill-rule="evenodd" stroke="#991b33" stroke-linecap="round" stroke-width="1.838"/><path d="M337.491 273.797c15.152-1.379 38.561 11.002 50.969 19.26 0-2.758 0-5.501 2.743-6.88 2.758-1.378 6.893 1.379 5.515 5.5-4.136 9.624-20.666-1.378-26.167-4.121l2.757 5.5c-8.271-1.378-9.65-2.757-15.15-9.636-1.38 5.5-1.38 6.88-8.273 6.88 2.592-4.081 3.46-5.446 0-9.624l-1.378 8.245-6.88-9.623v9.623c-1.378-1.365-6.893-5.501-9.65-5.501-4.122-1.379-6.88 6.88-8.258 11.015 4.136-4.136 5.5-6.88 12.394-4.136-3.736 3.53-2.647 7.762 1.378 11.002 0 0 .717-5.722 1.158-7.031 2.193 1.64 6.839 7.803 12.615 8.41 4.136 0 8.272-1.38 12.394-2.744 13.773-1.379 44.075 1.365 37.196 22.003-1.379 4.136-2.758 6.88-5.515 9.637 19.287 6.88 2.757 31.64-1.378 44.02-2.758 11.001-.841 19.77 12.738 18.35-2.743 5.5-7.224 6.41-12.738 6.41 0 0 .689 3.309 4.232 4.867-5.887 5.28 2.04 13.193-1.475 17.15-5.928 2.84-13.773-1.379-13.773-1.379l-.386 3.902s-10.409-.717-10.63-1.158c0 0 2.965-5.542 2.744-5.653-2.757 4.123-5.39 6.535-11.015 5.653 0 0 .441-2.592 3.516-5.873-4.178 4.163-4.633 5.983-9.017 5.873 0-6.88 4.122-15.124 12.394-12.38 1.379 0 5.722 3.419 7.762 1.213 1.654-2.371.675-10.395.675-13.152.869-12.16-1.557-11.443-8.437-18.322-5.514-4.123-9.543-10.442-16.422-11.82-6.893-1.38-18.016 6.319-23.53 9.062-13.773 8.258-26.167 13.76-41.319 16.516 0 0 .3-.703.3-2.079 0-.927 14.87-12.503 17.472-32.825-4.07 20.058-18.53 30.654-19.074 34.38-.544 3.728-3.497 10.088-3.855 10.504 1.788-1.072 7.525-3.883 14.794-4.479-1.567 8.615-9.637 6.88-11.015 11.002 0 4.136 5.514 9.636 0 12.38h-22.03s3.39-4.693 3.55-5.986c-2.965 1.799-4.847 6.52-11.342 6.037.238-1.776 3.348-4.557 2.825-5.648-3.715 3.446-5.46 6.351-10.199 5.597 1.379-4.122 1.379-9.623 6.893-9.623 4.136-1.379 8.272 1.379 11.016-2.757 5.514-6.88-1.005-21.929-2.37-30.187 0-6.88.02-8.184-1.753-16.577l1.38 24.76c-5.515-4.135-11.03-6.879-15.166-12.38-9.637-12.38-6.88-26.139 5.515-34.397 5.514-4.122 8.492-6.272 15.385-9.016-1.378-4.136 1.958-7.183-2.922-8.465-1.462 2.55-2.896 5.336-5.68 5.101l1.488-6.88s-4.963.304-3.984 9.182c-5.707-2.743-2.909-9.181-2.909-9.181h-2.757s-.014 8.189-4.508 9.843c1.213-3.846 1.75-9.843 1.75-9.843s-7.375 8.795-11.663 5.942c2.523-2.854 4.481-3.323 4.136-6.77-.33-3.432-2.109-7.861-2.432-8.561 1.561.754 11.952 3.856 18.469.624-.432 2.155-.237 4.643-.237 4.643 6.879-1.379 8.258-1.379 15.15 1.364-1.378-9.622-6.892-11.001-12.393-17.88v5.5c-5.515-1.365-6.893-2.743-9.65-8.244l-4.123 2.743c-7.265-4.287-12.628-14.461-2.316-13.869 6.149.772.938 5.625.938 5.625s15.771-4.963 22.03-5.514c0 0-1.82-3.847-7.637-4.508 4.825-3.626 9.678-4.798 13.152 2.84 3.46.193 6.686-3.971 4.632-9.375 5.115-.083 7.638 3.157 9.968 6.562 1.902.345 3.818-1.654 3.363-8.492 4.826 4.122 7.197 5.39 7.514 8.864 4.108.91 6.893-.013 13.083-2.77-1.365 5.514-1.365 6.879-6.88 9.636 3.889 4.805 4.298 10.603 3.483 12.71-1.35-.39-1.686-.48-2.644-.741.3 2.125.73 7.973.54 11.413h-2.757l4.136 12.38-2.757 4.136c9.637-4.136 19.287-2.758 28.924-5.501 11.015-1.379 22.044-5.515 34.438-5.515 8.258 0 8.258 4.136 19.287 4.136v-6.879c0-5.5-4.136-11.002-11.029-12.38-4.122 0-11.015 2.743-15.151 4.122-5.5 1.379-13.773 1.379-19.287 1.379-17.895-2.758-15.041-4.495-21.286-7.845-3.736.993-5.832 4.164-7.693 9.76-3.46-5.073-2.689-11.552 1.434-14.296-4.123-15.137 6.893-22.017 20.665-24.76z"/><path stroke-linejoin="round" d="M341.627 397.613c-2.757-4.136-12.407-11.016-9.65-17.895 4.136-6.88 27.559-17.881 31.681-2.744 1.379 4.123-2.87 15.065-4.249 19.2 2.086-.536 4.405-3.74 11.193-2.579-1.264 5.405-9.522 9.572-9.522 9.572.838 3.656-5.68 20.57-5.68 20.57h-17.909l2.758-5.5-4.136 5.5h-6.893l5.514-6.879s-6.522 7.64-12.08 7.336c1.378-11.001 7.944-12.836 17.595-8.7 1.378-5.501 4.122-12.38 1.378-17.881z" stroke="#991b33" stroke-width="1.379"/><path d="M267.87 294.01c-1.857 1.143-.34 8.7 2.512 7.414 3.556-1.603-1.102-8.281-2.512-7.413z" fill-rule="evenodd" stroke="#991b33" stroke-width="1.838"/><path stroke-linejoin="round" d="M269.621 291.624c3.393 2.387 8.796 8.795 15.455 8.419-5.027-4.147-4.02-7.162-4.02-7.162 2.638 3.14 11.432 6.03 14.322 4.774-3.391-2.513-4.02-2.764-4.774-5.151 4.021.502 9.047 1.382 13.067-.377m-27.515 41.462l.376-5.78s3.77 8.795 6.533 8.92c-1.759-6.407-1.005-11.559-1.005-11.559m2.891 1.383s7.539 13.821 11.183 11.56c-5.529-4.901-4.9-11.308-4.9-11.308s2.513 8.544 9.926 11.182c.502-4.775-2.89-12.565-2.89-12.565s6.156 10.806 9.298 11.057c2.01-2.512 1.256-5.151 1.256-5.151m-29.774-14.323l5.53 7.036.879-9.423s5.403 4.272 6.408 4.146-1.509-10.052-1.509-10.052 7.288 11.057 7.791 10.806c.502-.252.753-10.931.753-10.931s5.53 15.203 7.414 15.078c1.885-.126 1.382-2.136 1.382-2.136" fill-rule="evenodd" stroke="#991b33" stroke-linecap="round" stroke-width="1.838"/><path stroke-linejoin="round" d="M274.901 304.69s8.544 7.79 9.423 7.288c.88-.502-3.517-9.046-3.517-9.046s4.9 4.649 6.785 5.026.628-6.031.628-6.031 5.78 4.9 6.785 4.649.503-4.65.503-4.65 3.769 3.77 4.02 3.77-.754-10.806-.754-10.806 8.42 8.921 9.046 8.796m-67.095 3.769c.376.628 1.775 11.74 18.99 7.216 1.633-.88.915 3.105.843 4.272.754-.126 8.958-3.052 14.612 1.095-.664-4.596-1.904-7.683-6.804-10.321-2.386-.503-4.129.718-4.129.718s-20.748.161-23.512-2.98z" fill-rule="evenodd" stroke="#991b33" stroke-linecap="round" stroke-width="1.838"/><path stroke-linejoin="round" d="M231.336 378.201c-.285 1.287-1.185 1.658-3.757 5.373 1.143 1.572 6.401 4.028 7.83 2.743 1.286-.715 1.378-4.122 1.378-4.122 2.758 4.122 7.608 10.623 13.122 12.001 4.122 1.379 8.258-1.378 8.258-5.5s-6.228-10.78-8.972-13.523c-6.893-8.259-6.285-23.855-19.316-21.685-.068.118-.589 1.893-1.838 2.21 1.047 2.003 1.634 3.696-.871 4.326 1.948 1.914 2.254 3.303-.25 4.264 1.516 2.032 3.29 2.778-.198 4.517 3.65 3.556 4.435 8.79 4.614 9.396" stroke="#991b33" stroke-linecap="round" stroke-width="1.379"/><path d="M227.945 261.611c-4.143 6.001-4.573 72.01-3.287 85.298-4.143 2.715-11.858 1.572-14.001.714 1-4.715 4.571-81.297 17.288-86.012z" fill-rule="evenodd" stroke="#991b33" stroke-width="1.838"/><path d="M216.226 396.91s-18.289 2.57-10.574-8.286c6.573-2.858 6.43 3.857 4 6.143 3.002.334 5.003-1.62 5.43-4.573-3.714-5 1.572-8.287 1.286-8.287-12.715 2.858-14.43-5.858-9.715-7.286 5.954.332 4.05 2.238 6.43 4 4.286-3.952 6.859-4.332 9.43-.285 2.571-4 6.286-3.572 6.428-3.143 4.145 7-5 7.428-8.714 6.57 3.143 3.43 1.857 6.716.856 9.147.095 2.38 1.907 2.761 4.859 3.714-6.286-17.337 22.146 4.618-6.43 2.429l.143 2.286c2.334.428 3.953 1 4.714 3.428-.999 1.334-2.57 1.524-5 .572 0 0 1.429 4.001-1.142 5.144-2.144-1.286-2.43-4.43-2.43-4.43-1.19 1.477-2.953.523-4.43-.714 1.335-3.286 5.098-1.716 4.86-6.43zm-15.716-52.858c1.094-4.954 12.62-4.335 7.144 1 3.666 5.858 14.906 5.002 19.145 1.715-3.573-6.812 6.145-5.335 5.716-.143-1.191 9.19-33.243 7.953-32.005-2.572z" fill-rule="evenodd"/><path d="M429.24 431.734c3.433 6.424 9.528 21.647 12.904 25.284 3.164 2.83 11.043 2.496 13.47-.703 0 0 5.045 5.198 7.085 6.77 1.214-.414 1.958-1.572 1.958-1.572-2.054-2.234-4.853-3.488-6.231-7.624 2.054-2.744 3.184-8.08 1.806-12.215-6.025-10.092-26.07-6.107-30.992-9.94zM179.058 256.436c-3.433-6.425-9.528-21.648-12.904-25.284-3.164-2.83-11.043-2.496-13.47.703 0 0-5.045-5.198-7.085-6.77-1.214.414-1.958 1.572-1.958 1.572 2.054 2.234 4.853 3.488 6.231 7.624-2.054 2.744-3.184 8.079-1.806 12.215 6.025 10.091 26.07 6.107 30.992 9.94zm-2.04 174.319c-6.425 3.433-21.648 9.528-25.284 12.904-2.83 3.164-2.496 11.043.703 13.47 0 0-5.198 5.045-6.77 7.086.414 1.213 1.572 1.957 1.572 1.957 2.234-2.054 3.488-4.852 7.624-6.231 2.744 2.054 8.079 3.185 12.215 1.806 10.091-6.025 6.107-26.07 9.94-30.992zm252.746-174.321c3.433-6.424 9.528-21.647 12.904-25.284 3.164-2.829 11.043-2.495 13.47.703 0 0 5.045-5.197 7.085-6.769 1.214.414 1.958 1.572 1.958 1.572-2.054 2.233-4.853 3.488-6.231 7.624 2.054 2.743 3.184 8.078 1.806 12.214-6.025 10.092-26.07 6.108-30.992 9.94z" stroke="#991b33" stroke-width="1.379"/><path stroke-linejoin="round" d="M205.666 355.344c-.27 2.092 4.724 3.004 9.845 3.028 5.12.027 10.369-.834 10.604-2.285.068-2.6-4.47-.39-9.634-.432-5.163-.041-9.465-2.066-10.815-.311zm.414 5.804c.066 1.957 5.027 2.429 9.414 2.564 4.388.135 8.808-.742 9.618-2.16-.778-2.227-5.653-.37-9.62-.27-3.964.103-8.368-1.957-9.413-.134zm1.42 5.197c-.338 1.485 4.032 2.548 8.056 2.573s9.728-1.528 9.761-3.113c-.236-1.248-5.872.438-9.659.565-3.788.127-8.159-1.375-8.159-.025zm-.483 5.335c.338 1.45 5.3 1.942 9.66 1.612 4.362-.328 8.799-1.68 9.17-3.231-.202-.98-5.213.76-9.364.97s-9.534-.499-9.466.65z" fill-rule="evenodd" stroke="#fc0" stroke-width="1.838"/></g></svg>