<svg xmlns="http://www.w3.org/2000/svg" height="512" width="512"><defs><clipPath id="a"><path fill-opacity=".67" d="M0 0h512v512H0z"/></clipPath></defs><g fill-rule="evenodd" clip-path="url(#a)"><path fill="#ed3d00" d="M-126.62-.364h767.07v512h-767.07z"/><path d="M-126.59 200.87l.156 109.9 385.87-54.964-386.03-54.936z" fill="#ffd100"/><path d="M-128 512l159.3-.3 228.68-257.41L-128 512z" fill="#ffd100"/><path d="M311.72 511.64l-109.9-.103 54.964-253.87 54.936 253.97zM641.24-1.46l-159.3.304-228.69 259.45L641.24-1.456zM201.52 0l109.9.103-54.97 253.87L201.52.003z" fill="#ffd100"/><path d="M640.5 511.64l-159.3-.31-228.69-257.41L640.5 511.64z" fill="#ffd100"/><path d="M640.5 200.87l-.16 109.9-385.87-54.97 386.03-54.93z" fill="#ffd100"/><path d="M-126.96 0l159.3.302 228.69 257.41L-126.96.002z" fill="#ffd100"/><path d="M346.43 255.814a89.655 87.521 0 1 1-179.31 0 89.655 87.521 0 1 1 179.31 0z" fill="#ed3d00"/><path d="M339.506 255.814a82.734 82.218 0 1 1-165.469 0 82.734 82.218 0 1 1 165.47 0z" fill="#ffd100"/></g></svg>