<svg xmlns="http://www.w3.org/2000/svg" height="512" width="512"><defs><clipPath id="a"><path fill-opacity=".67" d="M124.02 0h496.06v496.06H124.02z"/></clipPath></defs><g fill-rule="evenodd" clip-path="url(#a)" transform="translate(-128) scale(1.0321)"><path fill="#199d00" d="M0 0h744.09v496.06H0z"/><path d="M370.8 277.77c-11.663 8.12-23.864 15.299-35.527 23.419-14.615 1.034-28.788 1.181-43.846.443 0 0-31.445-5.314-39.417-19.044-.443-1.329 10.186-6.201 10.186-6.201 16.092 11.368 33.955 21.407 67.32 19.931-41.189-3.691-69.091-26.426-77.506-47.39 22.292-15.649 59.2-15.354 89.464 6.2-9.448-11.81-41.041-24.949-64.662-21.258-3.396-3.544-6.348-7.973-9.744-11.516 27.164-6.053 64.958 11.368 78.835 25.688-14.615-23.473-25.245-50.047-7.972-82.378 3.395 3.248 7.234 6.496 10.629 9.744-12.991 23.768-8.267 51.523 2.215 70.862-18.159-37.498-3.544-74.553 20.372-92.564 27.902 16.83 35.875 61.562 19.488 93.451 9.3-5.315 16.83-45.176 3.986-71.749l8.858-10.629c19.34 26.13 7.677 68.205-8.415 84.149 12.253-10.63 43.993-31.445 81.049-26.573-2.953 3.543-7.677 6.643-10.63 10.186-30.412-1.181-55.065 11.81-65.99 23.03 26.721-17.715 63.628-26.574 90.792-6.643-12.548 33.512-48.128 43.551-77.506 46.503 24.949 1.919 48.128-5.462 66.877-18.601l10.629 5.758c-7.972 7.529-19.487 15.058-35.874 17.272-15.796 2.067-30.707 1.477-46.503 1.772-12.253-7.972-24.855-15.891-37.108-23.862z" fill="#feffff"/><path d="M370.8 285.61l-30.378 22.861-81.424-.313c1 3.281 4.113 7.474 5.95 9.395l80.798.314L370.8 298.45l24.114 19.103h81.738c2.349-2.505 4.854-5.95 7.046-8.925l-82.834.157L370.8 285.61zm-46.67 78.52c23.384 11.542 73.074 10.595 95.518-.283l-95.518.283zm-53.77-38.75l200.81-.157c-3.497 3.967-7.621 8.247-11.901 11.9l-178.63-.782c-3.353-2.325-7.813-7.75-10.28-10.961zm13.79 14.41l172.45.471c-3.236 2.505-5.845 5.48-9.551 7.359l-153.3-.13c-3.539-1.902-7.169-5.133-9.601-7.7zm15.71 12.83l140.93-.344c-3.758 2.413-7.986 4.983-12.683 7.24h-115.56c-3.915-1.359-8.456-4.284-12.683-6.896z" fill="#fff"/><path fill="#feb700" d="M445.544 153.273l-5.077-7.46-8.766 2.168 5.526-7.136-4.767-7.658 8.491 3.045 5.812-6.908-.272 9.02 8.362 3.394-8.66 2.53zm-63.724-10.63l-10.063-6.886-9.963 7.047 3.438-11.702-9.771-7.288 12.184-.352 3.91-11.556 4.102 11.486 12.194.15-9.65 7.45zm105.961 60.08l-8.31-3.516-6.19 6.574.774-8.992-8.157-3.851 8.785-2.045 1.14-8.955 4.66 7.727 8.867-1.681-5.905 6.82zm-191.465-49.589l5.077-7.46 8.766 2.168-5.526-7.135 4.767-7.659-8.491 3.045-5.812-6.908.272 9.02-8.362 3.395 8.66 2.529zm-44.227 49.259l8.31-3.516 6.19 6.574-.774-8.992 8.157-3.851-8.785-2.045-1.14-8.955-4.66 7.727-8.867-1.681 5.905 6.82z"/></g></svg>