<svg xmlns="http://www.w3.org/2000/svg" height="512" width="512" version="1"><g fill-rule="evenodd" stroke-width="1pt"><path fill="#e80008" d="M0 0h512.002v512.005H0z"/><path fill="#fff" d="M0 36.573h512.002v36.572H0zm0 73.144h512.002v36.572H0zm0 73.142h512.002v36.572H0zm0 73.145h512.002v36.572H0zm0 73.144h512.002v36.573H0zm0 73.145h512.002v36.573H0zm0 73.145h512.002v36.573H0z"/></g><g fill-rule="evenodd" stroke-width="1pt"><path fill="#000689" d="M-.962-.666H260.89v151.014H-.962z"/><g fill="#fe0"><path d="M131.975 127.69c-28.173 15.677-63.395 5.084-78.62-23.311-15.222-28.396-4.712-63.896 23.462-79.239 17.42-9.487 36.553-9.675 53.936-.344-9.81-2.36-18.569-2.234-28.087.594-27.725 8.236-43.663 37.835-35.575 66.071 8.088 28.234 37.155 44.464 64.88 36.228z"/><path d="M122.272 39.456l29.377 17.534-9.853-32.76 18.857 28.543 5.339-33.793 4.602 33.903 19.471-28.135-10.56 32.544 29.75-16.902-23.634 24.74 34.137-2.32-32.029 12.038 31.762 12.72-34.076-3.05 23.096 25.239-29.378-17.534 9.854 32.762L170.13 96.44l-5.34 33.792-4.602-33.901-19.47 28.136 10.559-32.546-29.75 16.902 23.635-24.74-34.138 2.32 32.03-12.038-31.762-12.72 34.076 3.05z"/></g></g></svg>