<svg xmlns="http://www.w3.org/2000/svg" height="512" width="512" version="1"><defs><clipPath id="a"><path fill-opacity=".67" d="M192.39 0h708.66v708.66H192.39z"/></clipPath></defs><g fill-rule="evenodd" clip-path="url(#a)" transform="translate(-139) scale(.72249)"><path fill="#f50013" d="M0 0h1063v708.66H0z"/><path fill="#00189a" d="M0 0h1063v354.33H0z"/><path d="M0 0l609.96 353.88L0 707.3V0z" fill="#feffff"/><path d="M28.93 645.329l6.218-27.299-24.515-13.546 28.495-3.557 6.482-27.251 11.394 25.103 28.52-3.298-21.454 19.071 11.145 25.214-24.652-13.316-21.632 18.879zm129.71-352.264l-21.89-37.587-12.588-1.425 29.972 42.563 4.505-3.551zm-16.991 17.221l-46.024-35.412-1.648-20.616 18.611-.63 38.048 46.534-8.987 10.124zm-6.99 8.098l-37.877-21.38-1.596-12.568 42.964 29.395-3.49 4.553zm78.149-33.046l11.425-41.969-7.816-9.97-9.3 51.22 5.691.719zm-24.192-.024l-7.057-57.64 13.533-15.64 13.506 12.82-6.462 59.76-13.52.7zm-10.673.701L166.6 244.024l7.836-9.954 9.198 51.238-5.692.707zm78.749 33.16l38.148-20.895 1.755-12.546-43.335 28.845 3.432 4.596zm-16.77-17.436l36.608-45.079 20.652-1.107.14 18.621-47.515 36.815-9.885-9.25zm-7.911-7.2l22.367-37.304 12.605-1.265-30.513 42.178-4.46-3.608zm31.466 77.227l41.962 11.447 9.974-7.81-51.215-9.327-.721 5.69zm.036-24.192l57.644-7.027 15.633 13.542-12.828 13.5-59.756-6.494-.693-13.52zm-.695-10.674l41.997-11.319 9.95 7.841-51.243 9.171-.704-5.693zm-31.289 77.631l22.055 37.49 12.594 1.37-30.16-42.43-4.489 3.57zm16.914-17.296l46.18 35.209 1.74 20.608-18.609.712-38.253-46.365 8.942-10.164zm6.954-8.128l37.972 21.213 1.65 12.56-43.092-29.205 3.47-4.568zm-77.831 33.43l-11.136 42.046 7.885 9.916 8.947-51.282-5.696-.68zm24.192-.142l7.453 57.59-13.425 15.732-13.594-12.727 6.051-59.803 13.515-.792zm10.668-.775l11.63 41.912-7.767 10.008-9.55-51.174 5.687-.746zm-78.65-32.053l-37.807 21.506-1.554 12.573 42.866-29.538-3.505-4.54zm17.047 17.165l-35.878 45.661-20.632 1.44-.44-18.618 46.918-37.572 10.032 9.09zm8.026 7.071l-21.764 37.659-12.583 1.467 29.83-42.662 4.517 3.536zm-32.551-77.33l-42.043-11.149-9.918 7.882 51.28 8.963.68-5.696zm.135 24.192L68.84 368.1l-15.728-13.43 12.73-13.59 59.801 6.069.789 13.515zm.771 10.668L85.29 382.95l-10.006-7.77 51.177-9.535.744 5.688zm377.306 19.553l-16.227-22.815-26.43 9.27 16.32-23.629-16.014-22.982 26.315 8.215 16.53-23.473-.057 28.704 26.231 8.475-26.349 9.525-.32 28.71zM44.53 136.038l-5.03-27.541-27.868-2.8 24.793-14.49-4.77-27.6 20.357 18.589L76.93 67.937 64.716 93.913l20.171 18.79-27.903-2.535-12.453 25.87z" fill="#eca300"/><ellipse cx="190.68" rx="73.029" cy="353.88" transform="translate(4.269)" ry="73.029" fill="#eca300"/></g></svg>