<svg xmlns="http://www.w3.org/2000/svg" height="512" width="512"><defs><clipPath id="a"><path fill-opacity=".67" d="M248.03 0h496.06v496.06H248.03z"/></clipPath></defs><g clip-path="url(#a)" transform="translate(-256) scale(1.0321)"><g fill-rule="evenodd" stroke-width="1pt"><path fill="#fff" d="M0 166.54h992.13v162.99H0z"/><path fill="#3d25ca" d="M0 329.53h992.13v166.54H0z"/><path fill="#d60000" d="M0 0h992.13v166.54H0z"/></g><path d="M744.14 567.26c0 192.48-157.09 348.52-350.87 348.52S42.4 759.74 42.4 567.26s157.09-348.52 350.87-348.52 350.87 156.04 350.87 348.52z" fill-rule="evenodd" transform="matrix(.18177 0 0 .183 424.577 144.226)" stroke="#000" stroke-width="12.5" fill="#fff"/><g stroke="#000" stroke-width="2.553"><g fill-rule="evenodd" fill="#006700"><path d="M259.03 105.71s400.32 70.645 414.45 395.62c14.129 324.97-188.39 367.36-259.03 419.16-70.645 51.807-113.03 113.03-146 113.03-32.968 0-80.065-14.13-80.065-14.13s9.42 51.81 75.355 47.1c65.936-4.71 127.16-113.03 164.84-131.87s277.88-98.9 259.04-428.58c-14.13-353.23-423.88-390.91-428.59-400.33z" transform="matrix(.06396 .01462 -.01593 .06642 489.764 207.555)"/><path d="M320.26 487.2c0 59.825-11.597 108.32-25.903 108.32s-25.903-48.498-25.903-108.32c0-59.825 11.597-108.32 25.903-108.32s25.903 48.498 25.903 108.32z" transform="matrix(.03112 -.00239 .00766 .03003 503.315 209.136)"/><path d="M320.26 487.2c0 59.825-11.597 108.32-25.903 108.32s-25.903-48.498-25.903-108.32c0-59.825 11.597-108.32 25.903-108.32s25.903 48.498 25.903 108.32z" transform="matrix(.02818 -.0103 .01418 .02864 500.23 212.573)"/><path d="M320.26 487.2c0 59.825-11.597 108.32-25.903 108.32s-25.903-48.498-25.903-108.32c0-59.825 11.597-108.32 25.903-108.32s25.903 48.498 25.903 108.32z" transform="matrix(.00295 -.03198 .02901 .0085 498.636 230.953)"/><path d="M320.26 487.2c0 59.825-11.597 108.32-25.903 108.32s-25.903-48.498-25.903-108.32c0-59.825 11.597-108.32 25.903-108.32s25.903 48.498 25.903 108.32z" transform="matrix(.01359 -.02695 .02642 .01772 496.85 223.956)"/><path d="M320.26 487.2c0 59.825-11.597 108.32-25.903 108.32s-25.903-48.498-25.903-108.32c0-59.825 11.597-108.32 25.903-108.32s25.903 48.498 25.903 108.32z" transform="matrix(.02057 -.02109 .02244 .02332 497.589 218.92)"/><path d="M151.53 682.7c0 1.665-41.628-24.978-49.954-33.303-8.333-8.33-6.668-46.62-33.31-64.94s-54.949-9.99-68.27 1.66c-13.321 11.656-8.326 38.298 23.312 61.61s53.284 1.666 69.936 9.991c16.651 8.326 43.294 24.976 56.615 38.297 13.321-9.99 46.623-21.646 64.94-29.972 18.316-8.325 64.941 11.656 96.578-11.656 26.642-18.316 38.297-56.614 19.981-68.27-18.317-11.656-51.619-6.66-71.6 4.996-19.982 11.656-29.972 58.279-49.955 66.605-14.986 4.995-56.614 28.307-58.279 24.977z" transform="matrix(.01762 -.01806 .00845 .00878 508.382 223.345)"/><path d="M320.26 487.2c0 59.825-11.597 108.32-25.903 108.32s-25.903-48.498-25.903-108.32c0-59.825 11.597-108.32 25.903-108.32s25.903 48.498 25.903 108.32z" transform="matrix(.04389 .0105 .00066 .04644 510.02 203.124)"/><path d="M320.26 487.2c0 59.825-11.597 108.32-25.903 108.32s-25.903-48.498-25.903-108.32c0-59.825 11.597-108.32 25.903-108.32s25.903 48.498 25.903 108.32z" transform="matrix(.04243 -.00213 .01015 .04736 504.608 206.665)"/><path d="M320.26 487.2c0 59.825-11.597 108.32-25.903 108.32s-25.903-48.498-25.903-108.32c0-59.825 11.597-108.32 25.903-108.32s25.903 48.498 25.903 108.32z" transform="matrix(.01468 -.04448 .03737 .02515 496.315 232.274)"/><path d="M320.26 487.2c0 59.825-11.597 108.32-25.903 108.32s-25.903-48.498-25.903-108.32c0-59.825 11.597-108.32 25.903-108.32s25.903 48.498 25.903 108.32z" transform="matrix(.02774 -.03251 .03073 .0372 496.158 221.455)"/><path d="M320.26 487.2c0 59.825-11.597 108.32-25.903 108.32s-25.903-48.498-25.903-108.32c0-59.825 11.597-108.32 25.903-108.32s25.903 48.498 25.903 108.32z" transform="matrix(.03547 -.021 .02335 .04344 498.85 214.574)"/><path d="M151.53 682.7c0 1.665-41.628-24.978-49.954-33.303-8.333-8.33-6.668-46.62-33.31-64.94s-54.949-9.99-68.27 1.66c-13.321 11.656-8.326 38.298 23.312 61.61s53.284 1.666 69.936 9.991c16.651 8.326 43.294 24.976 56.615 38.297 13.321-9.99 46.623-21.646 64.94-29.972 18.316-8.325 64.941 11.656 96.578-11.656 26.642-18.316 38.297-56.614 19.981-68.27-18.317-11.656-51.619-6.66-71.6 4.996-19.982 11.656-29.972 58.279-49.955 66.605-14.986 4.995-56.614 28.307-58.279 24.977z" transform="matrix(.03038 -.01798 .00879 .01635 512.331 225.74)"/><path d="M320.26 487.2c0 59.825-11.597 108.32-25.903 108.32s-25.903-48.498-25.903-108.32c0-59.825 11.597-108.32 25.903-108.32s25.903 48.498 25.903 108.32z" transform="matrix(.041 .0188 -.00774 .046 519.023 210.826)"/><path d="M320.26 487.2c0 59.825-11.597 108.32-25.903 108.32s-25.903-48.498-25.903-108.32c0-59.825 11.597-108.32 25.903-108.32s25.903 48.498 25.903 108.32z" transform="matrix(.04186 .00605 .00138 .04873 513.095 213.285)"/><path d="M320.26 487.2c0 59.825-11.597 108.32-25.903 108.32s-25.903-48.498-25.903-108.32c0-59.825 11.597-108.32 25.903-108.32s25.903 48.498 25.903 108.32z" transform="matrix(.02237 -.0411 .03199 .03201 500.369 236.984)"/><path d="M320.26 487.2c0 59.825-11.597 108.32-25.903 108.32s-25.903-48.498-25.903-108.32c0-59.825 11.597-108.32 25.903-108.32s25.903 48.498 25.903 108.32z" transform="matrix(.03298 -.02678 .02332 .04264 502.167 226.268)"/><path d="M320.26 487.2c0 59.825-11.597 108.32-25.903 108.32s-25.903-48.498-25.903-108.32c0-59.825 11.597-108.32 25.903-108.32s25.903 48.498 25.903 108.32z" transform="matrix(.03846 -.01392 .01499 .0474 506.039 219.99)"/><path d="M151.53 682.7c0 1.665-41.628-24.978-49.954-33.303-8.333-8.33-6.668-46.62-33.31-64.94s-54.949-9.99-68.27 1.66c-13.321 11.656-8.326 38.298 23.312 61.61s53.284 1.666 69.936 9.991c16.651 8.326 43.294 24.976 56.615 38.297 13.321-9.99 46.623-21.646 64.94-29.972 18.316-8.325 64.941 11.656 96.578-11.656 26.642-18.316 38.297-56.614 19.981-68.27-18.317-11.656-51.619-6.66-71.6 4.996-19.982 11.656-29.972 58.279-49.955 66.605-14.986 4.995-56.614 28.307-58.279 24.977z" transform="matrix(.03293 -.01192 .00564 .01784 517.203 233.608)"/><path d="M320.26 487.2c0 59.825-11.597 108.32-25.903 108.32s-25.903-48.498-25.903-108.32c0-59.825 11.597-108.32 25.903-108.32s25.903 48.498 25.903 108.32z" transform="matrix(.02981 .0344 -.02486 .03945 531.243 220.35)"/><path d="M320.26 487.2c0 59.825-11.597 108.32-25.903 108.32s-25.903-48.498-25.903-108.32c0-59.825 11.597-108.32 25.903-108.32s25.903 48.498 25.903 108.32z" transform="matrix(.03554 .02291 -.01767 .04575 524.922 220.178)"/><path d="M320.26 487.2c0 59.825-11.597 108.32-25.903 108.32s-25.903-48.498-25.903-108.32c0-59.825 11.597-108.32 25.903-108.32s25.903 48.498 25.903 108.32z" transform="matrix(.03621 -.02887 .01653 .04291 504.2 236.894)"/><path d="M320.26 487.2c0 59.825-11.597 108.32-25.903 108.32s-25.903-48.498-25.903-108.32c0-59.825 11.597-108.32 25.903-108.32s25.903 48.498 25.903 108.32z" transform="matrix(.04026 -.0112 .00455 .04919 509.989 227.7)"/><path d="M320.26 487.2c0 59.825-11.597 108.32-25.903 108.32s-25.903-48.498-25.903-108.32c0-59.825 11.597-108.32 25.903-108.32s25.903 48.498 25.903 108.32z" transform="matrix(.04022 .003 -.00483 .05014 515.932 223.479)"/><path d="M151.53 682.7c0 1.665-41.628-24.978-49.954-33.303-8.333-8.33-6.668-46.62-33.31-64.94s-54.949-9.99-68.27 1.66c-13.321 11.656-8.326 38.298 23.312 61.61s53.284 1.666 69.936 9.991c16.651 8.326 43.294 24.976 56.615 38.297 13.321-9.99 46.623-21.646 64.94-29.972 18.316-8.325 64.941 11.656 96.578-11.656 26.642-18.316 38.297-56.614 19.981-68.27-18.317-11.656-51.619-6.66-71.6 4.996-19.982 11.656-29.972 58.279-49.955 66.605-14.986 4.995-56.614 28.307-58.279 24.977z" transform="matrix(.03444 .00256 -.00182 .01887 520.75 240.722)"/><path d="M320.26 487.2c0 59.825-11.597 108.32-25.903 108.32s-25.903-48.498-25.903-108.32c0-59.825 11.597-108.32 25.903-108.32s25.903 48.498 25.903 108.32z" transform="matrix(.02151 .04875 -.04033 .03455 538.387 229.622)"/><path d="M320.26 487.2c0 59.825-11.597 108.32-25.903 108.32s-25.903-48.498-25.903-108.32c0-59.825 11.597-108.32 25.903-108.32s25.903 48.498 25.903 108.32z" transform="matrix(.0316 .03815 -.0345 .0441 531.485 227.146)"/><path d="M320.26 487.2c0 59.825-11.597 108.32-25.903 108.32s-25.903-48.498-25.903-108.32c0-59.825 11.597-108.32 25.903-108.32s25.903 48.498 25.903 108.32z" transform="matrix(.04935 -.01877 .0041 .05335 503.18 238.1)"/><path d="M320.26 487.2c0 59.825-11.597 108.32-25.903 108.32s-25.903-48.498-25.903-108.32c0-59.825 11.597-108.32 25.903-108.32s25.903 48.498 25.903 108.32z" transform="matrix(.048 .0022 -.01115 .05594 512.574 230.047)"/><path d="M320.26 487.2c0 59.825-11.597 108.32-25.903 108.32s-25.903-48.498-25.903-108.32c0-59.825 11.597-108.32 25.903-108.32s25.903 48.498 25.903 108.32z" transform="matrix(.04329 .01785 -.0218 .0536 520.503 227.537)"/><path d="M151.53 682.7c0 1.665-41.628-24.978-49.954-33.303-8.333-8.33-6.668-46.62-33.31-64.94s-54.949-9.99-68.27 1.66c-13.321 11.656-8.326 38.298 23.312 61.61s53.284 1.666 69.936 9.991c16.651 8.326 43.294 24.976 56.615 38.297 13.321-9.99 46.623-21.646 64.94-29.972 18.316-8.325 64.941 11.656 96.578-11.656 26.642-18.316 38.297-56.614 19.981-68.27-18.317-11.656-51.619-6.66-71.6 4.996-19.982 11.656-29.972 58.279-49.955 66.605-14.986 4.995-56.614 28.307-58.279 24.977z" transform="matrix(.03707 .01529 -.0082 .02018 520.14 248.314)"/><path d="M320.26 487.2c0 59.825-11.597 108.32-25.903 108.32s-25.903-48.498-25.903-108.32c0-59.825 11.597-108.32 25.903-108.32s25.903 48.498 25.903 108.32z" transform="matrix(-.00586 .0588 -.0578 .00953 547.793 248.637)"/><path d="M320.26 487.2c0 59.825-11.597 108.32-25.903 108.32s-25.903-48.498-25.903-108.32c0-59.825 11.597-108.32 25.903-108.32s25.903 48.498 25.903 108.32z" transform="matrix(.00966 .05455 -.05738 .022 542.484 242.29)"/><path d="M320.26 487.2c0 59.825-11.597 108.32-25.903 108.32s-25.903-48.498-25.903-108.32c0-59.825 11.597-108.32 25.903-108.32s25.903 48.498 25.903 108.32z" transform="matrix(.05788 .0107 -.02519 .0531 509.183 236.339)"/><path d="M320.26 487.2c0 59.825-11.597 108.32-25.903 108.32s-25.903-48.498-25.903-108.32c0-59.825 11.597-108.32 25.903-108.32s25.903 48.498 25.903 108.32z" transform="matrix(.04512 .02985 -.04132 .04675 522.648 234.112)"/><path d="M320.26 487.2c0 59.825-11.597 108.32-25.903 108.32s-25.903-48.498-25.903-108.32c0-59.825 11.597-108.32 25.903-108.32s25.903 48.498 25.903 108.32z" transform="matrix(.03203 .04202 -.05031 .03837 531.672 236.31)"/><path d="M151.53 682.7c0 1.665-41.628-24.978-49.954-33.303-8.333-8.33-6.668-46.62-33.31-64.94s-54.949-9.99-68.27 1.66c-13.321 11.656-8.326 38.298 23.312 61.61s53.284 1.666 69.936 9.991c16.651 8.326 43.294 24.976 56.615 38.297 13.321-9.99 46.623-21.646 64.94-29.972 18.316-8.325 64.941 11.656 96.578-11.656 26.642-18.316 38.297-56.614 19.981-68.27-18.317-11.656-51.619-6.66-71.6 4.996-19.982 11.656-29.972 58.279-49.955 66.605-14.986 4.995-56.614 28.307-58.279 24.977z" transform="matrix(.02743 .03598 -.01894 .01444 519.973 255.86)"/><path d="M314.71 506.2c0 45.062-10.064 81.591-22.479 81.591s-22.479-36.53-22.479-81.591c0-45.062 10.064-81.591 22.479-81.591s22.479 36.53 22.479 81.591z" transform="matrix(-.00023 .08224 -.07885 .00116 547.41 251.28)"/><path d="M314.71 506.2c0 45.062-10.064 81.591-22.479 81.591s-22.479-36.53-22.479-81.591c0-45.062 10.064-81.591 22.479-81.591s22.479 36.53 22.479 81.591z" transform="matrix(.061 .05102 -.04996 .0645 512.66 223.257)"/><path d="M314.71 506.2c0 45.062-10.064 81.591-22.479 81.591s-22.479-36.53-22.479-81.591c0-45.062 10.064-81.591 22.479-81.591s22.479 36.53 22.479 81.591z" transform="matrix(.02906 .07593 -.0733 .0316 535.44 235.024)"/><path d="M314.71 506.2c0 45.062-10.064 81.591-22.479 81.591s-22.479-36.53-22.479-81.591c0-45.062 10.064-81.591 22.479-81.591s22.479 36.53 22.479 81.591z" transform="matrix(.03374 -.01838 .0363 .03269 480.236 208.16)"/><path d="M314.71 506.2c0 45.062-10.064 81.591-22.479 81.591s-22.479-36.53-22.479-81.591c0-45.062 10.064-81.591 22.479-81.591s22.479 36.53 22.479 81.591z" transform="matrix(-.00685 -.03696 .04909 .00638 484.562 228.978)"/><path d="M314.71 506.2c0 45.062-10.064 81.591-22.479 81.591s-22.479-36.53-22.479-81.591c0-45.062 10.064-81.591 22.479-81.591s22.479 36.53 22.479 81.591z" transform="matrix(.01786 -.0292 .04623 .02353 479.025 216.814)"/></g><g fill-rule="evenodd" fill="#006700"><path d="M339.1 586.1s113.03 32.968 211.94 89.484c98.904 56.516 252.16 272.38 292.21 280.92 44.682-1.342 105.85-37.846 126.48-164.27-67.86 43.25-107.82 101.54-174.96 40.06-23.55-14.13-102.44-137.87-187.22-199.09-84.77-61.23-254.32-122.45-254.32-122.45l-14.129 75.356z" transform="matrix(.04802 .00294 -.0011 .025 463.411 255.83)"/><path d="M332.03 604.94c1.177 0 21.194-164.84 21.194-164.84l17.661 164.84-20.016 28.258-18.839-28.258z" transform="matrix(-.0164 -.03923 -.03976 .01482 514.301 226.8)"/><path d="M248.44 462.47c29.436 48.274 77.71 121.28 101.26 170.73 26.295-51.807 74.962-128.34 104.79-175.44-31.79 36.107-71.822 88.699-104.79 116.56-33.36-27.866-70.253-78.103-101.26-111.86z" transform="matrix(-.01645 -.03922 -.03974 .01486 513.154 227.116)"/><path d="M332.03 604.94c1.177 0 21.194-164.84 21.194-164.84l17.661 164.84-20.016 28.258-18.839-28.258z" transform="matrix(-.02291 -.03615 -.0364 .02126 513.307 222.262)"/><path d="M248.44 462.47c29.436 48.274 77.71 121.28 101.26 170.73 26.295-51.807 74.962-128.34 104.79-175.44-31.79 36.107-71.822 88.699-104.79 116.56-33.36-27.866-70.253-78.103-101.26-111.86z" transform="matrix(-.01726 -.04058 -.0396 .01522 512.173 227.229)"/><path d="M332.03 604.94c1.177 0 21.194-164.84 21.194-164.84l17.661 164.84-20.016 28.258-18.839-28.258z" transform="matrix(-.01284 -.04039 -.04105 .0113 511.863 230.029)"/><path d="M248.44 462.47c29.436 48.274 77.71 121.28 101.26 170.73 26.295-51.807 74.962-128.34 104.79-175.44-31.79 36.107-71.822 88.699-104.79 116.56-33.36-27.866-70.253-78.103-101.26-111.86z" transform="matrix(-.02184 -.03937 -.03738 .01978 511.558 224.87)"/><path d="M332.03 604.94c1.177 0 21.194-164.84 21.194-164.84l17.661 164.84-20.016 28.258-18.839-28.258z" transform="matrix(-.03025 -.0307 -.03058 .02858 510.649 216.392)"/><path d="M248.44 462.47c29.436 48.274 77.71 121.28 101.26 170.73 26.295-51.807 74.962-128.34 104.79-175.44-31.79 36.107-71.822 88.699-104.79 116.56-33.36-27.866-70.253-78.103-101.26-111.86z" transform="matrix(-.02718 -.04143 -.03774 .02423 513.012 223.677)"/><path d="M332.03 604.94c1.177 0 21.194-164.84 21.194-164.84l17.661 164.84-20.016 28.258-18.839-28.258z" transform="matrix(-.02888 -.03988 -.03613 .02597 512.657 222.29)"/><path d="M248.44 462.47c29.436 48.274 77.71 121.28 101.26 170.73 26.295-51.807 74.962-128.34 104.79-175.44-31.79 36.107-71.822 88.699-104.79 116.56-33.36-27.866-70.253-78.103-101.26-111.86z" transform="matrix(-.02073 -.04496 -.04573 .02764 513.936 223.152)"/><path d="M332.03 604.94c1.177 0 21.194-164.84 21.194-164.84l17.661 164.84-20.016 28.258-18.839-28.258z" transform="matrix(-.02289 -.0432 -.04435 .02952 513.841 221.633)"/><path d="M248.44 462.47c29.436 48.274 77.71 121.28 101.26 170.73 26.295-51.807 74.962-128.34 104.79-175.44-31.79 36.107-71.822 88.699-104.79 116.56-33.36-27.866-70.253-78.103-101.26-111.86z" transform="matrix(-.02698 -.04094 -.04135 .0333 512.443 219.706)"/><path d="M332.03 604.94c1.177 0 21.194-164.84 21.194-164.84l17.661 164.84-20.016 28.258-18.839-28.258z" transform="matrix(-.03356 -.03475 -.03622 .03972 511.56 213.79)"/><path d="M248.44 462.47c29.436 48.274 77.71 121.28 101.26 170.73 26.295-51.807 74.962-128.34 104.79-175.44-31.79 36.107-71.822 88.699-104.79 116.56-33.36-27.866-70.253-78.103-101.26-111.86z" transform="matrix(-.02465 -.04223 -.04318 .03117 511.165 221.873)"/><path d="M332.03 604.94c1.177 0 21.194-164.84 21.194-164.84l17.661 164.84-20.016 28.258-18.839-28.258z" transform="matrix(-.02319 -.04375 -.0436 .02952 511.626 223.719)"/><path d="M248.44 462.47c29.436 48.274 77.71 121.28 101.26 170.73 26.295-51.807 74.962-128.34 104.79-175.44-31.79 36.107-71.822 88.699-104.79 116.56-33.36-27.866-70.253-78.103-101.26-111.86z" transform="matrix(-.02932 -.03848 -.04015 .0357 510.102 219.143)"/><path d="M332.03 604.94c1.177 0 21.194-164.84 21.194-164.84l17.661 164.84-20.016 28.258-18.839-28.258z" transform="matrix(-.03891 -.02765 -.03095 .04462 508.078 209.54)"/><path d="M248.44 462.47c29.436 48.274 77.71 121.28 101.26 170.73 26.295-51.807 74.962-128.34 104.79-175.44-31.79 36.107-71.822 88.699-104.79 116.56-33.36-27.866-70.253-78.103-101.26-111.86z" transform="matrix(-.03691 -.0417 -.03975 .04162 511.805 217.65)"/><path d="M332.03 604.94c1.177 0 21.194-164.84 21.194-164.84l17.661 164.84-20.016 28.258-18.839-28.258z" transform="matrix(-.03864 -.03927 -.03765 .04323 511.205 216.076)"/><path d="M248.44 462.47c29.436 48.274 77.71 121.28 101.26 170.73 26.295-51.807 74.962-128.34 104.79-175.44-31.79 36.107-71.822 88.699-104.79 116.56-33.36-27.866-70.253-78.103-101.26-111.86z" transform="matrix(-.03868 -.03922 -.03761 .04327 510.062 217.183)"/><path d="M332.03 604.94c1.177 0 21.194-164.84 21.194-164.84l17.661 164.84-20.016 28.258-18.839-28.258z" transform="matrix(-.04446 -.03137 -.03056 .04926 507.764 210.975)"/><path d="M248.44 462.47c29.436 48.274 77.71 121.28 101.26 170.73 26.295-51.807 74.962-128.34 104.79-175.44-31.79 36.107-71.822 88.699-104.79 116.56-33.36-27.866-70.253-78.103-101.26-111.86z" transform="matrix(-.03495 -.04226 -.04138 .04006 509.754 220.617)"/><path d="M332.03 604.94c1.177 0 21.194-164.84 21.194-164.84l17.661 164.84-20.016 28.258-18.839-28.258z" transform="matrix(-.0308 -.04592 -.04455 .0358 510.727 224.793)"/><path d="M248.44 462.47c29.436 48.274 77.71 121.28 101.26 170.73 26.295-51.807 74.962-128.34 104.79-175.44-31.79 36.107-71.822 88.699-104.79 116.56-33.36-27.866-70.253-78.103-101.26-111.86z" transform="matrix(-.03154 -.04647 -.04287 .03667 508.246 224.423)"/><path d="M332.03 604.94c1.177 0 21.194-164.84 21.194-164.84l17.661 164.84-20.016 28.258-18.839-28.258z" transform="matrix(-.04177 -.0351 -.03299 .04767 506.045 213.331)"/><path d="M248.44 462.47c29.436 48.274 77.71 121.28 101.26 170.73 26.295-51.807 74.962-128.34 104.79-175.44-31.79 36.107-71.822 88.699-104.79 116.56-33.36-27.866-70.253-78.103-101.26-111.86z" transform="matrix(-.04314 -.04212 -.04123 .05334 510.747 214.612)"/><path d="M332.03 604.94c1.177 0 21.194-164.84 21.194-164.84l17.661 164.84-20.016 28.258-18.839-28.258z" transform="matrix(-.0449 -.03909 -.03883 .05486 509.99 212.905)"/><path d="M248.44 462.47c29.436 48.274 77.71 121.28 101.26 170.73 26.295-51.807 74.962-128.34 104.79-175.44-31.79 36.107-71.822 88.699-104.79 116.56-33.36-27.866-70.253-78.103-101.26-111.86z" transform="matrix(-.04494 -.03903 -.03878 .0549 508.801 214.336)"/><path d="M332.03 604.94c1.177 0 21.194-164.84 21.194-164.84l17.661 164.84-20.016 28.258-18.839-28.258z" transform="matrix(-.05083 -.02922 -.03066 .06069 505.897 207.596)"/><path d="M248.44 462.47c29.436 48.274 77.71 121.28 101.26 170.73 26.295-51.807 74.962-128.34 104.79-175.44-31.79 36.107-71.822 88.699-104.79 116.56-33.36-27.866-70.253-78.103-101.26-111.86z" transform="matrix(-.04522 -.03863 -.03845 .05518 507.326 214.992)"/><path d="M332.03 604.94c1.177 0 21.194-164.84 21.194-164.84l17.661 164.84-20.016 28.258-18.839-28.258z" transform="matrix(-.0413 -.04376 -.04263 .0512 509.087 219.427)"/><path d="M248.44 462.47c29.436 48.274 77.71 121.28 101.26 170.73 26.295-51.807 74.962-128.34 104.79-175.44-31.79 36.107-71.822 88.699-104.79 116.56-33.36-27.866-70.253-78.103-101.26-111.86z" transform="matrix(-.05275 -.0255 -.0267 .06255 503.462 207.842)"/><path d="M332.03 604.94c1.177 0 21.194-164.84 21.194-164.84l17.661 164.84-20.016 28.258-18.839-28.258z" transform="matrix(-.05794 -.00803 -.01177 .06707 496.241 198.42)"/><path d="M248.44 462.47c29.436 48.274 77.71 121.28 101.26 170.73 26.295-51.807 74.962-128.34 104.79-175.44-31.79 36.107-71.822 88.699-104.79 116.56-33.36-27.866-70.253-78.103-101.26-111.86z" transform="matrix(-.05263 -.0258 -.02695 .06243 502.74 209.007)"/><path d="M332.03 604.94c1.177 0 21.194-164.84 21.194-164.84l17.661 164.84-20.016 28.258-18.839-28.258z" transform="matrix(-.0539 -.02269 -.02432 .06362 501.774 207.273)"/><path d="M248.44 462.47c29.436 48.274 77.71 121.28 101.26 170.73 26.295-51.807 74.962-128.34 104.79-175.44-31.79 36.107-71.822 88.699-104.79 116.56-33.36-27.866-70.253-78.103-101.26-111.86z" transform="matrix(-.05723 -.02013 -.0209 .06724 500.767 205.638)"/><path d="M332.03 604.94c1.177 0 21.194-164.84 21.194-164.84l17.661 164.84-20.016 28.258-18.839-28.258z" transform="matrix(-.05993 -.00852 -.01096 .06967 495.711 200.308)"/><path d="M248.44 462.47c29.436 48.274 77.71 121.28 101.26 170.73 26.295-51.807 74.962-128.34 104.79-175.44-31.79 36.107-71.822 88.699-104.79 116.56-33.36-27.866-70.253-78.103-101.26-111.86z" transform="matrix(-.055 -.02602 -.02617 .06523 501.8 209.964)"/><path d="M332.03 604.94c1.177 0 21.194-164.84 21.194-164.84l17.661 164.84-20.016 28.258-18.839-28.258z" transform="matrix(-.05222 -.03219 -.03135 .06242 504.626 213.886)"/><path d="M248.44 462.47c29.436 48.274 77.71 121.28 101.26 170.73 26.295-51.807 74.962-128.34 104.79-175.44-31.79 36.107-71.822 88.699-104.79 116.56-33.36-27.866-70.253-78.103-101.26-111.86z" transform="matrix(-.05426 -.02025 -.01976 .06825 498.601 207.182)"/><path d="M332.03 604.94c1.177 0 21.194-164.84 21.194-164.84l17.661 164.84-20.016 28.258-18.839-28.258z" transform="matrix(-.0607 -.0012 -.0049 .07022 491.599 199.441)"/><path d="M248.44 462.47c29.436 48.274 77.71 121.28 101.26 170.73 26.295-51.807 74.962-128.34 104.79-175.44-31.79 36.107-71.822 88.699-104.79 116.56-33.36-27.866-70.253-78.103-101.26-111.86z" transform="matrix(-.05478 -.01982 -.01773 .06848 496.54 207.827)"/><path d="M332.03 604.94c1.177 0 21.194-164.84 21.194-164.84l17.661 164.84-20.016 28.258-18.839-28.258z" transform="matrix(-.05559 -.01642 -.015 .06938 495.363 206.153)"/><path d="M248.44 462.47c29.436 48.274 77.71 121.28 101.26 170.73 26.295-51.807 74.962-128.34 104.79-175.44-31.79 36.107-71.822 88.699-104.79 116.56-33.36-27.866-70.253-78.103-101.26-111.86z" transform="matrix(-.05617 -.01437 -.0125 .06984 493.935 206.308)"/><path d="M332.03 604.94c1.177 0 21.194-164.84 21.194-164.84l17.661 164.84-20.016 28.258-18.839-28.258z" transform="matrix(-.05747 -.0024 -.00285 .07126 488.59 201.462)"/><path d="M248.44 462.47c29.436 48.274 77.71 121.28 101.26 170.73 26.295-51.807 74.962-128.34 104.79-175.44-31.79 36.107-71.822 88.699-104.79 116.56-33.36-27.866-70.253-78.103-101.26-111.86z" transform="matrix(-.05717 -.01153 -.00902 .07098 492.343 205.752)"/><path d="M332.03 604.94c1.177 0 21.194-164.84 21.194-164.84l17.661 164.84-20.016 28.258-18.839-28.258z" transform="matrix(-.05603 -.01831 -.01449 .06954 495.887 208.89)"/><path d="M248.44 462.47c29.436 48.274 77.71 121.28 101.26 170.73 26.295-51.807 74.962-128.34 104.79-175.44-31.79 36.107-71.822 88.699-104.79 116.56-33.36-27.866-70.253-78.103-101.26-111.86z" transform="matrix(-.05782 -.00351 -.00257 .07183 489.09 204.467)"/><path d="M332.03 604.94c1.177 0 21.194-164.84 21.194-164.84l17.661 164.84-20.016 28.258-18.839-28.258z" transform="matrix(-.05643 .01564 .01284 .0702 479.078 198.2)"/><path d="M248.44 462.47c29.436 48.274 77.71 121.28 101.26 170.73 26.295-51.807 74.962-128.34 104.79-175.44-31.79 36.107-71.822 88.699-104.79 116.56-33.36-27.866-70.253-78.103-101.26-111.86z" transform="matrix(-.05938 -.0035 -.0032 .0716 489.706 205.878)"/><path d="M332.03 604.94c1.177 0 21.194-164.84 21.194-164.84l17.661 164.84-20.016 28.258-18.839-28.258z" transform="matrix(-.05947 .00003 -.00027 .0717 488.163 204.59)"/><path d="M248.44 462.47c29.436 48.274 77.71 121.28 101.26 170.73 26.295-51.807 74.962-128.34 104.79-175.44-31.79 36.107-71.822 88.699-104.79 116.56-33.36-27.866-70.253-78.103-101.26-111.86z" transform="matrix(-.0593 -.0049 -.00436 .07153 490.414 207.294)"/><path d="M332.03 604.94c1.177 0 21.194-164.84 21.194-164.84l17.661 164.84-20.016 28.258-18.839-28.258z" transform="matrix(-.0592 .00722 .0057 .07133 484.351 203.37)"/><path d="M248.44 462.47c29.436 48.274 77.71 121.28 101.26 170.73 26.295-51.807 74.962-128.34 104.79-175.44-31.79 36.107-71.822 88.699-104.79 116.56-33.36-27.866-70.253-78.103-101.26-111.86z" transform="matrix(-.05896 -.009 -.00776 .07113 491.06 210.17)"/><path d="M332.03 604.94c1.177 0 21.194-164.84 21.194-164.84l17.661 164.84-20.016 28.258-18.839-28.258z" transform="matrix(-.05794 -.01581 -.0134 .06993 494.47 213.153)"/><path d="M248.44 462.47c29.436 48.274 77.71 121.28 101.26 170.73 26.295-51.807 74.962-128.34 104.79-175.44-31.79 36.107-71.822 88.699-104.79 116.56-33.36-27.866-70.253-78.103-101.26-111.86z" transform="matrix(-.05946 -.00098 -.00111 .07169 488.238 208.22)"/><path d="M332.03 604.94c1.177 0 21.194-164.84 21.194-164.84l17.661 164.84-20.016 28.258-18.839-28.258z" transform="matrix(-.05763 .01804 .01467 .06939 476.978 203.232)"/><path d="M248.44 462.47c29.436 48.274 77.71 121.28 101.26 170.73 26.295-51.807 74.962-128.34 104.79-175.44-31.79 36.107-71.822 88.699-104.79 116.56-33.36-27.866-70.253-78.103-101.26-111.86z" transform="matrix(-.05867 .01203 .00969 .07068 482.554 206.337)"/><path d="M332.03 604.94c1.177 0 21.194-164.84 21.194-164.84l17.661 164.84-20.016 28.258-18.839-28.258z" transform="matrix(-.05711 .02032 .01657 .06876 478.905 203.761)"/><path d="M248.44 462.47c29.436 48.274 77.71 121.28 101.26 170.73 26.295-51.807 74.962-128.34 104.79-175.44-31.79 36.107-71.822 88.699-104.79 116.56-33.36-27.866-70.253-78.103-101.26-111.86z" transform="matrix(-.05859 .01264 .0102 .07057 482.268 207.38)"/><path d="M332.03 604.94c1.177 0 21.194-164.84 21.194-164.84l17.661 164.84-20.016 28.258-18.839-28.258z" transform="matrix(-.05452 .02897 .02376 .06558 473.726 204.669)"/><path d="M248.44 462.47c29.436 48.274 77.71 121.28 101.26 170.73 26.295-51.807 74.962-128.34 104.79-175.44-31.79 36.107-71.822 88.699-104.79 116.56-33.36-27.866-70.253-78.103-101.26-111.86z" transform="matrix(-.05667 .02093 .01823 .0685 477.69 207.235)"/><path d="M332.03 604.94c1.177 0 21.194-164.84 21.194-164.84l17.661 164.84-20.016 28.258-18.839-28.258z" transform="matrix(-.05878 .01124 .00903 .07081 484.379 208.991)"/><path d="M248.44 462.47c29.436 48.274 77.71 121.28 101.26 170.73 26.295-51.807 74.962-128.34 104.79-175.44-31.79 36.107-71.822 88.699-104.79 116.56-33.36-27.866-70.253-78.103-101.26-111.86z" transform="matrix(-.05427 .02847 .02446 .06573 474.232 207.863)"/><path d="M332.03 604.94c1.177 0 21.194-164.84 21.194-164.84l17.661 164.84-20.016 28.258-18.839-28.258z" transform="matrix(-.04585 .04486 .03796 .05584 462.722 207.724)"/><path d="M248.44 462.47c29.436 48.274 77.71 121.28 101.26 170.73 26.295-51.807 74.962-128.34 104.79-175.44-31.79 36.107-71.822 88.699-104.79 116.56-33.36-27.866-70.253-78.103-101.26-111.86z" transform="matrix(-.05439 .02816 .0242 .06586 474.53 209.282)"/><path d="M332.03 604.94c1.177 0 21.194-164.84 21.194-164.84l17.661 164.84-20.016 28.258-18.839-28.258z" transform="matrix(-.05313 .03137 .02685 .0644 472.665 208.94)"/><path d="M248.44 462.47c29.436 48.274 77.71 121.28 101.26 170.73 26.295-51.807 74.962-128.34 104.79-175.44-31.79 36.107-71.822 88.699-104.79 116.56-33.36-27.866-70.253-78.103-101.26-111.86z" transform="matrix(-.0531 .03144 .02691 .06436 473.283 210.809)"/><path d="M332.03 604.94c1.177 0 21.194-164.84 21.194-164.84l17.661 164.84-20.016 28.258-18.839-28.258z" transform="matrix(-.0478 .04183 .03547 .05815 466.387 211.068)"/><path d="M248.44 462.47c29.436 48.274 77.71 121.28 101.26 170.73 26.295-51.807 74.962-128.34 104.79-175.44-31.79 36.107-71.822 88.699-104.79 116.56-33.36-27.866-70.253-78.103-101.26-111.86z" transform="matrix(-.0529 .0319 .0273 .06413 473.131 212.654)"/><path d="M332.03 604.94c1.177 0 21.194-164.84 21.194-164.84l17.661 164.84-20.016 28.258-18.839-28.258z" transform="matrix(-.05528 .02558 .02207 .0669 477.597 212.644)"/><path d="M248.44 462.47c29.436 48.274 77.71 121.28 101.26 170.73 26.295-51.807 74.962-128.34 104.79-175.44-31.79 36.107-71.822 88.699-104.79 116.56-33.36-27.866-70.253-78.103-101.26-111.86z" transform="matrix(-.04951 .03888 .03304 .06016 469.813 213.96)"/><path d="M332.03 604.94c1.177 0 21.194-164.84 21.194-164.84l17.661 164.84-20.016 28.258-18.839-28.258z" transform="matrix(-.03442 .05642 .04887 .04375 455.298 216.009)"/><path d="M248.44 462.47c29.436 48.274 77.71 121.28 101.26 170.73 26.295-51.807 74.962-128.34 104.79-175.44-31.79 36.107-71.822 88.699-104.79 116.56-33.36-27.866-70.253-78.103-101.26-111.86z" transform="matrix(-.04755 .04062 .03623 .05871 468.127 214.636)"/><path d="M332.03 604.94c1.177 0 21.194-164.84 21.194-164.84l17.661 164.84-20.016 28.258-18.839-28.258z" transform="matrix(-.0457 .04347 .03853 .05664 466.244 214.749)"/><path d="M248.44 462.47c29.436 48.274 77.71 121.28 101.26 170.73 26.295-51.807 74.962-128.34 104.79-175.44-31.79 36.107-71.822 88.699-104.79 116.56-33.36-27.866-70.253-78.103-101.26-111.86z" transform="matrix(-.04566 .04353 .03858 .05659 467.205 216.43)"/><path d="M332.03 604.94c1.177 0 21.194-164.84 21.194-164.84l17.661 164.84-20.016 28.258-18.839-28.258z" transform="matrix(-.03512 .05579 .04838 .04455 458.24 219.387)"/><path d="M248.44 462.47c29.436 48.274 77.71 121.28 101.26 170.73 26.295-51.807 74.962-128.34 104.79-175.44-31.79 36.107-71.822 88.699-104.79 116.56-33.36-27.866-70.253-78.103-101.26-111.86z" transform="matrix(-.04246 .04788 .04208 .05296 465.068 218.732)"/><path d="M332.03 604.94c1.177 0 21.194-164.84 21.194-164.84l17.661 164.84-20.016 28.258-18.839-28.258z" transform="matrix(-.04632 .04255 .0378 .05733 469.324 217.275)"/><path d="M248.44 462.47c29.436 48.274 77.71 121.28 101.26 170.73 26.295-51.807 74.962-128.34 104.79-175.44-31.79 36.107-71.822 88.699-104.79 116.56-33.36-27.866-70.253-78.103-101.26-111.86z" transform="matrix(-.03749 .0535 .04657 .04727 462.23 221.064)"/><path d="M332.03 604.94c1.177 0 21.194-164.84 21.194-164.84l17.661 164.84-20.016 28.258-18.839-28.258z" transform="matrix(-.01271 .06704 .05948 .02171 445.43 230.712)"/><path d="M248.44 462.47c29.436 48.274 77.71 121.28 101.26 170.73 26.295-51.807 74.962-128.34 104.79-175.44-31.79 36.107-71.822 88.699-104.79 116.56-33.36-27.866-70.253-78.103-101.26-111.86z" transform="matrix(-.0377 .05328 .04639 .04753 463.032 222.201)"/><path d="M332.03 604.94c1.177 0 21.194-164.84 21.194-164.84l17.661 164.84-20.016 28.258-18.839-28.258z" transform="matrix(-.02557 .06056 .05518 .03603 453.95 225.263)"/><path d="M248.44 462.47c29.436 48.274 77.71 121.28 101.26 170.73 26.295-51.807 74.962-128.34 104.79-175.44-31.79 36.107-71.822 88.699-104.79 116.56-33.36-27.866-70.253-78.103-101.26-111.86z" transform="matrix(-.02551 .0606 .05521 .03596 455.422 226.413)"/><path d="M332.03 604.94c1.177 0 21.194-164.84 21.194-164.84l17.661 164.84-20.016 28.258-18.839-28.258z" transform="matrix(-.01585 .0658 .05872 .02524 450.096 231.107)"/><path d="M248.44 462.47c29.436 48.274 77.71 121.28 101.26 170.73 26.295-51.807 74.962-128.34 104.79-175.44-31.79 36.107-71.822 88.699-104.79 116.56-33.36-27.866-70.253-78.103-101.26-111.86z" transform="matrix(-.02511 .06086 .0554 .03552 456.274 228.044)"/><path d="M332.03 604.94c1.177 0 21.194-164.84 21.194-164.84l17.661 164.84-20.016 28.258-18.839-28.258z" transform="matrix(-.03033 .05715 .05272 .04122 459.807 225.134)"/><path d="M248.44 462.47c29.436 48.274 77.71 121.28 101.26 170.73 26.295-51.807 74.962-128.34 104.79-175.44-31.79 36.107-71.822 88.699-104.79 116.56-33.36-27.866-70.253-78.103-101.26-111.86z" transform="matrix(-.01876 .06445 .05786 .02849 454.332 231.283)"/><path d="M332.03 604.94c1.177 0 21.194-164.84 21.194-164.84l17.661 164.84-20.016 28.258-18.839-28.258z" transform="matrix(-.00276 .0697 .06076 .0104 446.47 240.43)"/><path d="M332.03 604.94c1.177 0 21.194-164.84 21.194-164.84l17.661 164.84-20.016 28.258-18.839-28.258z" transform="matrix(.00095 -.0268 -.04385 .0039 514.361 227.595)"/><path d="M248.44 462.47c29.436 48.274 77.71 121.28 101.26 170.73 26.295-51.807 74.962-128.34 104.79-175.44-31.79 36.107-71.822 88.699-104.79 116.56-33.36-27.866-70.253-78.103-101.26-111.86z" transform="matrix(.00064 -.02753 -.04395 .00362 512.301 227.766)"/><path d="M332.03 604.94c1.177 0 21.194-164.84 21.194-164.84l17.661 164.84-20.016 28.258-18.839-28.258z" transform="matrix(-.0065 -.02575 -.04338 .00838 516.235 224.783)"/><path d="M248.44 462.47c29.436 48.274 77.71 121.28 101.26 170.73 26.295-51.807 74.962-128.34 104.79-175.44-31.79 36.107-71.822 88.699-104.79 116.56-33.36-27.866-70.253-78.103-101.26-111.86z" transform="matrix(-.014 -.03224 -.04237 .01486 515.536 224.244)"/><path d="M332.03 604.94c1.177 0 21.194-164.84 21.194-164.84l17.661 164.84-20.016 28.258-18.839-28.258z" transform="matrix(.0048 -.02703 -.0436 .00152 510.009 229.853)"/><path d="M248.44 462.47c29.436 48.274 77.71 121.28 101.26 170.73 26.295-51.807 74.962-128.34 104.79-175.44-31.79 36.107-71.822 88.699-104.79 116.56-33.36-27.866-70.253-78.103-101.26-111.86z" transform="matrix(-.00433 -.02613 -.04365 .00708 511.889 226.601)"/><path d="M332.03 604.94c1.177 0 21.194-164.84 21.194-164.84l17.661 164.84-20.016 28.258-18.839-28.258z" transform="matrix(-.01573 -.02332 -.04094 .01375 514.587 221.149)"/><path d="M248.44 462.47c29.436 48.274 77.71 121.28 101.26 170.73 26.295-51.807 74.962-128.34 104.79-175.44-31.79 36.107-71.822 88.699-104.79 116.56-33.36-27.866-70.253-78.103-101.26-111.86z" transform="matrix(-.00986 -.03713 -.0325 .00673 507.898 230.314)"/><path d="M332.03 604.94c1.177 0 21.194-164.84 21.194-164.84l17.661 164.84-20.016 28.258-18.839-28.258z" transform="matrix(-.01143 -.0365 -.03175 .00843 507.965 229.226)"/><path d="M332.03 604.94c1.177 0 21.194-164.84 21.194-164.84l17.661 164.84-20.016 28.258-18.839-28.258z" transform="matrix(.00335 .06792 .06318 .00826 441.451 241.393)"/><path d="M332.03 604.94c1.177 0 21.194-164.84 21.194-164.84l17.661 164.84-20.016 28.258-18.839-28.258z" transform="matrix(-.01074 .0644 .06235 .0231 448.488 234.255)"/><path d="M332.03 604.94c1.177 0 21.194-164.84 21.194-164.84l17.661 164.84-20.016 28.258-18.839-28.258z" transform="matrix(-.00001 .06738 .06327 .01185 446.1 240.77)"/><path d="M248.44 462.47c29.436 48.274 77.71 121.28 101.26 170.73 26.295-51.807 74.962-128.34 104.79-175.44-31.79 36.107-71.822 88.699-104.79 116.56-33.36-27.866-70.253-78.103-101.26-111.86z" transform="matrix(-.01022 .06459 .06244 .02257 451.412 236.457)"/><path d="M332.03 604.94c1.177 0 21.194-164.84 21.194-164.84l17.661 164.84-20.016 28.258-18.839-28.258z" transform="matrix(-.01619 .06211 .06117 .02868 454.178 232.864)"/><path d="M248.44 462.47c29.436 48.274 77.71 121.28 101.26 170.73 26.295-51.807 74.962-128.34 104.79-175.44-31.79 36.107-71.822 88.699-104.79 116.56-33.36-27.866-70.253-78.103-101.26-111.86z" transform="matrix(-.00317 .0667 .0632 .0152 450.277 240.025)"/><path d="M332.03 604.94c1.177 0 21.194-164.84 21.194-164.84l17.661 164.84-20.016 28.258-18.839-28.258z" transform="matrix(.01368 .06835 .06177 -.00301 444.75 250.614)"/><path d="M332.03 604.94c1.177 0 21.194-164.84 21.194-164.84l17.661 164.84-20.016 28.258-18.839-28.258z" transform="matrix(.00844 .06746 .06368 .00387 443.267 246.123)"/><path d="M332.03 604.94c1.177 0 21.194-164.84 21.194-164.84l17.661 164.84-20.016 28.258-18.839-28.258z" transform="matrix(-.00588 .06493 .06397 .01872 449.755 238.523)"/><path d="M332.03 604.94c1.177 0 21.194-164.84 21.194-164.84l17.661 164.84-20.016 28.258-18.839-28.258z" transform="matrix(.00505 .06716 .06404 .00745 447.86 245.18)"/><path d="M248.44 462.47c29.436 48.274 77.71 121.28 101.26 170.73 26.295-51.807 74.962-128.34 104.79-175.44-31.79 36.107-71.822 88.699-104.79 116.56-33.36-27.866-70.253-78.103-101.26-111.86z" transform="matrix(-.00535 .06508 .06402 .01818 452.839 240.516)"/><path d="M332.03 604.94c1.177 0 21.194-164.84 21.194-164.84l17.661 164.84-20.016 28.258-18.839-28.258z" transform="matrix(-.0115 .06303 .0632 .02437 455.33 236.744)"/><path d="M248.44 462.47c29.436 48.274 77.71 121.28 101.26 170.73 26.295-51.807 74.962-128.34 104.79-175.44-31.79 36.107-71.822 88.699-104.79 116.56-33.36-27.866-70.253-78.103-101.26-111.86z" transform="matrix(.00185 .0667 .06421 .01079 451.974 244.15)"/><path d="M332.03 604.94c1.177 0 21.194-164.84 21.194-164.84l17.661 164.84-20.016 28.258-18.839-28.258z" transform="matrix(.01879 .06718 .06143 -.00727 447.252 255.087)"/></g><path d="M374.65 434.6c0 66.213-53.676 119.89-119.89 119.89-66.213 0-119.89-53.676-119.89-119.89 0-66.213 53.676-119.89 119.89-119.89 66.213 0 119.89 53.676 119.89 119.89z" fill-rule="evenodd" transform="matrix(.16813 0 0 .17099 453.694 172.452)" fill="#3d25ca"/><path d="M353.57 628.49l-130.85-89.51-130.85 89.51 49.07-143.21-114.5-89.51h147.21l49.069-143.21 49.069 143.21h147.21l-114.49 89.507 49.069 143.21z" fill-rule="evenodd" transform="matrix(.085 0 0 .07634 478.293 211.082)" fill="#ffd900"/><path d="M17.716 379.13l212.6 53.15m.004-194.88v194.88m0 0v88.583m0-88.583l88.583 35.434M177.16 379.13l53.15 53.149m.01.001l53.15-53.149m159.44-.001l-212.59 53.15m0 0l141.73 177.17M230.32 432.28L88.58 609.45m53.15-141.73l88.583-35.434" fill="none" transform="matrix(.07847 0 0 .07714 479.15 212.05)"/></g><g stroke-width="1pt"><path d="M536.901 248.039c0 22.543-18.294 40.837-40.837 40.837s-40.836-18.295-40.836-40.837c0-22.54 18.294-40.837 40.836-40.837 22.541 0 40.837 18.295 40.837 40.837zm13.612 0c0 30.055-24.392 54.448-54.447 54.448s-54.448-24.393-54.448-54.448 24.393-54.448 54.448-54.448 54.447 24.393 54.447 54.448z" fill-rule="evenodd" stroke="#000" fill="#d60000" stroke-width=".256"/><path d="M537.564 257.8l3.586 1.327 5.95-1.087-.447 1.208-3.1.536c-.578.096-1.15.173-1.714.233.36.388.757.846 1.192 1.371l1.951 2.375-.427 1.156-3.772-4.798-3.586-1.327.367-.993zm10.084-13.753l.115 1.052-5.184.568c-.902.099-1.628.086-2.178-.036a2.593 2.593 0 0 1-1.405-.84c-.382-.435-.615-1.035-.699-1.802-.081-.745-.003-1.37.235-1.875.238-.506.619-.89 1.143-1.152.529-.263 1.269-.446 2.22-.55l5.183-.568.115 1.052-5.178.567c-.779.085-1.347.212-1.704.38-.354.17-.613.42-.779.754-.165.336-.223.73-.174 1.183.085.773.343 1.304.775 1.59.432.285 1.21.367 2.337.243l5.178-.566zm-7.24-10.517l1.038-.21.68 3.32-3.283.665a5.908 5.908 0 0 1-1.358-1.367 4.332 4.332 0 0 1-.682-1.599 4.16 4.16 0 0 1 .129-2.215c.247-.703.69-1.286 1.328-1.75.64-.464 1.393-.784 2.262-.96a6.192 6.192 0 0 1 2.504-.011c.813.168 1.462.516 1.945 1.041.484.526.805 1.179.963 1.96.115.567.114 1.1-.003 1.599a2.61 2.61 0 0 1-.643 1.255c-.318.335-.76.631-1.328.887l-.48-.877c.427-.209.751-.427.973-.653a1.85 1.85 0 0 0 .464-.875c.091-.355.097-.732.016-1.127-.096-.475-.261-.868-.496-1.18a2.349 2.349 0 0 0-.81-.71 3.26 3.26 0 0 0-.975-.315 5.255 5.255 0 0 0-1.84.061c-.79.16-1.425.414-1.907.76-.482.35-.805.781-.97 1.294a3.016 3.016 0 0 0-.088 1.543c.09.449.276.868.556 1.257.284.388.559.67.825.846l1.647-.334-.467-2.305zm-37.841-28.521l1.558-8.89 1.042.182-1.374 7.841 3.881.68-.183 1.05-4.924-.863zm-8.791-.599v-9.025h5.785v1.065h-4.726v2.765h4.426v1.059h-4.426v3.072h4.911v1.065h-5.97zm-25 5.67l1-.459c.469.89.651 1.72.548 2.489-.104.763-.472 1.416-1.105 1.957-.656.56-1.318.867-1.986.92-.668.046-1.353-.123-2.057-.51a6.865 6.865 0 0 1-1.892-1.566c-.61-.715-1.022-1.44-1.236-2.176-.212-.741-.213-1.44-.003-2.095a3.62 3.62 0 0 1 1.121-1.678c.609-.521 1.27-.783 1.983-.788.714-.006 1.422.239 2.127.732l-.612.888c-.567-.379-1.083-.567-1.546-.566-.463.002-.898.177-1.304.524-.467.4-.751.86-.85 1.383-.097.52-.026 1.048.212 1.584.235.533.547 1.025.934 1.478.499.583 1.009 1.03 1.532 1.34.523.302 1.035.426 1.537.37a2.378 2.378 0 0 0 1.309-.56c.45-.386.707-.859.769-1.419.062-.56-.099-1.176-.481-1.848zm-3.777 7.941l-6.714-6.032.708-.788 6.714 6.033-.708.787zm-4.342 5.125l-7.155-5.5.645-.84 6.311 4.852 2.401-3.124.845.65-3.047 3.962zm-13.425 5.323l.39-.984 4.848 1.921c.844.335 1.48.684 1.91 1.05a2.6 2.6 0 0 1 .849 1.399c.134.562.06 1.202-.224 1.919-.277.697-.638 1.213-1.085 1.549a2.412 2.412 0 0 1-1.549.483c-.59-.014-1.33-.198-2.219-.55l-4.848-1.922.39-.984 4.843 1.92c.728.288 1.29.442 1.684.462.392.014.739-.087 1.041-.304.304-.22.539-.542.706-.964.287-.724.307-1.314.059-1.769-.249-.454-.9-.89-1.952-1.307l-4.843-1.92zm5.271 21.84l-9.026.075-.048-5.785 1.066-.009.039 4.727 2.764-.023-.037-4.426 1.06-.009.036 4.426 3.072-.025-.04-4.912 1.064-.01.05 5.97zm33.707-44.62l-1.785-8.847 2.701-.546c.61-.123 1.083-.174 1.422-.155.473.027.898.16 1.278.402.493.31.904.754 1.23 1.328.331.57.576 1.25.735 2.038.135.671.186 1.281.152 1.828-.035.547-.126 1.014-.274 1.4a3.146 3.146 0 0 1-.555.947 2.81 2.81 0 0 1-.848.63 4.826 4.826 0 0 1-1.226.404l-2.83.571zm.827-1.253l1.674-.338c.518-.105.911-.24 1.181-.408.275-.169.48-.369.615-.601.19-.328.305-.738.347-1.233.043-.498-.002-1.082-.137-1.75-.187-.925-.465-1.608-.836-2.048-.368-.445-.762-.713-1.181-.804-.303-.065-.762-.035-1.38.09l-1.647.332 1.364 6.76zm28.343 4.854l4.175-8.003 2.676 1.396c.471.246.818.459 1.04.64.313.247.54.524.679.833.14.305.195.66.164 1.065a3.032 3.032 0 0 1-.351 1.205c-.355.68-.848 1.157-1.479 1.43-.629.27-1.445.142-2.448-.381l-1.82-.949-1.696 3.253-.94-.49zm3.13-3.708l1.833.956c.607.316 1.104.414 1.491.292.388-.122.702-.414.944-.876.174-.335.247-.66.22-.976a1.186 1.186 0 0 0-.343-.782c-.133-.13-.413-.306-.84-.528l-1.814-.947-1.492 2.86zm1.481 6.087l8.315-4.666.849.762-3.591 8.904-.898-.805 1.131-2.658-2.49-2.234-2.48 1.447-.836-.75zm4.193-1.217l2.02 1.812 1.047-2.419a27.17 27.17 0 0 1 .828-1.771c-.463.362-.953.694-1.472.995l-2.423 1.383zm2.258 7.284l7.16-5.495 2.16 2.814c.434.566.699 1.046.794 1.44.1.392.054.8-.137 1.227-.19.426-.483.79-.877 1.093-.508.39-1.048.572-1.62.548-.572-.024-1.14-.305-1.7-.841.05.315.06.574.032.78-.066.44-.206.916-.418 1.428l-1.102 2.6-.81-1.057.845-1.983c.242-.575.415-1.03.521-1.363.107-.333.156-.6.15-.796a1.477 1.477 0 0 0-.102-.527 2.822 2.822 0 0 0-.324-.494l-.748-.974-3.18 2.44-.644-.84zm4.645-2.23l1.385 1.806c.294.383.57.65.823.8.257.146.527.2.809.163.285-.04.543-.15.774-.326.338-.26.533-.583.583-.97.052-.384-.103-.811-.464-1.282l-1.541-2.008-2.37 1.818zm.181 8.394l9.378-1.718.556.996-6.283 7.26-.588-1.053 1.932-2.148-1.632-2.92-2.815.565-.548-.981zm4.362.209l1.322 2.368 1.775-1.948c.54-.592.991-1.062 1.358-1.408-.555.193-1.127.348-1.716.464l-2.74.524zm3.577 23.157l8.657 3.995-.118 1.134-9.318 2.318.126-1.2 2.816-.643.348-3.328-2.628-1.158.117-1.118zm3.446 2.681l-.282 2.698 2.573-.57a26.126 26.126 0 0 1 1.92-.37 12.82 12.82 0 0 1-1.669-.608l-2.542-1.15zm-88.725 8.658l-8.814 1.943-.763-3.464c-.154-.696-.19-1.243-.11-1.64.077-.398.291-.749.644-1.054a2.82 2.82 0 0 1 1.257-.618c.626-.138 1.192-.075 1.7.19.508.264.903.758 1.185 1.482.087-.306.188-.546.301-.72.246-.371.574-.743.983-1.116l2.1-1.888.286 1.3-1.606 1.438c-.462.419-.812.757-1.05 1.014-.237.257-.395.477-.472.658a1.477 1.477 0 0 0-.132.52c-.002.123.026.318.085.585l.264 1.199 3.914-.863.228 1.034zm-5.152.051l-.49-2.222c-.104-.472-.24-.83-.406-1.073a1.263 1.263 0 0 0-.663-.49 1.624 1.624 0 0 0-.84-.033c-.416.092-.73.302-.938.631-.21.326-.251.778-.124 1.358l.545 2.472 2.916-.643zm4.053-16.345l-8.993-.773.26-3.007c.045-.53.108-.931.19-1.205.107-.386.276-.701.507-.949.228-.246.534-.433.92-.56a3.031 3.031 0 0 1 1.248-.14c.765.066 1.394.338 1.889.814.49.477.687 1.28.59 2.406l-.176 2.045 3.656.314-.091 1.055zm-4.626-1.46l.177-2.062c.059-.68-.043-1.176-.304-1.488-.262-.311-.653-.489-1.172-.533-.376-.033-.704.025-.985.172-.284.144-.481.35-.59.617-.07.174-.124.5-.165.978l-.176 2.039 3.215.276zm8.397-11.881l-7.509-5.006 1.665-2.498c.34-.508.687-.864 1.045-1.068.356-.208.75-.293 1.183-.254a2.4 2.4 0 0 1 1.164.397c.321.214.572.492.753.835.18.344.254.729.22 1.157.401-.314.834-.47 1.299-.472.466-.004.918.14 1.355.431.352.235.635.52.85.856.214.33.338.647.373.95s-.003.63-.114.981c-.111.345-.309.73-.59 1.153l-1.693 2.539zm-3.766-3.784l.96-1.439c.26-.39.418-.69.472-.898a1.113 1.113 0 0 0-.037-.753c-.098-.231-.278-.434-.541-.61a1.573 1.573 0 0 0-.762-.278.971.971 0 0 0-.692.195c-.203.149-.463.462-.782.94l-.887 1.33 2.269 1.513zm3.468 2.313l1.105-1.658c.19-.284.311-.492.364-.623.094-.23.138-.445.134-.645a1.266 1.266 0 0 0-.191-.613 1.76 1.76 0 0 0-.547-.555 1.625 1.625 0 0 0-.855-.294 1.21 1.21 0 0 0-.79.241c-.235.167-.493.462-.776.886l-1.026 1.54 2.582 1.72zm15.173-15.829l-2.197-9.278.966-.607 7.572 5.903-1.02.641-2.245-1.818-2.833 1.779.71 2.782-.953.598zm-.015-4.367l2.296-1.442-2.036-1.673a26.764 26.764 0 0 1-1.476-1.283c.222.544.406 1.107.551 1.69l.665 2.708z" fill="#ffe600"/></g></g></svg>