<svg xmlns="http://www.w3.org/2000/svg" height="512" width="512"><defs><clipPath id="a"><path fill-opacity=".67" d="M248.03 0h496.06v496.06H248.03z"/></clipPath></defs><g clip-path="url(#a)" fill-rule="evenodd" transform="translate(-256) scale(1.0321)"><path fill="#009af4" d="M0 0h744.09v248.03H0z"/><path fill="#1c8f31" d="M0 372.05h744.09v124.02H0z"/><path fill="#efef00" d="M0 248.03h744.09v124.02H0z"/><path fill="#ffda00" d="M675.634 172.65l-36.02-19.86 21.41 35.11-29.64-28.51 11.59 39.47-21.26-35.21.99 41.11-11.42-39.51-9.69 39.97-.8-41.12-19.71 36.1 9.87-39.93-28.38 29.78 19.86-36.02-35.11 21.41 28.5-29.64-39.46 11.59 35.21-21.26-41.11.99 39.51-11.42-39.97-9.69 41.12-.81-36.1-19.7 39.92 9.87-29.77-28.382 36.02 19.864-21.41-35.116 29.64 28.508-11.59-39.461 21.26 35.21-.99-41.117 11.42 39.51 9.69-39.97.8 41.122 19.71-36.101-9.87 39.928 28.38-29.77-19.86 36.013 35.11-21.411-28.5 29.644 39.46-11.592-35.21 21.262 41.11-.99-39.51 11.42 39.97 9.69-41.12.8 36.1 19.71-39.92-9.87z"/><path d="M641.771 124.82c0 17.323-14.043 31.366-31.366 31.366s-31.366-14.043-31.366-31.366 14.043-31.366 31.366-31.366 31.366 14.043 31.366 31.366z" fill="#0098f6"/><path d="M635.623 124.82c0 14.13-11.29 25.585-25.216 25.585s-25.217-11.454-25.217-25.584 11.29-25.584 25.217-25.584 25.216 11.454 25.216 25.584z" fill="#ffd900"/></g></svg>