<svg xmlns="http://www.w3.org/2000/svg" height="512" width="512"><defs><clipPath id="a"><path fill-opacity=".67" d="M164.71 0h496.06v496.06H164.71z"/></clipPath></defs><g clip-path="url(#a)" transform="translate(-170) scale(1.0321)"><path fill-rule="evenodd" fill="#5387f4" d="M0 329.53h825.59v166.54H0zM0 0h825.59v166.54H0z"/><path fill-rule="evenodd" fill="#fff" d="M0 166.54h825.59v162.99H0z"/><g stroke="#000" fill-rule="evenodd"><path d="M490.58 234.24c0 .846-.823 1.531-1.837 1.531s-1.838-.685-1.838-1.531c0-.846.823-1.531 1.838-1.531s1.837.685 1.837 1.531z" transform="matrix(-.4748 -.29748 -.3724 .5823 692.485 231.962)" stroke-width=".529" fill="red"/><path d="M490.58 234.24c0 .846-.823 1.531-1.837 1.531s-1.838-.685-1.838-1.531c0-.846.823-1.531 1.838-1.531s1.837.685 1.837 1.531z" transform="matrix(-.4748 -.29748 -.3724 .5823 696.096 234.795)" stroke-width=".529" fill="red"/><path d="M259.03 105.71s400.32 70.645 414.45 395.62c14.129 324.97-188.39 367.36-259.03 419.16-70.645 51.807-113.03 113.03-146 113.03-32.968 0-80.065-14.13-80.065-14.13s9.42 51.81 75.355 47.1c65.936-4.71 127.16-113.03 164.84-131.87s277.88-98.9 259.04-428.58c-14.13-353.23-423.88-390.91-428.59-400.33z" transform="matrix(-.10373 .0242 .02584 .1099 418.806 192.805)" stroke-width="2.553" fill="#006700"/><path d="M320.26 487.2c0 59.825-11.597 108.32-25.903 108.32s-25.903-48.498-25.903-108.32c0-59.825 11.597-108.32 25.903-108.32s25.903 48.498 25.903 108.32z" transform="matrix(-.05047 -.00395 -.01242 .0497 396.83 195.416)" stroke-width="2.553" fill="#006700"/><path d="M320.26 487.2c0 59.825-11.597 108.32-25.903 108.32s-25.903-48.498-25.903-108.32c0-59.825 11.597-108.32 25.903-108.32s25.903 48.498 25.903 108.32z" transform="matrix(-.0457 -.01703 -.023 .04739 401.836 201.104)" stroke-width="2.553" fill="#006700"/><path d="M320.26 487.2c0 59.825-11.597 108.32-25.903 108.32s-25.903-48.498-25.903-108.32c0-59.825 11.597-108.32 25.903-108.32s25.903 48.498 25.903 108.32z" transform="matrix(-.00479 -.05291 -.04706 .01405 404.42 231.517)" stroke-width="2.553" fill="#006700"/><path d="M320.26 487.2c0 59.825-11.597 108.32-25.903 108.32s-25.903-48.498-25.903-108.32c0-59.825 11.597-108.32 25.903-108.32s25.903 48.498 25.903 108.32z" transform="matrix(-.02204 -.0446 -.04286 .02932 407.313 219.94)" stroke-width="2.553" fill="#006700"/><path d="M320.26 487.2c0 59.825-11.597 108.32-25.903 108.32s-25.903-48.498-25.903-108.32c0-59.825 11.597-108.32 25.903-108.32s25.903 48.498 25.903 108.32z" transform="matrix(-.03337 -.03489 -.0364 .03859 406.114 211.612)" stroke-width="2.553" fill="#006700"/><path d="M490.58 234.24c0 .846-.823 1.531-1.837 1.531s-1.838-.685-1.838-1.531c0-.846.823-1.531 1.838-1.531s1.837.685 1.837 1.531z" transform="matrix(-.5342 -.17257 -.21603 .65515 674.045 167.665)" stroke-width=".529" fill="red"/><path d="M490.58 234.24c0 .846-.823 1.531-1.837 1.531s-1.838-.685-1.838-1.531c0-.846.823-1.531 1.838-1.531s1.837.685 1.837 1.531z" transform="matrix(-.5342 -.17257 -.21603 .65515 678.25 169.534)" stroke-width=".529" fill="red"/><path d="M320.26 487.2c0 59.825-11.597 108.32-25.903 108.32s-25.903-48.498-25.903-108.32c0-59.825 11.597-108.32 25.903-108.32s25.903 48.498 25.903 108.32z" transform="matrix(-.07118 .01739 -.00106 .07684 385.951 185.47)" stroke-width="2.553" fill="#006700"/><path d="M320.26 487.2c0 59.825-11.597 108.32-25.903 108.32s-25.903-48.498-25.903-108.32c0-59.825 11.597-108.32 25.903-108.32s25.903 48.498 25.903 108.32z" transform="matrix(-.06882 -.00353 -.01646 .07836 394.733 191.33)" stroke-width="2.553" fill="#006700"/><path d="M320.26 487.2c0 59.825-11.597 108.32-25.903 108.32s-25.903-48.498-25.903-108.32c0-59.825 11.597-108.32 25.903-108.32s25.903 48.498 25.903 108.32z" transform="matrix(-.02381 -.0736 -.0606 .0416 408.182 233.704)" stroke-width="2.553" fill="#006700"/><path d="M320.26 487.2c0 59.825-11.597 108.32-25.903 108.32s-25.903-48.498-25.903-108.32c0-59.825 11.597-108.32 25.903-108.32s25.903 48.498 25.903 108.32z" transform="matrix(-.045 -.0538 -.04984 .06155 408.436 215.802)" stroke-width="2.553" fill="#006700"/><path d="M320.26 487.2c0 59.825-11.597 108.32-25.903 108.32s-25.903-48.498-25.903-108.32c0-59.825 11.597-108.32 25.903-108.32s25.903 48.498 25.903 108.32z" transform="matrix(-.05753 -.03473 -.03788 .07188 404.068 204.419)" stroke-width="2.553" fill="#006700"/><path d="M320.26 487.2c0 59.825-11.597 108.32-25.903 108.32s-25.903-48.498-25.903-108.32c0-59.825 11.597-108.32 25.903-108.32s25.903 48.498 25.903 108.32z" transform="matrix(-.0665 .03112 .01255 .0761 371.349 198.211)" stroke-width="2.553" fill="#006700"/><path d="M320.26 487.2c0 59.825-11.597 108.32-25.903 108.32s-25.903-48.498-25.903-108.32c0-59.825 11.597-108.32 25.903-108.32s25.903 48.498 25.903 108.32z" transform="matrix(-.06789 .01 -.00223 .08062 380.969 202.283)" stroke-width="2.553" fill="#006700"/><path d="M320.26 487.2c0 59.825-11.597 108.32-25.903 108.32s-25.903-48.498-25.903-108.32c0-59.825 11.597-108.32 25.903-108.32s25.903 48.498 25.903 108.32z" transform="matrix(-.03629 -.06802 -.05188 .05297 401.603 241.499)" stroke-width="2.553" fill="#006700"/><path d="M320.26 487.2c0 59.825-11.597 108.32-25.903 108.32s-25.903-48.498-25.903-108.32c0-59.825 11.597-108.32 25.903-108.32s25.903 48.498 25.903 108.32z" transform="matrix(-.0535 -.04432 -.03783 .07056 398.689 223.767)" stroke-width="2.553" fill="#006700"/><path d="M320.26 487.2c0 59.825-11.597 108.32-25.903 108.32s-25.903-48.498-25.903-108.32c0-59.825 11.597-108.32 25.903-108.32s25.903 48.498 25.903 108.32z" transform="matrix(-.06238 -.02303 -.02431 .07842 392.41 213.377)" stroke-width="2.553" fill="#006700"/><path d="M320.26 487.2c0 59.825-11.597 108.32-25.903 108.32s-25.903-48.498-25.903-108.32c0-59.825 11.597-108.32 25.903-108.32s25.903 48.498 25.903 108.32z" transform="matrix(-.04836 .0569 .04032 .06528 351.53 213.97)" stroke-width="2.553" fill="#006700"/><path d="M320.26 487.2c0 59.825-11.597 108.32-25.903 108.32s-25.903-48.498-25.903-108.32c0-59.825 11.597-108.32 25.903-108.32s25.903 48.498 25.903 108.32z" transform="matrix(-.05765 .0379 .02866 .0757 361.78 213.689)" stroke-width="2.553" fill="#006700"/><path d="M320.26 487.2c0 59.825-11.597 108.32-25.903 108.32s-25.903-48.498-25.903-108.32c0-59.825 11.597-108.32 25.903-108.32s25.903 48.498 25.903 108.32z" transform="matrix(-.05874 -.04777 -.0268 .071 395.392 241.35)" stroke-width="2.553" fill="#006700"/><path d="M320.26 487.2c0 59.825-11.597 108.32-25.903 108.32s-25.903-48.498-25.903-108.32c0-59.825 11.597-108.32 25.903-108.32s25.903 48.498 25.903 108.32z" transform="matrix(-.0653 -.01853 -.00739 .08138 386.004 226.133)" stroke-width="2.553" fill="#006700"/><path d="M320.26 487.2c0 59.825-11.597 108.32-25.903 108.32s-25.903-48.498-25.903-108.32c0-59.825 11.597-108.32 25.903-108.32s25.903 48.498 25.903 108.32z" transform="matrix(-.06523 .00495 .00784 .08297 376.361 219.154)" stroke-width="2.553" fill="#006700"/><path d="M320.26 487.2c0 59.825-11.597 108.32-25.903 108.32s-25.903-48.498-25.903-108.32c0-59.825 11.597-108.32 25.903-108.32s25.903 48.498 25.903 108.32z" transform="matrix(-.0349 .08066 .06541 .05717 339.94 229.314)" stroke-width="2.553" fill="#006700"/><path d="M490.58 234.24c0 .846-.823 1.531-1.837 1.531s-1.838-.685-1.838-1.531c0-.846.823-1.531 1.838-1.531s1.837.685 1.837 1.531z" transform="matrix(-.21956 -.31497 -.41547 .2241 597.615 311.943)" stroke-width=".529" fill="red"/><path d="M490.58 234.24c0 .846-.823 1.531-1.837 1.531s-1.838-.685-1.838-1.531c0-.846.823-1.531 1.838-1.531s1.837.685 1.837 1.531z" transform="matrix(-.21956 -.31497 -.41547 .2241 599.12 314.672)" stroke-width=".529" fill="red"/><path d="M320.26 487.2c0 59.825-11.597 108.32-25.903 108.32s-25.903-48.498-25.903-108.32c0-59.825 11.597-108.32 25.903-108.32s25.903 48.498 25.903 108.32z" transform="matrix(-.05125 .06312 .05594 .07298 351.134 225.22)" stroke-width="2.553" fill="#006700"/><path d="M320.26 487.2c0 59.825-11.597 108.32-25.903 108.32s-25.903-48.498-25.903-108.32c0-59.825 11.597-108.32 25.903-108.32s25.903 48.498 25.903 108.32z" transform="matrix(-.08004 -.03105 -.00664 .08827 397.048 243.345)" stroke-width="2.553" fill="#006700"/><path d="M320.26 487.2c0 59.825-11.597 108.32-25.903 108.32s-25.903-48.498-25.903-108.32c0-59.825 11.597-108.32 25.903-108.32s25.903 48.498 25.903 108.32z" transform="matrix(-.07785 .00364 .01809 .09256 381.808 230.019)" stroke-width="2.553" fill="#006700"/><path d="M320.26 487.2c0 59.825-11.597 108.32-25.903 108.32s-25.903-48.498-25.903-108.32c0-59.825 11.597-108.32 25.903-108.32s25.903 48.498 25.903 108.32z" transform="matrix(-.07021 .02954 .03535 .08869 368.95 225.866)" stroke-width="2.553" fill="#006700"/><path d="M320.26 487.2c0 59.825-11.597 108.32-25.903 108.32s-25.903-48.498-25.903-108.32c0-59.825 11.597-108.32 25.903-108.32s25.903 48.498 25.903 108.32z" transform="matrix(.0095 .0973 .09375 .01578 324.685 260.78)" stroke-width="2.553" fill="#006700"/><path d="M490.58 234.24c0 .846-.823 1.531-1.837 1.531s-1.838-.685-1.838-1.531c0-.846.823-1.531 1.838-1.531s1.837.685 1.837 1.531z" transform="matrix(-.33885 .4437 .55544 .41556 402.765 -25.84)" stroke-width=".529" fill="red"/><path d="M490.58 234.24c0 .846-.823 1.531-1.837 1.531s-1.838-.685-1.838-1.531c0-.846.823-1.531 1.838-1.531s1.837.685 1.837 1.531z" transform="matrix(-.33885 .4437 .55544 .41556 405.919 -29.163)" stroke-width=".529" fill="red"/><path d="M320.26 487.2c0 59.825-11.597 108.32-25.903 108.32s-25.903-48.498-25.903-108.32c0-59.825 11.597-108.32 25.903-108.32s25.903 48.498 25.903 108.32z" transform="matrix(-.01567 .09027 .09307 .0364 333.294 250.28)" stroke-width="2.553" fill="#006700"/><path d="M320.26 487.2c0 59.825-11.597 108.32-25.903 108.32s-25.903-48.498-25.903-108.32c0-59.825 11.597-108.32 25.903-108.32s25.903 48.498 25.903 108.32z" transform="matrix(-.09388 .0177 .04085 .08786 387.308 240.43)" stroke-width="2.553" fill="#006700"/><path d="M320.26 487.2c0 59.825-11.597 108.32-25.903 108.32s-25.903-48.498-25.903-108.32c0-59.825 11.597-108.32 25.903-108.32s25.903 48.498 25.903 108.32z" transform="matrix(-.07319 .0494 .06701 .07736 365.467 236.745)" stroke-width="2.553" fill="#006700"/><path d="M320.26 487.2c0 59.825-11.597 108.32-25.903 108.32s-25.903-48.498-25.903-108.32c0-59.825 11.597-108.32 25.903-108.32s25.903 48.498 25.903 108.32z" transform="matrix(-.05195 .06952 .0816 .06349 350.834 240.386)" stroke-width="2.553" fill="#006700"/><g stroke-width="2.553" fill="#006700"><path d="M314.71 506.2c0 45.062-10.064 81.591-22.479 81.591s-22.479-36.53-22.479-81.591c0-45.062 10.064-81.591 22.479-81.591s22.479 36.53 22.479 81.591z" transform="matrix(.00038 .13607 .1279 .00192 325.305 265.148)"/><path d="M314.71 506.2c0 45.062-10.064 81.591-22.479 81.591s-22.479-36.53-22.479-81.591c0-45.062 10.064-81.591 22.479-81.591s22.479 36.53 22.479 81.591z" transform="matrix(-.09895 .08441 .08103 .10674 381.667 218.78)"/><path d="M314.71 506.2c0 45.062-10.064 81.591-22.479 81.591s-22.479-36.53-22.479-81.591c0-45.062 10.064-81.591 22.479-81.591s22.479 36.53 22.479 81.591z" transform="matrix(-.04713 .12563 .1189 .0523 344.72 238.25)"/></g><g stroke-width="2.553" fill="#006700"><path d="M314.71 506.2c0 45.062-10.064 81.591-22.479 81.591s-22.479-36.53-22.479-81.591c0-45.062 10.064-81.591 22.479-81.591s22.479 36.53 22.479 81.591z" transform="matrix(-.05473 -.03042 -.05888 .05409 434.258 193.802)"/><path d="M314.71 506.2c0 45.062-10.064 81.591-22.479 81.591s-22.479-36.53-22.479-81.591c0-45.062 10.064-81.591 22.479-81.591s22.479 36.53 22.479 81.591z" transform="matrix(.01111 -.06115 -.07962 .01055 427.24 228.25)"/><path d="M314.71 506.2c0 45.062-10.064 81.591-22.479 81.591s-22.479-36.53-22.479-81.591c0-45.062 10.064-81.591 22.479-81.591s22.479 36.53 22.479 81.591z" transform="matrix(-.02896 -.04832 -.075 .03893 436.221 208.123)"/></g><path d="M490.58 234.24c0 .846-.823 1.531-1.837 1.531s-1.838-.685-1.838-1.531c0-.846.823-1.531 1.838-1.531s1.837.685 1.837 1.531z" transform="matrix(-.56194 0 0 .68916 632.425 91.464)" stroke-width=".529" fill="red"/><path d="M490.58 234.24c0 .846-.823 1.531-1.837 1.531s-1.838-.685-1.838-1.531c0-.846.823-1.531 1.838-1.531s1.837.685 1.837 1.531z" transform="matrix(-.56194 0 0 .68916 637.01 91.946)" stroke-width=".529" fill="red"/><path d="M490.58 234.24c0 .846-.823 1.531-1.837 1.531s-1.838-.685-1.838-1.531c0-.846.823-1.531 1.838-1.531s1.837.685 1.837 1.531z" transform="matrix(-.4864 .27854 .34869 .59651 516.29 -4.616)" stroke-width=".529" fill="red"/><path d="M490.58 234.24c0 .846-.823 1.531-1.837 1.531s-1.838-.685-1.838-1.531c0-.846.823-1.531 1.838-1.531s1.837.685 1.837 1.531z" transform="matrix(-.4864 .27854 .34869 .59651 520.502 -6.47)" stroke-width=".529" fill="red"/><path d="M490.58 234.24c0 .846-.823 1.531-1.837 1.531s-1.838-.685-1.838-1.531c0-.846.823-1.531 1.838-1.531s1.837.685 1.837 1.531z" transform="matrix(-.30194 -.239 -.3326 .33308 608.044 254.536)" stroke-width=".529" fill="red"/><path d="M490.58 234.24c0 .846-.823 1.531-1.837 1.531s-1.838-.685-1.838-1.531c0-.846.823-1.531 1.838-1.531s1.837.685 1.837 1.531z" transform="matrix(-.30194 -.239 -.3326 .33308 610.277 256.716)" stroke-width=".529" fill="red"/><path d="M490.58 234.24c0 .846-.823 1.531-1.837 1.531s-1.838-.685-1.838-1.531c0-.846.823-1.531 1.838-1.531s1.837.685 1.837 1.531z" transform="matrix(.4748 -.29748 .3724 .5823 132.79 232.416)" stroke-width=".529" fill="red"/><path d="M490.58 234.24c0 .846-.823 1.531-1.837 1.531s-1.838-.685-1.838-1.531c0-.846.823-1.531 1.838-1.531s1.837.685 1.837 1.531z" transform="matrix(.4748 -.29748 .3724 .5823 129.178 235.249)" stroke-width=".529" fill="red"/><path d="M259.03 105.71s400.32 70.645 414.45 395.62c14.129 324.97-188.39 367.36-259.03 419.16-70.645 51.807-113.03 113.03-146 113.03-32.968 0-80.065-14.13-80.065-14.13s9.42 51.81 75.355 47.1c65.936-4.71 127.16-113.03 164.84-131.87s277.88-98.9 259.04-428.58c-14.13-353.23-423.88-390.91-428.59-400.33z" transform="matrix(.10373 .0242 -.02584 .1099 406.468 193.26)" stroke-width="2.553" fill="#006700"/><path d="M320.26 487.2c0 59.825-11.597 108.32-25.903 108.32s-25.903-48.498-25.903-108.32c0-59.825 11.597-108.32 25.903-108.32s25.903 48.498 25.903 108.32z" transform="matrix(.05047 -.00395 .01242 .0497 428.443 195.87)" stroke-width="2.553" fill="#006700"/><path d="M320.26 487.2c0 59.825-11.597 108.32-25.903 108.32s-25.903-48.498-25.903-108.32c0-59.825 11.597-108.32 25.903-108.32s25.903 48.498 25.903 108.32z" transform="matrix(.0457 -.01703 .023 .04739 423.438 201.558)" stroke-width="2.553" fill="#006700"/><path d="M320.26 487.2c0 59.825-11.597 108.32-25.903 108.32s-25.903-48.498-25.903-108.32c0-59.825 11.597-108.32 25.903-108.32s25.903 48.498 25.903 108.32z" transform="matrix(.00479 -.05291 .04706 .01405 420.854 231.97)" stroke-width="2.553" fill="#006700"/><path d="M320.26 487.2c0 59.825-11.597 108.32-25.903 108.32s-25.903-48.498-25.903-108.32c0-59.825 11.597-108.32 25.903-108.32s25.903 48.498 25.903 108.32z" transform="matrix(.02204 -.0446 .04286 .02932 417.961 220.395)" stroke-width="2.553" fill="#006700"/><path d="M320.26 487.2c0 59.825-11.597 108.32-25.903 108.32s-25.903-48.498-25.903-108.32c0-59.825 11.597-108.32 25.903-108.32s25.903 48.498 25.903 108.32z" transform="matrix(.03337 -.03489 .0364 .03859 419.16 212.066)" stroke-width="2.553" fill="#006700"/><path d="M490.58 234.24c0 .846-.823 1.531-1.837 1.531s-1.838-.685-1.838-1.531c0-.846.823-1.531 1.838-1.531s1.837.685 1.837 1.531z" transform="matrix(.5342 -.17257 .21603 .65515 151.23 168.12)" stroke-width=".529" fill="red"/><path d="M490.58 234.24c0 .846-.823 1.531-1.837 1.531s-1.838-.685-1.838-1.531c0-.846.823-1.531 1.838-1.531s1.837.685 1.837 1.531z" transform="matrix(.5342 -.17257 .21603 .65515 147.024 169.988)" stroke-width=".529" fill="red"/><path d="M320.26 487.2c0 59.825-11.597 108.32-25.903 108.32s-25.903-48.498-25.903-108.32c0-59.825 11.597-108.32 25.903-108.32s25.903 48.498 25.903 108.32z" transform="matrix(.07118 .01739 .00106 .07684 439.323 185.925)" stroke-width="2.553" fill="#006700"/><path d="M320.26 487.2c0 59.825-11.597 108.32-25.903 108.32s-25.903-48.498-25.903-108.32c0-59.825 11.597-108.32 25.903-108.32s25.903 48.498 25.903 108.32z" transform="matrix(.06882 -.00353 .01646 .07836 430.541 191.784)" stroke-width="2.553" fill="#006700"/><path d="M320.26 487.2c0 59.825-11.597 108.32-25.903 108.32s-25.903-48.498-25.903-108.32c0-59.825 11.597-108.32 25.903-108.32s25.903 48.498 25.903 108.32z" transform="matrix(.02381 -.0736 .0606 .0416 417.092 234.159)" stroke-width="2.553" fill="#006700"/><path d="M320.26 487.2c0 59.825-11.597 108.32-25.903 108.32s-25.903-48.498-25.903-108.32c0-59.825 11.597-108.32 25.903-108.32s25.903 48.498 25.903 108.32z" transform="matrix(.045 -.0538 .04984 .06155 416.838 216.256)" stroke-width="2.553" fill="#006700"/><path d="M320.26 487.2c0 59.825-11.597 108.32-25.903 108.32s-25.903-48.498-25.903-108.32c0-59.825 11.597-108.32 25.903-108.32s25.903 48.498 25.903 108.32z" transform="matrix(.05753 -.03473 .03788 .07188 421.206 204.873)" stroke-width="2.553" fill="#006700"/><path d="M320.26 487.2c0 59.825-11.597 108.32-25.903 108.32s-25.903-48.498-25.903-108.32c0-59.825 11.597-108.32 25.903-108.32s25.903 48.498 25.903 108.32z" transform="matrix(.0665 .03112 -.01255 .0761 453.925 198.666)" stroke-width="2.553" fill="#006700"/><path d="M320.26 487.2c0 59.825-11.597 108.32-25.903 108.32s-25.903-48.498-25.903-108.32c0-59.825 11.597-108.32 25.903-108.32s25.903 48.498 25.903 108.32z" transform="matrix(.06789 .01 .00223 .08062 444.305 202.737)" stroke-width="2.553" fill="#006700"/><path d="M320.26 487.2c0 59.825-11.597 108.32-25.903 108.32s-25.903-48.498-25.903-108.32c0-59.825 11.597-108.32 25.903-108.32s25.903 48.498 25.903 108.32z" transform="matrix(.03629 -.06802 .05188 .05297 423.67 241.953)" stroke-width="2.553" fill="#006700"/><path d="M320.26 487.2c0 59.825-11.597 108.32-25.903 108.32s-25.903-48.498-25.903-108.32c0-59.825 11.597-108.32 25.903-108.32s25.903 48.498 25.903 108.32z" transform="matrix(.0535 -.04432 .03783 .07056 426.585 224.221)" stroke-width="2.553" fill="#006700"/><path d="M320.26 487.2c0 59.825-11.597 108.32-25.903 108.32s-25.903-48.498-25.903-108.32c0-59.825 11.597-108.32 25.903-108.32s25.903 48.498 25.903 108.32z" transform="matrix(.06238 -.02303 .02431 .07842 432.864 213.831)" stroke-width="2.553" fill="#006700"/><path d="M320.26 487.2c0 59.825-11.597 108.32-25.903 108.32s-25.903-48.498-25.903-108.32c0-59.825 11.597-108.32 25.903-108.32s25.903 48.498 25.903 108.32z" transform="matrix(.04836 .0569 -.04032 .06528 473.743 214.425)" stroke-width="2.553" fill="#006700"/><path d="M320.26 487.2c0 59.825-11.597 108.32-25.903 108.32s-25.903-48.498-25.903-108.32c0-59.825 11.597-108.32 25.903-108.32s25.903 48.498 25.903 108.32z" transform="matrix(.05765 .0379 -.02866 .0757 463.493 214.143)" stroke-width="2.553" fill="#006700"/><path d="M320.26 487.2c0 59.825-11.597 108.32-25.903 108.32s-25.903-48.498-25.903-108.32c0-59.825 11.597-108.32 25.903-108.32s25.903 48.498 25.903 108.32z" transform="matrix(.05874 -.04777 .0268 .071 429.882 241.805)" stroke-width="2.553" fill="#006700"/><path d="M320.26 487.2c0 59.825-11.597 108.32-25.903 108.32s-25.903-48.498-25.903-108.32c0-59.825 11.597-108.32 25.903-108.32s25.903 48.498 25.903 108.32z" transform="matrix(.0653 -.01853 .00739 .08138 439.27 226.587)" stroke-width="2.553" fill="#006700"/><path d="M320.26 487.2c0 59.825-11.597 108.32-25.903 108.32s-25.903-48.498-25.903-108.32c0-59.825 11.597-108.32 25.903-108.32s25.903 48.498 25.903 108.32z" transform="matrix(.06523 .00495 -.00784 .08297 448.913 219.608)" stroke-width="2.553" fill="#006700"/><path d="M320.26 487.2c0 59.825-11.597 108.32-25.903 108.32s-25.903-48.498-25.903-108.32c0-59.825 11.597-108.32 25.903-108.32s25.903 48.498 25.903 108.32z" transform="matrix(.0349 .08066 -.06541 .05717 485.334 229.768)" stroke-width="2.553" fill="#006700"/><path d="M490.58 234.24c0 .846-.823 1.531-1.837 1.531s-1.838-.685-1.838-1.531c0-.846.823-1.531 1.838-1.531s1.837.685 1.837 1.531z" transform="matrix(.21956 -.31497 .41547 .2241 227.66 312.397)" stroke-width=".529" fill="red"/><path d="M490.58 234.24c0 .846-.823 1.531-1.837 1.531s-1.838-.685-1.838-1.531c0-.846.823-1.531 1.838-1.531s1.837.685 1.837 1.531z" transform="matrix(.21956 -.31497 .41547 .2241 226.153 315.127)" stroke-width=".529" fill="red"/><path d="M320.26 487.2c0 59.825-11.597 108.32-25.903 108.32s-25.903-48.498-25.903-108.32c0-59.825 11.597-108.32 25.903-108.32s25.903 48.498 25.903 108.32z" transform="matrix(.05125 .06312 -.05594 .07298 474.14 225.675)" stroke-width="2.553" fill="#006700"/><path d="M320.26 487.2c0 59.825-11.597 108.32-25.903 108.32s-25.903-48.498-25.903-108.32c0-59.825 11.597-108.32 25.903-108.32s25.903 48.498 25.903 108.32z" transform="matrix(.08004 -.03105 .00664 .08827 428.226 243.8)" stroke-width="2.553" fill="#006700"/><path d="M320.26 487.2c0 59.825-11.597 108.32-25.903 108.32s-25.903-48.498-25.903-108.32c0-59.825 11.597-108.32 25.903-108.32s25.903 48.498 25.903 108.32z" transform="matrix(.07785 .00364 -.01809 .09256 443.466 230.473)" stroke-width="2.553" fill="#006700"/><path d="M320.26 487.2c0 59.825-11.597 108.32-25.903 108.32s-25.903-48.498-25.903-108.32c0-59.825 11.597-108.32 25.903-108.32s25.903 48.498 25.903 108.32z" transform="matrix(.07021 .02954 -.03535 .08869 456.323 226.32)" stroke-width="2.553" fill="#006700"/><path d="M320.26 487.2c0 59.825-11.597 108.32-25.903 108.32s-25.903-48.498-25.903-108.32c0-59.825 11.597-108.32 25.903-108.32s25.903 48.498 25.903 108.32z" transform="matrix(-.0095 .0973 -.09375 .01578 500.589 261.234)" stroke-width="2.553" fill="#006700"/><path d="M490.58 234.24c0 .846-.823 1.531-1.837 1.531s-1.838-.685-1.838-1.531c0-.846.823-1.531 1.838-1.531s1.837.685 1.837 1.531z" transform="matrix(.33885 .4437 -.55544 .41556 422.51 -25.387)" stroke-width=".529" fill="red"/><path d="M490.58 234.24c0 .846-.823 1.531-1.837 1.531s-1.838-.685-1.838-1.531c0-.846.823-1.531 1.838-1.531s1.837.685 1.837 1.531z" transform="matrix(.33885 .4437 -.55544 .41556 419.355 -28.709)" stroke-width=".529" fill="red"/><path d="M320.26 487.2c0 59.825-11.597 108.32-25.903 108.32s-25.903-48.498-25.903-108.32c0-59.825 11.597-108.32 25.903-108.32s25.903 48.498 25.903 108.32z" transform="matrix(.01567 .09027 -.09307 .0364 491.98 250.733)" stroke-width="2.553" fill="#006700"/><path d="M320.26 487.2c0 59.825-11.597 108.32-25.903 108.32s-25.903-48.498-25.903-108.32c0-59.825 11.597-108.32 25.903-108.32s25.903 48.498 25.903 108.32z" transform="matrix(.09388 .0177 -.04085 .08786 437.966 240.885)" stroke-width="2.553" fill="#006700"/><path d="M320.26 487.2c0 59.825-11.597 108.32-25.903 108.32s-25.903-48.498-25.903-108.32c0-59.825 11.597-108.32 25.903-108.32s25.903 48.498 25.903 108.32z" transform="matrix(.07319 .0494 -.06701 .07736 459.807 237.2)" stroke-width="2.553" fill="#006700"/><path d="M320.26 487.2c0 59.825-11.597 108.32-25.903 108.32s-25.903-48.498-25.903-108.32c0-59.825 11.597-108.32 25.903-108.32s25.903 48.498 25.903 108.32z" transform="matrix(.05195 .06952 -.0816 .06349 474.44 240.84)" stroke-width="2.553" fill="#006700"/><g stroke-width="2.553" fill="#006700"><path d="M314.71 506.2c0 45.062-10.064 81.591-22.479 81.591s-22.479-36.53-22.479-81.591c0-45.062 10.064-81.591 22.479-81.591s22.479 36.53 22.479 81.591z" transform="matrix(-.00038 .13607 -.1279 .00192 499.97 265.602)"/><path d="M314.71 506.2c0 45.062-10.064 81.591-22.479 81.591s-22.479-36.53-22.479-81.591c0-45.062 10.064-81.591 22.479-81.591s22.479 36.53 22.479 81.591z" transform="matrix(.09895 .08441 -.08103 .10674 443.607 219.234)"/><path d="M314.71 506.2c0 45.062-10.064 81.591-22.479 81.591s-22.479-36.53-22.479-81.591c0-45.062 10.064-81.591 22.479-81.591s22.479 36.53 22.479 81.591z" transform="matrix(.04713 .12563 -.1189 .0523 480.554 238.704)"/></g><g stroke-width="2.553" fill="#006700"><path d="M314.71 506.2c0 45.062-10.064 81.591-22.479 81.591s-22.479-36.53-22.479-81.591c0-45.062 10.064-81.591 22.479-81.591s22.479 36.53 22.479 81.591z" transform="matrix(.05473 -.03042 .05888 .05409 391.016 194.257)"/><path d="M314.71 506.2c0 45.062-10.064 81.591-22.479 81.591s-22.479-36.53-22.479-81.591c0-45.062 10.064-81.591 22.479-81.591s22.479 36.53 22.479 81.591z" transform="matrix(-.01111 -.06115 .07962 .01055 398.033 228.703)"/><path d="M314.71 506.2c0 45.062-10.064 81.591-22.479 81.591s-22.479-36.53-22.479-81.591c0-45.062 10.064-81.591 22.479-81.591s22.479 36.53 22.479 81.591z" transform="matrix(.02896 -.04832 .075 .03893 389.053 208.578)"/></g><path d="M490.58 234.24c0 .846-.823 1.531-1.837 1.531s-1.838-.685-1.838-1.531c0-.846.823-1.531 1.838-1.531s1.837.685 1.837 1.531z" transform="matrix(.56194 0 0 .68916 192.85 91.918)" stroke-width=".529" fill="red"/><path d="M490.58 234.24c0 .846-.823 1.531-1.837 1.531s-1.838-.685-1.838-1.531c0-.846.823-1.531 1.838-1.531s1.837.685 1.837 1.531z" transform="matrix(.56194 0 0 .68916 188.264 92.4)" stroke-width=".529" fill="red"/><path d="M490.58 234.24c0 .846-.823 1.531-1.837 1.531s-1.838-.685-1.838-1.531c0-.846.823-1.531 1.838-1.531s1.837.685 1.837 1.531z" transform="matrix(.4864 .27854 -.34869 .59651 308.983 -4.162)" stroke-width=".529" fill="red"/><path d="M490.58 234.24c0 .846-.823 1.531-1.837 1.531s-1.838-.685-1.838-1.531c0-.846.823-1.531 1.838-1.531s1.837.685 1.837 1.531z" transform="matrix(.4864 .27854 -.34869 .59651 304.772 -6.016)" stroke-width=".529" fill="red"/><path d="M490.58 234.24c0 .846-.823 1.531-1.837 1.531s-1.838-.685-1.838-1.531c0-.846.823-1.531 1.838-1.531s1.837.685 1.837 1.531z" transform="matrix(.30194 -.239 .3326 .33308 217.23 254.99)" stroke-width=".529" fill="red"/><path d="M490.58 234.24c0 .846-.823 1.531-1.837 1.531s-1.838-.685-1.838-1.531c0-.846.823-1.531 1.838-1.531s1.837.685 1.837 1.531z" transform="matrix(.30194 -.239 .3326 .33308 214.997 257.17)" stroke-width=".529" fill="red"/><g stroke-width=".375" fill="#5387f4"><path d="M411.36 319.5l.037 5.258c10.21-.517 5.263 6.977 7.029 11.223l2.255-2.827 3.122 2.803c-.25-4.908 2.748-17.395-12.443-16.457z" transform="matrix(.74925 0 0 .7416 103.17 73.972)"/><path d="M411.36 319.5l.037 5.258c10.21-.517 5.263 6.977 7.029 11.223l2.255-2.827 3.122 2.803c-.25-4.908 2.748-17.395-12.443-16.457z" transform="matrix(-.74925 0 0 .7416 722.325 74.132)"/><path d="M427.88 303.13c.325 1.901-.449 11.372-.865 13.641-.537 1.923-.447 6.708-10.395 7.147-4.776.211-3.898-4.548-3.681-4.548.216 0 1.949 1.733 3.898 0 1.948-1.732-.444-17.53 1.515-19.488 2.156-2.155 9.985 1.496 9.528 3.248z" transform="scale(.74925 .7416) rotate(26.278 268.406 663.777)"/><path d="M427.88 303.13c-2.057-.264-3.159-.732-3.68 1.516-2.053 9.068 2.368 17.101-7.58 19.272-4.665 1.041-3.898-4.548-3.681-4.548.216 0 1.949 1.733 3.898 0 1.948-1.732-.444-17.53 1.515-19.488 2.156-2.155 9.985 1.496 9.528 3.248z" transform="scale(.74925 .7416) rotate(26.278 268.406 663.777)"/><path d="M427.88 303.13c.325 1.901-.449 11.372-.865 13.641-.537 1.923-.447 6.708-10.395 7.147-4.776.211-3.898-4.548-3.681-4.548.216 0 1.949 1.733 3.898 0 1.948-1.732-.444-17.53 1.515-19.488 2.156-2.155 9.985 1.496 9.528 3.248z" transform="matrix(-.67182 .32832 .3317 .66496 585.745 -37.254)"/><path d="M427.88 303.13c-2.057-.264-3.159-.732-3.68 1.516-2.053 9.068 2.368 17.101-7.58 19.272-4.665 1.041-3.898-4.548-3.681-4.548.216 0 1.949 1.733 3.898 0 1.948-1.732-.444-17.53 1.515-19.488 2.156-2.155 9.985 1.496 9.528 3.248z" transform="matrix(-.67182 .32832 .3317 .66496 585.745 -37.254)"/><path d="M411.57 319.06l-.18 6.774 5.08-.037.613-6.737h-5.513z" transform="matrix(.74925 0 0 .7416 102.846 73.972)"/></g></g><path d="M409.69 276.93s-14.322 12.064-14.322 20.725c.306 3.457 3.169 6.981 8.407 9.52-2.418-3.586-2.747-6.52-2.747-9.931.306-5.86 8.461-12.931 8.461-12.931l.201-7.383z" fill-rule="evenodd" transform="matrix(-.55701 0 0 .56139 640.36 115.47)" stroke="#000" stroke-width=".375" fill="#5387f4"/><g stroke="#000" fill-rule="evenodd"><path transform="matrix(.001 -.799 -.66889 -.10126 128.895 338.531)" stroke-width=".28" fill="#ffd200" d="M172.65-427.57h49.929v2.055H172.65z"/><path d="M283.46-389.76l-17.717 70.866 17.717 25.037 17.716-25.037-17.716-70.866z" transform="matrix(-.11664 -.02251 -.00118 .12467 447.105 248.27)" stroke-width="1.698" fill="#ffd200"/><path d="M368.98-419.45s-40.709-27.717-40.709.866c0 28.582 39.843.866 40.709-.866zm-7.795-.181s-28.583-19.342-28.583.604c0 19.945 27.975.604 28.583-.604z" transform="matrix(-.09057 -.00714 .00276 .06464 448.499 234.645)" stroke-width="2.684"/><path d="M368.98-419.45s-40.709-27.717-40.709.866c0 28.582 39.843.866 40.709-.866zm-7.795-.181s-28.583-19.342-28.583.604c0 19.945 27.975.604 28.583-.604z" transform="matrix(.08856 -.01011 -.01226 -.06448 376.788 181.808)" stroke-width="2.684"/><path d="M422.29-165.7l2.45-.306s1.766 2.602 3.675 6.737c1.679 4.331 3.368 11.33 4.899 27.255-4.593-.307-21.436 1.531-21.436 1.531s.236-19.169 6.125-26.029c2.757-2.906 4.593-8.575 4.287-9.188z" transform="matrix(.67432 0 0 .799 128.895 338.531)" stroke-width=".279" fill="#5387f4"/><path d="M422.29-165.7l2.45-.306s1.766 2.602 3.675 6.737c1.679 4.331-4.9 11.636-3.369 27.561-4.593-.307-13.168 1.225-13.168 1.225s.236-19.169 6.125-26.029c2.757-2.906 4.593-8.575 4.287-9.188z" transform="matrix(.67432 0 0 .799 128.895 338.531)" stroke-width=".279" fill="#fff"/><path d="M422.29-165.7l2.45-.306s-.613 7.962-2.756 11.943c-2.144 3.981-3.369 22.967-3.063 22.967.307 0-7.043.613-7.043.613s.236-19.169 6.125-26.029c2.757-2.906 4.593-8.575 4.287-9.188z" transform="matrix(.67432 0 0 .799 128.895 338.531)" stroke-width=".279" fill="#5387f4"/></g><path d="M409.69 276.93s-14.322 12.064-14.322 20.725c.306 3.457 3.169 6.981 8.407 9.52-2.418-3.586-2.747-6.52-2.747-9.931.306-5.86 8.461-12.931 8.461-12.931l.201-7.383z" fill-rule="evenodd" transform="matrix(.57303 0 0 .54638 180.32 119.86)" stroke="#000" stroke-width=".375" fill="#5387f4"/><g stroke="#000" fill-rule="evenodd"><path d="M407.48-248.03l106.3-106.3s-27.516 220.02-88.583 265.75c0 0-53.15 24.117-53.15-.135l35.433-159.31z" transform="matrix(-.26793 0 0 .19503 512.17 287.47)" stroke-width="1pt" fill="#5387f4"/><path d="M407.48-248.03l70.866-70.867s-35.433 230.31-106.3 230.31v-.135l35.433-159.31z" transform="matrix(-.26793 0 0 .19503 512.17 287.47)" stroke-width="1pt" fill="#fff"/><path d="M407.48-248.03l35.433-35.434s-35.433 194.88-70.866 194.88v-.135l35.433-159.31z" transform="matrix(-.26793 0 0 .19503 512.17 287.47)" stroke-width="1pt" fill="#5387f4"/><path transform="matrix(-.19276 -.13546 -.1861 .14031 512.17 346.21)" stroke-width="1.3" fill="#ffd200" d="M678.85-116.49h177.17v7.323H678.85z"/><path d="M283.46-389.76l-17.717 70.866 17.717 25.037 17.716-25.037-17.716-70.866z" transform="matrix(-.11982 .08429 .10584 .07585 434.371 213.672)" stroke-width="2.753" fill="#ffd200"/><path d="M368.98-419.45s-40.709-27.717-40.709.866c0 28.582 39.843.866 40.709-.866zm-7.795-.181s-28.583-19.342-28.583.604c0 19.945 27.975.604 28.583-.604z" transform="matrix(-.10364 .0514 .0445 .04753 425.495 216.283)" stroke-width="1pt"/><path d="M368.98-419.45s-40.709-27.717-40.709.866c0 28.582 39.843.866 40.709-.866zm-7.795-.181s-28.583-19.342-28.583.604c0 19.945 27.975.604 28.583-.604z" transform="matrix(.09038 -.0633 -.05478 -.04145 313.165 221.024)" stroke-width="1pt"/><path d="M407.48-248.03l106.3-53.15S496.063-79.79 407.48-79.79c-53.15 0-70.866-70.866-70.866-70.866l70.866-97.378z" transform="matrix(-.26793 0 0 .19503 507.423 296.12)" stroke-width="1pt" fill="#5387f4"/><path d="M407.48-248.03l70.866-35.434c0 35.434-17.716 185.96-70.866 185.96-35.433 0-70.866-53.15-70.866-53.15l70.866-97.378z" transform="matrix(-.26793 0 0 .19503 507.423 296.12)" stroke-width="1pt" fill="#fff"/><path d="M407.48-248.03l35.433-17.717c0 79.662-17.716 150.53-53.149 150.53-17.717 0-53.15-35.433-53.15-35.433l70.866-97.378z" transform="matrix(-.26793 0 0 .19503 507.423 296.12)" stroke-width="1pt" fill="#5387f4"/><path transform="matrix(-.23974 -.08707 -.11962 .17451 512.17 346.21)" stroke-width="1.3" fill="#ffd200" d="M569.18-267.74h177.17v7.323H569.18z"/><path d="M283.46-389.76l-17.717 70.866 17.717 25.037 17.716-25.037-17.716-70.866z" transform="matrix(-.07952 .10659 .13225 .04922 427.67 219.95)" stroke-width="2.753" fill="#ffd200"/><path d="M368.98-419.45s-40.709-27.717-40.709.866c0 28.582 39.843.866 40.709-.866zm-7.795-.181s-28.583-19.342-28.583.604c0 19.945 27.975.604 28.583-.604z" transform="matrix(-.07765 .07169 .06205 .03561 420.28 224.379)" stroke-width="1pt"/><path d="M368.98-419.45s-40.709-27.717-40.709.866c0 28.582 39.843.866 40.709-.866zm-7.795-.181s-28.583-19.342-28.583.604c0 19.945 27.975.604 28.583-.604z" transform="matrix(.0601 -.08013 -.06935 -.02756 315.091 253.456)" stroke-width="1pt"/></g><g stroke="#000" fill-rule="evenodd"><path d="M407.48-248.03l106.3-106.3s-27.516 220.02-88.583 265.75c0 0-53.15 24.117-53.15-.135l35.433-159.31z" transform="matrix(.26414 0 0 .19504 316.86 287.468)" stroke-width="1pt" fill="#5387f4"/><path d="M407.48-248.03l70.866-70.867s-35.433 230.31-106.3 230.31v-.135l35.433-159.31z" transform="matrix(.26414 0 0 .19504 316.86 287.468)" stroke-width="1pt" fill="#fff"/><path d="M407.48-248.03l35.433-35.434s-35.433 194.88-70.866 194.88v-.135l35.433-159.31z" transform="matrix(.26414 0 0 .19504 316.86 287.468)" stroke-width="1pt" fill="#5387f4"/><path transform="matrix(.19003 -.13547 .18346 .14032 316.86 346.21)" stroke-width="1.3" fill="#ffd200" d="M678.85-116.49h177.17v7.323H678.85z"/><path d="M283.46-389.76l-17.717 70.866 17.717 25.037 17.716-25.037-17.716-70.866z" transform="matrix(.11813 .0843 -.10435 .07586 393.558 213.665)" stroke-width="2.753" fill="#ffd200"/><path d="M368.98-419.45s-40.709-27.717-40.709.866c0 28.582 39.843.866 40.709-.866zm-7.795-.181s-28.583-19.342-28.583.604c0 19.945 27.975.604 28.583-.604z" transform="matrix(.10217 .0514 -.04386 .04753 402.31 216.276)" stroke-width="1pt"/><path d="M368.98-419.45s-40.709-27.717-40.709.866c0 28.582 39.843.866 40.709-.866zm-7.795-.181s-28.583-19.342-28.583.604c0 19.945 27.975.604 28.583-.604z" transform="matrix(-.0891 -.0633 .054 -.04145 513.05 221.018)" stroke-width="1pt"/><path d="M407.48-248.03l106.3-53.15S496.063-79.79 407.48-79.79c-53.15 0-70.866-70.866-70.866-70.866l70.866-97.378z" transform="matrix(.26414 0 0 .19504 321.54 296.118)" stroke-width="1pt" fill="#5387f4"/><path d="M407.48-248.03l70.866-35.434c0 35.434-17.716 185.96-70.866 185.96-35.433 0-70.866-53.15-70.866-53.15l70.866-97.378z" transform="matrix(.26414 0 0 .19504 321.54 296.118)" stroke-width="1pt" fill="#fff"/><path d="M407.48-248.03l35.433-17.717c0 79.662-17.716 150.53-53.149 150.53-17.717 0-53.15-35.433-53.15-35.433l70.866-97.378z" transform="matrix(.26414 0 0 .19504 321.54 296.118)" stroke-width="1pt" fill="#5387f4"/><path transform="matrix(.23635 -.08708 .11793 .17452 316.86 346.21)" stroke-width="1.3" fill="#ffd200" d="M569.18-267.74h177.17v7.323H569.18z"/><path d="M283.46-389.76l-17.717 70.866 17.717 25.037 17.716-25.037-17.716-70.866z" transform="matrix(.0784 .1066 -.13038 .04922 400.164 219.943)" stroke-width="2.753" fill="#ffd200"/><path d="M368.98-419.45s-40.709-27.717-40.709.866c0 28.582 39.843.866 40.709-.866zm-7.795-.181s-28.583-19.342-28.583.604c0 19.945 27.975.604 28.583-.604z" transform="matrix(.07655 .0717 -.06117 .03561 407.45 224.372)" stroke-width="1pt"/><path d="M368.98-419.45s-40.709-27.717-40.709.866c0 28.582 39.843.866 40.709-.866zm-7.795-.181s-28.583-19.342-28.583.604c0 19.945 27.975.604 28.583-.604z" transform="matrix(-.05925 -.08013 .06837 -.02756 511.15 253.45)" stroke-width="1pt"/></g><g stroke-linejoin="bevel" stroke="#000" stroke-width=".168"><path d="M496.06 627.16l17.717-17.716 17.716 17.716H496.06z" fill-rule="evenodd" transform="matrix(2.01316 0 0 3.43457 -620.239 -1878.142)" fill="#ffd200"/><path d="M496.06 627.16l17.717-17.716 17.716 17.716H496.06z" fill-rule="evenodd" transform="matrix(1.81423 0 0 3.1122 -517.914 -1677.687)" fill="#0ff"/><path d="M419.84 239.14c0 3.89-3.222 7.043-7.196 7.043-3.975 0-7.197-3.153-7.197-7.043s3.222-7.043 7.197-7.043c3.974 0 7.196 3.153 7.196 7.043z" fill-rule="evenodd" fill="#ffd200" transform="matrix(.74925 0 0 .7416 105.14 70.338)"/><path d="M462.73 556.66l-1.18-108.32m7.07 115.39l38.855-54.162M474.51 569.61l62.4-25.9m-57.69 34.15l73.001 2.355m-77.711 7.065l42.388 37.677M462.73 583.74v34.146M449.78 575.5l-55.339 48.275m61.229-44.745l-24.726 45.92m15.306-55.34l-91.84 31.791m90.66-36.501l-64.76-2.355m12.95-24.725l56.517 18.839M420.34 489.55l34.146 65.936" transform="matrix(.18142 0 0 .17968 330.41 145.314)" fill="none"/><g fill-rule="evenodd"><path d="M460.63 219.69c-35.433 0-61.25 6.505-83.044 14.145l5.54-9.579 5.53-9.595 5.54-9.596 5.54-9.578 5.53-9.595 5.54-9.579 6.13-9.769c8.26-7.257 25.98-10.652 43.69-10.652 17.72 0 35.44 3.586 44.3 10.826l5.54 9.595 5.53 9.579 5.54 9.595 5.54 9.578 5.53 9.596 5.54 9.595 5.53 9.579c-22.972-7.64-47.613-14.145-83.046-14.145z" transform="matrix(.18142 0 0 .17968 330.642 202.78)" fill="#c453d7"/><path d="M460.63 212.93c-35.548-.05-75.281 10.597-77.504 11.329l5.53-9.595 5.54-9.596 5.54-9.578 5.53-9.595 5.54-9.579 6.13-9.769c8.26-7.257 25.98-10.652 43.69-10.652 17.72 0 35.44 3.586 44.3 10.826l5.54 9.595 5.53 9.579 5.54 9.595 5.54 9.578 5.53 9.596 5.54 9.595s-42.083-11.329-77.516-11.329z" transform="matrix(.18142 0 0 .17968 330.644 202.78)" fill="#5000c1"/><path d="M460.63 205.27c-26.248-.109-68.686 7.141-71.68 8.504l5.246-8.713 5.54-9.578 5.53-9.595 5.54-9.579 6.13-9.769c8.26-7.257 25.98-10.652 43.69-10.652 17.72 0 35.44 3.586 44.3 10.826l5.54 9.595 5.53 9.579 5.54 9.595 5.54 9.578 5.53 9.596s-36.543-9.387-71.976-9.387z" transform="matrix(.18142 0 0 .17968 330.642 202.78)" fill="#0053d7"/><path d="M460.63 197.32c-34.802-.07-63.717 6.631-66.434 7.739l5.54-9.578 5.53-9.595 5.54-9.579 6.13-9.769c8.26-7.257 25.98-10.652 43.69-10.652 17.72 0 35.44 3.586 44.3 10.826l5.54 9.595 5.53 9.579 5.54 9.595 5.54 9.578s-31.013-7.739-66.446-7.739z" transform="matrix(.18142 0 0 .17968 330.639 202.779)" fill="#009f9f"/><path d="M460.63 190.56c-35.605-.123-57.963 4.465-60.894 4.931l5.53-9.595 5.54-9.579 6.13-9.769c8.26-7.257 25.98-10.652 43.69-10.652 17.72 0 35.44 3.586 44.3 10.826l5.54 9.595 5.53 9.579 5.54 9.595s-25.473-4.931-60.906-4.931z" transform="matrix(.18142 0 0 .17968 330.642 202.778)" fill="#ff0"/><path d="M460.34 181.72c-31.014-.671-53.786 4.25-55.07 4.167l5.54-9.579 6.13-9.769c8.26-7.257 25.98-10.652 43.69-10.652 17.72 0 35.44 3.586 44.3 10.826l5.54 9.595 5.53 9.579s-20.227-4.167-55.66-4.167z" transform="matrix(.18142 0 0 .17968 330.64 202.778)" fill="#f50"/><path d="M461.51 171.42c-31.129.257-47.247 4.34-50.707 4.891l6.13-9.769c8.26-7.257 25.98-10.652 43.69-10.652 17.72 0 35.44 3.586 44.3 10.826l5.54 9.595s-13.52-4.891-48.953-4.891z" transform="matrix(.18142 0 0 .17968 330.636 202.78)" fill="#ff0b00"/></g><path d="M496.06 627.16l4.983-4.983h25.467l4.983 4.983H496.06z" fill-rule="evenodd" transform="matrix(1.81423 0 0 3.1122 -517.914 -1677.687)" fill="#4363ff"/><path d="M438.01 565.49c.409 0 .727-1.87 1.766-3.532 2.222-1.61 4.568-2.871 7.653-3.533 1.665-.832 5.08-.588 7.653-.588 3.611.324 3.837 1.865 5.888 4.121.902 1.837 3.038 4.389 4.121 7.064 1.172 1.42 2.107 3.626 2.943 5.299.855 1.804 1.765 4.526 2.944 7.064.605 2.824 1.177 5.028 1.177 8.242 0 3.352-.554 4.78-1.177 7.065-1.794.598-5.29.888-7.065 0-1.9-1.7-5.162-.617-6.475-2.355-3.386-.474-4.208-4.459-5.888-6.475-1.175-1.729-1.156-3.032-2.355-4.71-1.857-1.327-2.108-2.945-2.943-5.299.736-2.517 2.015-3.068 4.121-4.121 1.127-1.644 1.766-2.304 1.766-5.298-.424-3.334-1.625-2.982-4.71-3.533-3.814 0-5.77.393-9.419.589z" fill-rule="evenodd" transform="matrix(.122 0 0 .09388 358.911 193.83)" fill="red"/><g fill-rule="evenodd" fill="#6da700"><path d="M334.69 674.38s28.307-4.996 46.624-19.982c18.316-14.986 18.317-39.964 26.642-39.964 8.326 0 9.991 28.308 29.973 38.299 19.981 9.991 51.62 23.312 51.62 23.312l-154.86-1.665z" transform="matrix(.0772 -.00942 .0262 .10508 380.134 203)"/><path d="M334.69 674.38s28.307-4.996 46.624-19.982c18.316-14.986 18.317-39.964 26.642-39.964 8.326 0 9.991 28.308 29.973 38.299 19.981 9.991 51.62 23.312 51.62 23.312l-154.86-1.665z" transform="matrix(.0772 -.00942 .0262 .10508 379.008 203.132)"/><path d="M334.69 674.38s28.307-4.996 46.624-19.982c18.316-14.986 18.317-39.964 26.642-39.964 8.326 0 9.991 28.308 29.973 38.299 19.981 9.991 51.62 23.312 51.62 23.312l-154.86-1.665z" transform="matrix(.09172 -.0112 .02905 .11656 369.223 196.581)"/><path d="M334.69 674.38s28.307-4.996 46.624-19.982c18.316-14.986 18.317-39.964 26.642-39.964 8.326 0 9.991 28.308 29.973 38.299 19.981 9.991 51.62 23.312 51.62 23.312l-154.86-1.665z" transform="matrix(.10141 -.01237 .03382 .13569 360.14 184.606)"/><path d="M334.69 674.38s28.307-4.996 46.624-19.982c18.316-14.986 18.317-39.964 26.642-39.964 8.326 0 9.991 28.308 29.973 38.299 19.981 9.991 51.62 23.312 51.62 23.312l-154.86-1.665z" transform="matrix(.11474 -.014 .03763 .15099 349.766 175.342)"/><path d="M334.69 674.38s28.307-4.996 46.624-19.982c18.316-14.986 18.317-39.964 26.642-39.964 8.326 0 9.991 28.308 29.973 38.299 19.981 9.991 51.62 23.312 51.62 23.312l-154.86-1.665z" transform="matrix(.122 -.01489 .0424 .17012 341.277 163.056)"/><path d="M334.69 674.38s28.307-4.996 46.624-19.982c18.316-14.986 18.317-39.964 26.642-39.964 8.326 0 9.991 28.308 29.973 38.299 19.981 9.991 51.62 23.312 51.62 23.312l-154.86-1.665z" transform="matrix(.14031 -.00561 .03028 .16657 339.19 161.089)"/><path d="M334.69 674.38s28.307-4.996 46.624-19.982c18.316-14.986 18.317-39.964 26.642-39.964 8.326 0 9.991 28.308 29.973 38.299 19.981 9.991 51.62 23.312 51.62 23.312l-154.86-1.665z" transform="matrix(.14031 -.00561 .03028 .16657 337.144 161.17)"/><path d="M334.69 674.38s28.307-4.996 46.624-19.982c18.316-14.986 18.317-39.964 26.642-39.964 8.326 0 9.991 28.308 29.973 38.299 19.981 9.991 51.62 23.312 51.62 23.312l-154.86-1.665z" transform="matrix(.16673 -.00667 .03358 .18476 320.586 149.816)"/><path d="M334.69 674.38s28.307-4.996 46.624-19.982c18.316-14.986 18.317-39.964 26.642-39.964 8.326 0 9.991 28.308 29.973 38.299 19.981 9.991 51.62 23.312 51.62 23.312l-154.86-1.665z" transform="matrix(.18434 -.00737 .0391 .21507 306.176 130.126)"/><path d="M334.69 674.38s28.307-4.996 46.624-19.982c18.316-14.986 18.317-39.964 26.642-39.964 8.326 0 9.991 28.308 29.973 38.299 19.981 9.991 51.62 23.312 51.62 23.312l-154.86-1.665z" transform="matrix(.20855 -.00834 .0435 .23933 289.008 114.498)"/><path d="M334.69 674.38s28.307-4.996 46.624-19.982c18.316-14.986 18.317-39.964 26.642-39.964 8.326 0 9.991 28.308 29.973 38.299 19.981 9.991 51.62 23.312 51.62 23.312l-154.86-1.665z" transform="matrix(.22176 -.00887 .04901 .26964 275.71 94.385)"/></g></g><path d="M380.34 293.64l5.819-4.9s7.961 6.431 23.579 6.125c14.709-.283 19.906-5.513 22.049-6.126l5.818 5.206c-3.369.919-15.311 6.737-28.785 7.35-14.087-.612-26.642-5.817-28.48-7.655z" fill-rule="evenodd" transform="matrix(.74925 0 0 .7416 106.5 70.55)" stroke="#000" stroke-width=".375" fill="#ffc200"/><path d="M426.589 289.991l-.65-1.799-.764.268-.087-.24 1.837-.645.087.24-.766.27.65 1.798-.307.108zm-5.537 1.619l-.565-2.091 1.719-.45.066.246-1.404.368.173.64 1.315-.344.066.245-1.315.345.193.712 1.46-.382.066.247-1.774.465zm-3.152.7l-.565-2.092.315-.082.565 2.092-.315.082zm-2.111.26l-.27-2.15.323-.038.238 1.895 1.203-.145.032.254-1.526.184zm-3.765.198l-.063-2.165.334-.009 1.34 1.666-.049-1.7.312-.007.062 2.165-.333.008-1.34-1.668.048 1.702-.311.008zm-3.862-.218l.225-2.154.323.034-.225 2.154-.323-.033zm-2.659-.468l.404-2.129.328.062.952 1.91.316-1.671.307.057-.404 2.129-.328-.062-.951-1.912-.317 1.673-.307-.057zm-.179-2.202l.314.082-.318 1.211c-.055.21-.126.371-.212.481a.67.67 0 0 1-.374.226c-.16.041-.356.032-.585-.028a1.306 1.306 0 0 1-.52-.244.631.631 0 0 1-.226-.372c-.027-.144-.011-.327.047-.55l.318-1.21.315.082-.318 1.21c-.048.181-.064.32-.049.417.016.096.065.18.146.25s.19.125.325.16c.232.06.409.057.532-.01.122-.067.218-.232.287-.495l.318-1.21zm-5.448-.112l.303.062a.563.563 0 0 0 .027.285.58.58 0 0 0 .196.231c.096.072.213.127.347.166.12.034.23.049.33.044s.18-.028.239-.07a.282.282 0 0 0 .116-.16.26.26 0 0 0-.02-.189.515.515 0 0 0-.18-.184 4.634 4.634 0 0 0-.394-.222 2.55 2.55 0 0 1-.423-.263.667.667 0 0 1-.202-.266.456.456 0 0 1-.012-.284.491.491 0 0 1 .18-.265.631.631 0 0 1 .355-.124c.143-.01.294.008.454.054.176.05.324.12.444.209.122.088.205.19.252.308s.056.238.028.362l-.306-.067a.434.434 0 0 0-.085-.346c-.075-.093-.203-.167-.385-.22-.19-.054-.337-.063-.441-.026-.103.036-.165.097-.189.183a.238.238 0 0 0 .043.212c.047.065.191.16.432.285.242.123.405.217.49.282a.754.754 0 0 1 .248.302c.043.104.05.212.02.324a.533.533 0 0 1-.194.283.718.718 0 0 1-.374.139 1.26 1.26 0 0 1-.478-.05 1.626 1.626 0 0 1-.518-.237.795.795 0 0 1-.274-.346.68.68 0 0 1-.029-.412zm-3.656-.679l.743-2.029.305.117-.742 2.028-.305-.116zm-2.453-1.566l1.369-1.678.65.543c.147.123.253.224.316.305a.895.895 0 0 1 .167.825 1.29 1.29 0 0 1-.25.46 1.328 1.328 0 0 1-.327.297c-.113.07-.223.117-.328.138a.855.855 0 0 1-.297.008.977.977 0 0 1-.293-.105 1.869 1.869 0 0 1-.326-.224l-.681-.569zm.411.011l.403.337c.124.103.23.174.317.213a.563.563 0 0 0 .242.054.647.647 0 0 0 .31-.096 1.17 1.17 0 0 0 .314-.282c.143-.176.221-.338.232-.486a.624.624 0 0 0-.08-.387 1.449 1.449 0 0 0-.295-.304l-.396-.331-1.047 1.282zm3.154 1.028c.123-.337.322-.56.596-.673.276-.111.575-.106.9.018.213.082.388.2.526.355s.222.33.253.524.01.393-.064.595c-.075.206-.19.372-.344.498a.954.954 0 0 1-.535.217 1.366 1.366 0 0 1-.605-.09 1.303 1.303 0 0 1-.53-.361 1.031 1.031 0 0 1-.251-.526 1.11 1.11 0 0 1 .054-.557zm.312.124c-.089.244-.085.466.012.664.098.198.26.339.485.425.23.088.444.09.644.004.2-.085.349-.258.444-.519a.983.983 0 0 0 .062-.469.72.72 0 0 0-.174-.393.892.892 0 0 0-.372-.259.89.89 0 0 0-.63-.017c-.202.071-.359.26-.47.564zm11.536 2.851c.038-.358.176-.626.415-.805.24-.18.531-.252.876-.216.225.024.424.093.595.207s.296.26.373.441c.078.18.105.377.083.592a1.147 1.147 0 0 1-.212.571.972.972 0 0 1-.466.348 1.365 1.365 0 0 1-.607.07 1.28 1.28 0 0 1-.602-.211 1.009 1.009 0 0 1-.37-.444 1.107 1.107 0 0 1-.084-.553zm.334.04c-.027.259.03.472.173.638.143.166.334.26.574.286a.835.835 0 0 0 .624-.163c.173-.135.275-.34.304-.617a.987.987 0 0 0-.055-.47.705.705 0 0 0-.263-.335.876.876 0 0 0-.424-.154.895.895 0 0 0-.614.147c-.18.12-.285.343-.32.667zm20.628-2.819l-.957-1.948.762-.364c.173-.083.309-.137.409-.161a.876.876 0 0 1 .818.192c.124.107.23.247.315.42.072.149.117.289.134.422s.013.252-.012.357a.845.845 0 0 1-.115.273.974.974 0 0 1-.216.223c-.092.072-.206.14-.339.204l-.799.382zm.18-.37l.473-.226c.146-.07.254-.137.325-.2a.555.555 0 0 0 .15-.197.645.645 0 0 0 .04-.323 1.19 1.19 0 0 0-.126-.404c-.1-.203-.215-.342-.345-.414a.624.624 0 0 0-.384-.088 1.445 1.445 0 0 0-.4.141l-.464.222.731 1.489zm-6.947 2.532l-.565-2.091 1.053-.276a1.62 1.62 0 0 1 .5-.07.565.565 0 0 1 .502.418.51.51 0 0 1-.063.418c-.082.131-.233.24-.453.327a.92.92 0 0 1 .217.054c.112.05.224.12.337.21l.567.462-.396.104-.432-.353c-.126-.102-.227-.178-.305-.23s-.144-.083-.198-.097a.505.505 0 0 0-.158-.018 1.13 1.13 0 0 0-.178.036l-.365.095.251.93-.314.082zm-.002-1.25l.677-.178c.143-.037.252-.08.327-.127a.371.371 0 0 0 .15-.174.32.32 0 0 0-.176-.416c-.099-.043-.236-.041-.412.005l-.753.197.187.692zm4.267.062l.05-2.356.325-.13 1.759 1.632-.344.138-.516-.501-.953.381v.708l-.32.128zm.319-1.087l.773-.31-.467-.46a5.547 5.547 0 0 1-.333-.35c.024.14.036.284.035.432l-.008.688zm-9.255 3.413l-.46-2.117.903-.19c.184-.038.336-.048.456-.028s.221.067.304.143a.49.49 0 0 1 .155.26c.02.09.01.18-.028.272s-.109.174-.211.247a.65.65 0 0 1 .377.122.489.489 0 0 1 .188.295c.021.1.017.197-.012.293a.548.548 0 0 1-.134.233.797.797 0 0 1-.241.161c-.1.046-.226.084-.38.116l-.917.193zm.052-1.295l.52-.11c.141-.029.24-.058.299-.087a.347.347 0 0 0 .159-.144.284.284 0 0 0 .022-.198.316.316 0 0 0-.098-.172.29.29 0 0 0-.187-.076c-.076-.005-.2.01-.373.046l-.48.101.138.64zm.213.978l.599-.125a1.75 1.75 0 0 0 .214-.056.578.578 0 0 0 .171-.097.333.333 0 0 0 .105-.331.33.33 0 0 0-.114-.191.369.369 0 0 0-.218-.082 1.33 1.33 0 0 0-.36.037l-.555.117.158.728z"/><g stroke="#000" fill="#ffc200" stroke-width=".375"><path d="M658.63 787.09v-8.59h1.136v7.577h4.231v1.013h-5.367z" transform="matrix(-1.08296 .42599 -.43619 -1.05764 1500.838 869.174)"/><path d="M636.87 787.09v-7.576h-2.83V778.5h6.809v1.014h-2.842v7.576h-1.137z" transform="matrix(-.8154 .81604 -.83558 -.79633 1640.821 410.78)"/><path d="M626 787.09v-8.59h1.166l4.512 6.745V778.5h1.089v8.59h-1.166l-4.511-6.75v6.75H626z" transform="matrix(-.83815 .79375 -.81276 -.81855 1636.852 442.249)"/><path d="M618.03 787.09v-8.59h6.211v1.014h-5.074v2.631h4.752v1.008h-4.752v2.924h5.273v1.013h-6.41zm-2.56-3.01l1.136.287c-.238.933-.668 1.646-1.289 2.138-.617.489-1.373.733-2.267.733-.926 0-1.68-.188-2.262-.563-.578-.379-1.02-.926-1.324-1.64a5.875 5.875 0 0 1-.451-2.303c0-.895.169-1.674.509-2.338a3.517 3.517 0 0 1 1.459-1.518 4.267 4.267 0 0 1 2.086-.521c.86 0 1.582.219 2.168.656.586.438.994 1.053 1.225 1.846l-1.119.264c-.2-.625-.489-1.081-.868-1.366-.378-.285-.855-.427-1.429-.427-.66 0-1.213.158-1.658.474a2.511 2.511 0 0 0-.932 1.278c-.18.531-.27 1.08-.27 1.646 0 .731.106 1.369.317 1.916.215.543.547.949.996 1.219.449.269.935.404 1.459.404.637 0 1.176-.183 1.617-.551.441-.367.74-.912.897-1.634z" transform="matrix(-.62885 .96066 -.98367 -.61415 1638.953 177.186)"/><path d="M595.47 784.08l1.136.287c-.238.933-.668 1.646-1.289 2.138-.617.489-1.373.733-2.267.733-.926 0-1.68-.188-2.262-.563-.578-.379-1.02-.926-1.324-1.64a5.875 5.875 0 0 1-.451-2.303c0-.895.17-1.674.509-2.338a3.517 3.517 0 0 1 1.459-1.518 4.27 4.27 0 0 1 2.086-.521c.86 0 1.582.219 2.168.656.586.438.994 1.053 1.225 1.846l-1.119.264c-.199-.625-.489-1.081-.867-1.366-.379-.285-.856-.427-1.43-.427-.66 0-1.213.158-1.658.474a2.511 2.511 0 0 0-.932 1.278 5.093 5.093 0 0 0-.269 1.646c0 .731.105 1.369.316 1.916.215.543.547.949.996 1.219a2.79 2.79 0 0 0 1.459.404c.637 0 1.176-.183 1.617-.551.442-.367.74-.912.897-1.634z" transform="scale(1.1675 1.1402) rotate(87.648 797.207 413.873)"/><path d="M586.2 787.09v-8.59h1.137v8.59H586.2z" transform="matrix(.07304 1.13797 -1.16521 .07134 1360.276 -474.493)"/><path d="M569.36 787.09v-8.59h6.211v1.014h-5.074v2.631h4.752v1.008h-4.752v2.924h5.273v1.013h-6.41z" transform="matrix(.32564 1.09495 -1.12117 .31803 1178.493 -645.819)"/><path d="M559.31 787.09v-8.59h1.711l2.033 6.082c.187.567.324.991.41 1.272.098-.313.25-.772.457-1.377l2.057-5.977h1.529v8.59h-1.096v-7.189l-2.496 7.189h-1.025l-2.485-7.312v7.312h-1.095z" transform="matrix(.46504 1.04585 -1.07089 .45416 1059.114 -724.611)"/><path d="M533.28 787.09v-8.59h1.137v7.577h4.23v1.013h-5.367z" transform="scale(1.1675 1.1402) rotate(34.55 1452.681 246.404)"/><path d="M521.31 787.09v-8.59h1.166l4.512 6.745V778.5h1.09v8.59h-1.166l-4.512-6.75v6.75h-1.09z" transform="matrix(1.05936 .47925 -.49073 1.03459 275.913 -876.559)"/><path d="M513.34 787.09v-8.59h6.211v1.014h-5.075v2.631h4.752v1.008h-4.752v2.924h5.274v1.013h-6.41z" transform="matrix(1.08134 .4299 -.4402 1.05605 225.006 -867.864)"/><path d="M469.77 787.09l-3.328-8.59h1.231l2.232 6.241c.18.5.33.968.451 1.406.133-.469.288-.938.463-1.406l2.321-6.241h1.16l-3.363 8.59h-1.167z" transform="matrix(1.11804 -.32835 .33622 1.0919 -408.292 -517.353)"/><path d="M460.59 787.09v-8.59h1.136v7.577h4.231v1.013h-5.367z" transform="scale(1.1675 1.1402) rotate(-29.329 -791.786 747.143)"/><path d="M444.24 784.33l1.072-.094c.051.429.168.783.352 1.06.187.274.476.496.867.668.391.168.83.252 1.318.252.434 0 .817-.064 1.149-.193s.578-.305.738-.527c.164-.227.246-.473.246-.739 0-.269-.078-.504-.234-.703-.156-.203-.414-.373-.774-.51-.23-.089-.74-.228-1.529-.416-.789-.191-1.342-.371-1.658-.539-.41-.215-.717-.48-.92-.797a1.988 1.988 0 0 1-.299-1.072c0-.433.123-.838.369-1.213.246-.379.606-.666 1.078-.861a4.098 4.098 0 0 1 1.577-.293c.636 0 1.197.103 1.681.31.489.204.864.504 1.125.903.262.398.403.849.422 1.353l-1.09.082c-.058-.543-.258-.953-.597-1.23-.336-.277-.834-.416-1.495-.416-.687 0-1.189.127-1.505.381-.313.25-.469.552-.469.908 0 .309.111.562.334.762.219.199.789.404 1.711.615.926.207 1.56.389 1.904.545.5.23.869.523 1.108.879.238.351.357.758.357 1.218 0 .458-.131.889-.393 1.295-.261.403-.638.717-1.13.944a3.956 3.956 0 0 1-1.653.334c-.777 0-1.43-.114-1.957-.34a2.765 2.765 0 0 1-1.236-1.02 2.929 2.929 0 0 1-.469-1.546z" transform="matrix(.87056 -.75974 .77793 .8502 -641.022 -127.35)"/><path d="M434.58 787.09v-8.59h1.137v7.577h4.23v1.013h-5.367z" transform="matrix(.6861 -.92253 .94462 .67006 -692.544 89.393)"/><path d="M426.64 787.09v-8.59h6.211v1.014h-5.074v2.631h4.752v1.008h-4.752v2.924h5.274v1.013h-6.411z" transform="matrix(.56496 -.99781 1.0217 .55175 -700.588 215.668)"/><path d="M415.31 787.09v-8.59h6.211v1.014h-5.075v2.631h4.752v1.008h-4.752v2.924h5.274v1.013h-6.41z" transform="matrix(.2522 -1.11328 1.13994 .2463 -661.606 508.073)"/><path d="M392.74 784.08l1.137.287c-.238.933-.668 1.646-1.289 2.138-.617.489-1.373.733-2.268.733-.926 0-1.679-.188-2.261-.563-.579-.379-1.02-.926-1.325-1.64a5.893 5.893 0 0 1-.451-2.303c0-.895.17-1.674.51-2.338a3.517 3.517 0 0 1 1.459-1.518 4.267 4.267 0 0 1 2.086-.521c.859 0 1.582.219 2.168.656.586.438.994 1.053 1.224 1.846l-1.119.264c-.199-.625-.488-1.081-.867-1.366s-.855-.427-1.43-.427c-.66 0-1.213.158-1.658.474a2.51 2.51 0 0 0-.931 1.278c-.18.531-.27 1.08-.27 1.646 0 .731.105 1.369.316 1.916.215.543.547.949.996 1.219.45.269.936.404 1.459.404.637 0 1.176-.183 1.618-.551.441-.367.74-.912.896-1.634z" transform="matrix(-.35716 -1.08554 1.11153 -.34881 -393.711 970.88)"/><path d="M383.47 787.09v-8.59h1.136v8.59h-1.136z" transform="scale(-1.1675 -1.1402) rotate(63.662 876.063 -276.057)"/><path d="M376.56 787.09v-8.59h1.136v7.577h4.231v1.013h-5.367z" transform="scale(-1.1675 -1.1402) rotate(66.795 826.949 -243.822)"/><path d="M365.57 778.5h1.137v4.963c0 .864-.098 1.549-.293 2.057s-.549.922-1.061 1.242c-.507.317-1.175.475-2.003.475-.805 0-1.463-.139-1.975-.416a2.38 2.38 0 0 1-1.096-1.201c-.219-.528-.328-1.247-.328-2.157V778.5h1.137v4.957c0 .747.068 1.297.205 1.653a1.6 1.6 0 0 0 .715.814c.34.192.754.287 1.242.287.836 0 1.432-.189 1.787-.568s.533-1.107.533-2.186V778.5z" transform="matrix(-.75872 -.8666 .88736 -.74098 -66.568 1196.981)"/><path d="M343.95 787.09v-8.59h6.211v1.014h-5.074v2.631h4.752v1.008h-4.752v2.924h5.273v1.013h-6.41z" transform="matrix(-.9157 -.70733 .72427 -.89428 116.802 1259.806)"/><path d="M649.73 787.09l3.299-8.59h1.225l3.515 8.59h-1.295l-1.001-2.601h-3.592l-.944 2.601h-1.207zm2.479-3.527h2.912l-.897-2.379a23.793 23.793 0 0 1-.609-1.781 10.918 10.918 0 0 1-.463 1.64l-.943 2.52z" transform="matrix(-1.00218 .5849 -.5989 -.97875 1576.492 702.02)"/><path d="M642.03 787.09v-8.59h3.809c.765 0 1.348.079 1.746.235.398.152.717.424.955.814.238.391.357.823.357 1.295 0 .61-.197 1.123-.591 1.541-.395.418-1.004.684-1.828.797.3.145.529.287.685.428.332.304.647.685.943 1.142l1.495 2.338h-1.43l-1.137-1.787c-.332-.515-.605-.91-.82-1.183-.215-.274-.408-.465-.58-.575a1.679 1.679 0 0 0-.516-.228 3.36 3.36 0 0 0-.633-.041h-1.318v3.814h-1.137zm1.137-4.799h2.443c.52 0 .926-.052 1.219-.158.293-.109.516-.281.668-.515.152-.239.229-.496.229-.774 0-.406-.149-.74-.446-1.002-.293-.261-.758-.392-1.394-.392h-2.719v2.841z" transform="matrix(-.88793 .74032 -.75805 -.86717 1627.979 513.774)"/><path d="M597.06 787.09l3.299-8.59h1.225l3.515 8.59h-1.294l-1.002-2.601h-3.592l-.944 2.601h-1.207zm2.479-3.527h2.912l-.896-2.379a23.418 23.418 0 0 1-.61-1.781 10.802 10.802 0 0 1-.463 1.64l-.943 2.52z" transform="matrix(-.35608 1.08587 -1.11187 -.34776 1573.58 -113.237)"/><path d="M577.36 787.09v-8.59h3.809c.766 0 1.348.079 1.746.235.398.152.717.424.955.814.238.391.358.823.358 1.295 0 .61-.198 1.123-.592 1.541-.395.418-1.004.684-1.828.797.3.145.529.287.685.428.332.304.647.685.944 1.142l1.494 2.338h-1.43l-1.137-1.787c-.332-.515-.605-.91-.82-1.183-.215-.274-.408-.465-.58-.575a1.679 1.679 0 0 0-.516-.228 3.36 3.36 0 0 0-.633-.041h-1.318v3.814h-1.137zm1.137-4.799h2.443c.52 0 .926-.052 1.219-.158.293-.109.516-.281.668-.515.152-.239.229-.496.229-.774 0-.406-.149-.74-.446-1.002-.293-.261-.757-.392-1.394-.392h-2.719v2.841z" transform="matrix(.10663 1.13543 -1.16262 .10413 1337.968 -500.334)"/><path d="M550.39 787.09l3.299-8.59h1.225l3.516 8.59h-1.295l-1.002-2.601h-3.592l-.943 2.601h-1.208zm2.479-3.527h2.912l-.896-2.379a23.418 23.418 0 0 1-.61-1.781 10.802 10.802 0 0 1-.463 1.64l-.943 2.52z" transform="matrix(.67486 .93041 -.9527 .65908 848.147 -821.674)"/><path d="M539.06 787.09l3.298-8.59h1.225l3.516 8.59h-1.295l-1.002-2.601h-3.592l-.943 2.601h-1.207zm2.478-3.527h2.912l-.896-2.379a23.418 23.418 0 0 1-.61-1.781 10.802 10.802 0 0 1-.463 1.64l-.943 2.52z" transform="matrix(.85284 .77869 -.79733 .8329 626.777 -877.396)"/><path d="M501.34 787.09v-8.59h3.808c.766 0 1.348.079 1.746.235.399.152.717.424.956.814.238.391.357.823.357 1.295 0 .61-.197 1.123-.592 1.541-.394.418-1.004.684-1.828.797.301.145.529.287.686.428.332.304.646.685.943 1.142l1.494 2.338h-1.43l-1.136-1.787c-.332-.515-.606-.91-.821-1.183-.214-.274-.408-.465-.58-.575a1.684 1.684 0 0 0-.515-.228 3.36 3.36 0 0 0-.633-.041h-1.318v3.814h-1.137zm1.137-4.799h2.443c.519 0 .926-.052 1.219-.158.293-.109.515-.281.668-.515.152-.239.228-.496.228-.774 0-.406-.148-.74-.445-1.002-.293-.261-.758-.392-1.395-.392h-2.718v2.841z" transform="scale(1.1675 1.1402) rotate(5.699 6740.25 -982.057)"/><path d="M491.64 782.91c0-1.426.382-2.541 1.148-3.346.766-.809 1.754-1.213 2.965-1.213.793 0 1.508.19 2.144.568a3.692 3.692 0 0 1 1.453 1.588c.336.676.504 1.444.504 2.303 0 .871-.175 1.65-.527 2.338a3.622 3.622 0 0 1-1.494 1.564 4.285 4.285 0 0 1-2.086.528c-.809 0-1.531-.196-2.168-.586-.637-.391-1.119-.924-1.447-1.6s-.492-1.39-.492-2.144zm1.171.017c0 1.035.278 1.852.832 2.449.559.594 1.258.891 2.098.891.856 0 1.559-.301 2.109-.902.555-.602.833-1.455.833-2.561 0-.699-.12-1.308-.358-1.828a2.679 2.679 0 0 0-1.037-1.213 2.783 2.783 0 0 0-1.529-.433c-.805 0-1.498.277-2.08.832-.579.55-.868 1.472-.868 2.765z" transform="scale(1.1675 1.1402) rotate(5.699 6736.331 -990.974)"/><path d="M483.32 787.09v-8.59h2.959c.668 0 1.178.041 1.53.123.492.114.912.319 1.259.616.453.383.791.873 1.014 1.47.227.594.34 1.274.34 2.039 0 .653-.076 1.231-.229 1.735-.152.504-.347.922-.586 1.254-.238.328-.5.588-.785.779-.281.188-.623.33-1.025.428a5.858 5.858 0 0 1-1.377.146h-3.1zm1.137-1.013h1.834c.566 0 1.01-.053 1.33-.159.324-.105.582-.254.773-.445.27-.269.479-.631.627-1.084.153-.457.229-1.01.229-1.658 0-.899-.149-1.588-.445-2.068-.293-.485-.651-.809-1.073-.973-.304-.117-.795-.176-1.47-.176h-1.805v6.563z" transform="matrix(1.14622 -.2167 .2219 1.11941 -332.137 -593.612)"/><path d="M474.37 787.09l3.299-8.59h1.224l3.516 8.59h-1.295l-1.002-2.601h-3.592l-.943 2.601h-1.207zm2.478-3.527h2.913l-.897-2.379a23.793 23.793 0 0 1-.609-1.781c-.11.551-.264 1.097-.463 1.64l-.944 2.52z" transform="matrix(1.13726 -.2578 .26398 1.11067 -360.549 -566.525)"/><path d="M451.69 787.09l3.299-8.59h1.225l3.515 8.59h-1.295l-1.001-2.601h-3.592l-.944 2.601h-1.207zm2.479-3.527h2.912l-.897-2.379a23.793 23.793 0 0 1-.609-1.781 10.918 10.918 0 0 1-.463 1.64l-.943 2.52z" transform="matrix(.97685 -.62444 .6394 .954 -579.997 -270.65)"/><path d="M406.62 787.09v-8.59h2.959c.668 0 1.178.041 1.529.123a2.91 2.91 0 0 1 1.26.616c.453.383.791.873 1.014 1.47.226.594.34 1.274.34 2.039 0 .653-.076 1.231-.229 1.735-.152.504-.347.922-.586 1.254-.238.328-.5.588-.785.779-.281.188-.623.33-1.025.428a5.858 5.858 0 0 1-1.377.146h-3.1zm1.137-1.013h1.834c.566 0 1.01-.053 1.33-.159.324-.105.582-.254.773-.445.27-.269.479-.631.627-1.084.153-.457.229-1.01.229-1.658 0-.899-.149-1.588-.445-2.068-.293-.485-.651-.809-1.073-.973-.304-.117-.795-.176-1.47-.176h-1.805v6.563z" transform="matrix(.10762 -1.13535 1.16253 .1051 -619.251 627.797)"/><path d="M394.34 787.09l3.299-8.59h1.224l3.516 8.59h-1.295l-1.002-2.601h-3.592l-.943 2.601h-1.207zm2.478-3.527h2.913l-.897-2.379a23.342 23.342 0 0 1-.609-1.781c-.11.551-.264 1.097-.463 1.64l-.944 2.52z" transform="matrix(-.08715 -1.13702 1.16424 -.08511 -541.625 783.773)"/><path d="M368.55 787.09v-8.59h3.222c.657 0 1.182.088 1.576.264.399.172.709.44.932.803.227.359.34.736.34 1.131 0 .367-.1.713-.299 1.037s-.5.586-.902.785c.519.152.918.412 1.195.779.281.367.422.801.422 1.301 0 .402-.086.777-.258 1.125-.168.344-.377.609-.627.797-.25.187-.564.33-.943.428-.375.093-.836.14-1.383.14h-3.275zm1.136-4.98h1.858c.504 0 .865-.033 1.084-.1.289-.086.506-.228.65-.428.149-.199.223-.449.223-.75 0-.285-.069-.535-.205-.75a1.024 1.024 0 0 0-.586-.445c-.254-.082-.69-.123-1.307-.123h-1.717v2.596zm0 3.967h2.139c.367 0 .625-.014.773-.041.262-.047.481-.125.657-.235a1.24 1.24 0 0 0 .433-.474c.114-.211.17-.454.17-.727 0-.32-.082-.598-.246-.832a1.279 1.279 0 0 0-.685-.498c-.289-.098-.707-.147-1.254-.147h-1.987v2.954z" transform="scale(-1.1675 -1.1402) rotate(55.095 1035.183 -378.57)"/><path d="M351.93 787.09v-8.59h3.24c.57 0 1.006.028 1.306.082.422.071.776.206 1.061.405.285.195.514.47.686.826.175.355.263.746.263 1.172 0 .73-.232 1.349-.697 1.857-.465.504-1.305.756-2.52.756h-2.203v3.492h-1.136zm1.136-4.506h2.221c.734 0 1.256-.136 1.564-.41.309-.273.463-.658.463-1.154 0-.359-.091-.666-.275-.92a1.257 1.257 0 0 0-.715-.51c-.191-.051-.545-.076-1.06-.076h-2.198v3.07z" transform="matrix(-.86945 -.76096 .77918 -.84912 57.213 1243.616)"/><path d="M335.28 787.09v-8.59h3.809c.765 0 1.348.079 1.746.235.398.152.717.424.955.814.238.391.357.823.357 1.295 0 .61-.197 1.123-.591 1.541-.395.418-1.004.684-1.828.797.3.145.529.287.685.428.332.304.647.685.943 1.142l1.495 2.338h-1.43l-1.137-1.787c-.332-.515-.605-.91-.82-1.183-.215-.274-.408-.465-.58-.575a1.679 1.679 0 0 0-.516-.228 3.36 3.36 0 0 0-.633-.041h-1.318v3.814h-1.137zm1.137-4.799h2.443c.52 0 .926-.052 1.219-.158.293-.109.516-.281.668-.515.152-.239.229-.496.229-.774 0-.406-.149-.74-.446-1.002-.293-.261-.758-.392-1.394-.392h-2.719v2.841z" transform="scale(-1.1675 -1.1402) rotate(31.15 1916.41 -931.993)"/></g></g></svg>