<svg xmlns="http://www.w3.org/2000/svg" height="512" width="512"><defs><clipPath id="a"><path fill-opacity=".67" d="M248.38 0h496.76v496.76H248.38z"/></clipPath></defs><g clip-path="url(#a)" fill-rule="evenodd" transform="translate(-256) scale(1.0307)"><path fill="#fff" d="M0 0h992.91v496.76H0z"/><path fill="#239f40" d="M0 361.35h992.16v134.98H0z"/><path fill="#cd1738" d="M0 0h992.16v134.98H0z"/><path fill="#ff0" d="M403.492 205.936l3.57 11.758 11.56-.261-9.59 7.186 3.81 11.424-9.49-7.312-9.21 7.312 3.72-11.706-9.5-6.904 11.79.083zm-11.49 50.382l3.57 11.758 11.56-.261-9.59 7.186 3.81 11.424-9.49-7.312-9.21 7.312 3.72-11.706-9.5-6.904 11.79.083zm50.381-91.482l3.57 11.758 11.56-.261-9.59 7.186 3.81 11.424-9.49-7.312-9.21 7.312 3.72-11.706-9.5-6.904 11.79.083zm52.367-13.7l3.57 11.758 11.56-.261-9.59 7.186 3.81 11.424-9.49-7.312-9.21 7.312 3.72-11.706-9.5-6.904 11.79.083zm52.82 13.7l3.57 11.758 11.56-.261-9.59 7.186 3.81 11.424-9.49-7.312-9.21 7.312 3.72-11.706-9.5-6.904 11.79.083zm38.89 41.321l3.57 11.758 11.56-.261-9.59 7.186 3.81 11.424-9.49-7.312-9.21 7.312 3.72-11.706-9.5-6.904 11.79.083zm11.27 50.161l3.57 11.758 11.56-.261-9.59 7.186 3.81 11.424-9.49-7.312-9.21 7.312 3.72-11.706-9.5-6.904 11.79.083zm-82.814-27.485c0 8.35-8.972 15.118-20.038 15.118s-20.04-6.768-20.04-15.118c0-8.349 8.973-15.117 20.04-15.117s20.038 6.768 20.038 15.117z"/><path fill="#ff0" d="M489.1 239.5h11.445v53.281H489.1z"/><path d="M595.32 288.76c-4.981 10.57-11.684 14.321-22.625 14.028-19.148.454-23.475-13.61-25.971-19.819-6.768 8.92-10.615 12.466-21.85 12.251-16.007.358-24.088-8.753-30.055-25.979-5.967 17.116-14.048 26.227-30.055 25.869-11.235.215-15.082-3.331-21.85-12.251-2.496 6.209-6.823 20.273-25.971 19.819-10.941.293-17.644-3.458-22.128-14.175 5.205 14.967 10.361 23.342 26.344 23.864 14.476.174 21.105-8.21 24.242-13.944 10.429 5.54 11.501 6.77 26.287 6.423 11.037-.355 17.377-7.566 23.089-14.427 5.712 6.861 12.052 14.072 23.089 14.427 14.786.347 15.858-.883 26.287-6.423 3.137 5.734 9.766 14.118 24.242 13.944 15.983-.522 21.139-8.897 26.925-23.607z" fill="#ff0"/><path d="M446.47 304.18l5.225 7.241 10.019-.294-7.732 8.762-15.137.387-4.735-6.342 8.743-1.413 3.671-8.32m96.446-.021l-5.225 7.241-10.019-.294 7.732 8.762 15.137.387 4.735-6.342-8.743-1.413-3.671-8.32m-60.686 4.639c0-.039 6.875.039 6.875.039l5.781-4.609 5.644 4.551 6.817.098-6.133 9.062h-12.891l-6.093-9.141zm86.97 32.27c-26.731-5.519-44.622-8.234-74.413-8.234s-47.682 2.715-74.244 8.168l-.037-11.525c26.599-5.503 44.49-8.219 74.281-8.219s47.682 2.716 74.281 8.219l.132 11.591z" fill="#ff0"/><path d="M505.31 228.88c0 3.28-4.687 5.938-10.469 5.938-5.782 0-10.469-2.659-10.469-5.938s4.687-5.938 10.469-5.938c5.782 0 10.469 2.659 10.469 5.938z" fill="#fff"/></g></svg>