<svg xmlns="http://www.w3.org/2000/svg" height="512" width="512"><defs><clipPath id="a"><path fill-opacity=".67" d="M0 0h496.06v496.06H0z"/></clipPath></defs><g clip-path="url(#a)" fill-rule="evenodd" transform="scale(1.0321)"><path fill="#fff" d="M0 0h992.13v496.06H0z"/><path fill="#94acd4" d="M0 0h992.13v171.7H0z"/><path fill="#b73000" d="M0 160.33h992.13v11.374H0z"/><path fill="#00a900" d="M0 335.73h992.13v160.33H0z"/><path fill="#b73000" d="M0 335.73h992.13v11.374H0z"/><path fill="#feffff" d="M261.108 51.041l-9.238-6.356-9.146 6.505 3.156-10.802-8.97-6.728 11.185-.325 3.59-10.667 3.765 10.602 11.195.14-8.86 6.876zm-43.57 85.724l-9.238-6.356-9.146 6.505 3.156-10.802-8.97-6.728 11.185-.325 3.59-10.667 3.765 10.602 11.195.14-8.86 6.876zm43.988 0l-9.238-6.356-9.146 6.505 3.156-10.802-8.97-6.728 11.185-.325 3.59-10.667 3.765 10.602 11.195.14-8.86 6.876zm40.642 0l-9.238-6.356-9.146 6.505 3.156-10.802-8.97-6.728 11.185-.325 3.59-10.667 3.765 10.602 11.195.14-8.86 6.876zm37.7 0l-9.238-6.356-9.146 6.505 3.156-10.802-8.97-6.728 11.185-.325 3.59-10.667 3.765 10.602 11.195.14-8.86 6.876zm-168.412 0l-9.238-6.356-9.146 6.505 3.156-10.802-8.97-6.728 11.185-.325 3.59-10.667 3.765 10.602 11.195.14-8.86 6.876zM216.7 94.22l-9.238-6.357-9.146 6.505 3.156-10.802-8.97-6.728 11.185-.325 3.59-10.667 3.765 10.602 11.195.14-8.86 6.876zm44.408 0l-9.238-6.357-9.146 6.505 3.156-10.802-8.97-6.728 11.185-.325 3.59-10.667 3.765 10.602 11.195.14-8.86 6.876zm41.89 0l-9.238-6.357-9.146 6.505 3.156-10.802-8.97-6.728 11.185-.325 3.59-10.667 3.765 10.602 11.195.14-8.86 6.876zm36.45 0l-9.238-6.357-9.146 6.505 3.156-10.802-8.97-6.728 11.185-.325 3.59-10.667 3.765 10.602 11.195.14-8.86 6.876zm-.42-43.179l-9.238-6.356-9.146 6.505 3.156-10.802-8.97-6.728 11.185-.325 3.59-10.667 3.765 10.602 11.195.14-8.86 6.876zm-36.45 0l-9.238-6.356-9.146 6.505 3.156-10.802-8.97-6.728 11.185-.325 3.59-10.667 3.765 10.602 11.195.14-8.86 6.876z"/><path d="M142.44 25.95C93.004 12.4 61.688 47.4 62.16 78.763c.471 31.366 29.377 64.577 73.99 56.292-70.098 32.85-105.95-18.893-104.52-59.978 2.462-48.56 57.045-88.161 110.81-49.127z" fill="#fff"/></g></svg>