<svg id="_3d_grid" data-name="3d grid" xmlns="http://www.w3.org/2000/svg" viewBox="0 0 500 445.29"><defs><style>.cls-1{fill:#a00093;}.cls-2{opacity:0.1;isolation:isolate;}.cls-3{fill:#d40043;}.cls-4{fill:#ffa000;}</style></defs><title>Zeichenfläche 1</title><path id="purple" class="cls-1" d="M174.57,0a42.77,42.77,0,0,0-37.79,21.55C92.81,97.71,49.85,172,6,248a43.27,43.27,0,0,0-.28,43.54l.71,1.15h0c.44.72,1,1.58,1.44,2.3a43,43,0,0,0,35.35,18.68h77l44-76.15L276.44,43.25,288.8,21.7A43.33,43.33,0,0,1,325.29.15H174.57Z"/><path id="shadow_purple" data-name="shadow purple" class="cls-2" d="M43.24,313.38h77l44-76.15L7.89,294.85A42.91,42.91,0,0,0,43.24,313.38Z"/><path id="red" class="cls-3" d="M422,417.41h0l.86-2.87a43.73,43.73,0,0,0-4.31-32.62l-.29-.43-.14-.29L379,313.53H43.24A43.17,43.17,0,0,1,6.31,292.69L69.53,402.18,81.75,423.3a42.72,42.72,0,0,0,37.5,22H380.61a42.78,42.78,0,0,0,37.79-21.56l2.3-3.88,1-1.72A1.06,1.06,0,0,1,422,417.41Z"/><path id="shadow_red" data-name="shadow red" class="cls-2" d="M422,417.27h0l.43-1.3a43.27,43.27,0,0,0-3.88-34.05l-.29-.43-.14-.29L379,313.53H267.68c59.19,41.23,144.11,100,153.17,106.32l.71-1.15C421.71,418.13,421.85,417.7,422,417.27Z"/><path id="orange" class="cls-4" d="M494.27,249.59q-23.92-41.39-47.7-82.77a43.31,43.31,0,0,0-37.94-21.55H257.91a42.7,42.7,0,0,1,36.49,21.55l12.36,21.55L379,313.53h0l39.09,67.67h0l.14.29.29.43h0A43.5,43.5,0,0,1,421.42,419L494.7,292.12c-.14.14-.14.28-.29.43A43.6,43.6,0,0,0,494.27,249.59Z"/></svg>