<svg xmlns="http://www.w3.org/2000/svg" viewBox="0 0 549.3 494.4"><g fill-rule="evenodd" clip-rule="evenodd" fill="#FFF"><path d="M0 492.8h68.5v-10.6H11.4v-90.9H0v101.5zm184.1 1.6c25.4 0 42.3-15.4 42.3-44.9v-58.1H215v59c0 22.2-11.9 33.5-30.6 33.5-19.4 0-31-12.3-31-34.2v-58.3H142v59c0 28.6 17.1 44 42.1 44zm157.9-1.6h11.6v-40.3l42.2-61.2h-13.3L348 442l-34.2-50.7h-13.9l42.2 61.3v40.2h-.1zm104.1 0h11.7c20.7-46.1 15.6-35.1 39.7-88.8 26.3 59.1 16.5 37.1 39.4 88.8h12.3L503 390.6h-10.7l-46.2 102.2zM292.2 29.9l8.6-15c5.5-9.4 15.3-14.8 25.4-15H221.3c-10.5-.1-20.7 5.2-26.3 15-30.6 53-60.5 104.7-91 157.6-5.3 9-5.8 20.6-.2 30.3l.5.8.3.5c4.6 7.5 12.4 12.6 21.2 13.7l2.4.3 55.4.1L292.2 29.9z"/><path d="M390 280.7l-.8-1.9-28.4-49.3H127.1c-10.9 0-20.5-5.8-25.7-14.6l44 76.2 8.5 14.7c5.1 9.2 14.9 15.3 26.1 15.3h181.9c10.5.1 20.7-5.2 26.3-15l2.6-4.5h-.2l.2-.5c2.3-6.6 2-13.9-.8-20.4z"/><path d="M452.3 182.2c-11.1-19.2-22.2-38.4-33.2-57.6-5.6-9.7-15.9-15.1-26.4-15H287.8c10.2.2 20 5.5 25.4 15l8.6 15 50.3 87.1 27.2 47.1.1.2.2.3c4.4 7.7 5.3 17.2 2 25.8l51-88.3c-.1.1-.1.2-.2.3 5.1-9.1 5.4-20.4-.1-29.9z"/></g></svg>