<?xml version="1.0" encoding="utf-8"?>
<!-- Generator: Adobe Illustrator 19.1.0, SVG Export Plug-In . SVG Version: 6.00 Build 0)  -->
<svg version="1.1" xmlns="http://www.w3.org/2000/svg" xmlns:xlink="http://www.w3.org/1999/xlink" x="0px" y="0px"
	 viewBox="0 0 630.3 630.3" enable-background="new 0 0 630.3 630.3" xml:space="preserve">
<g id="background" display="none">
	<rect display="inline" fill="none" width="630.3" height="630.3"/>
</g>
<g id="closed" display="none">
	<path display="inline" fill="#F6AB36" d="M158.5,114.1c-13.9,0-27.9,0-41.8,0c-22,0-40,18-40,40v80c0,22,18,40,40,40h146.5
		c22,0,40-18,40-40v-66.7l-53.3-53.3"/>
	<path display="inline" fill="#F7CA17" d="M512.6,517.1h-396c-22,0-40-18-40-40v-270c0-22,18-40,40-40h396c22,0,40,18,40,40v270
		C552.6,499.1,534.6,517.1,512.6,517.1z"/>
</g>
<g id="opened">
	<path fill="#F6AB36" d="M158.5,114.1c-13.9,0-27.9,0-41.8,0c-22,0-40,18-40,40v80c0,22,18,40,40,40h146.5c22,0,40-18,40-40v-66.7
		l-53.3-53.3"/>
	<path fill="#F6AB36" d="M512.6,517.1h-396c-22,0-40-18-40-40v-270c0-22,18-40,40-40h396c22,0,40,18,40,40v270
		C552.6,499.1,534.6,517.1,512.6,517.1z"/>
	<path fill="#F7CA17" d="M514.6,517.1H107.3c-22,0-34.2-18.6-28.7-40l52-214c6.4-21.6,20.2-40,42.2-40h406.6c22,0,32.3,17.6,27.2,40
		l-52,214C549.5,498.7,536.6,517.1,514.6,517.1z"/>
</g>
</svg>
