<svg xmlns="http://www.w3.org/2000/svg" height="480" width="640"><defs><clipPath id="a"><path fill-opacity=".67" d="M0 0h640v480H0z"/></clipPath></defs><g fill-rule="evenodd" clip-path="url(#a)"><g stroke-width="1pt"><path d="M-160.218 33.142l.118 114.17L799.905 346.66V233.313l-960.12-200.17z" fill="#fff"/><path d="M-160.1 246.65V480h960.005v-33.325L-160.1 246.648zm960.005-13.306V-.006H-160.1v33.325l960.005 200.025z" fill="#fdd114"/><path d="M-160.1 146.713v100.004l960.314 199.96-.31-100.015-960.004-199.95z"/></g><path transform="matrix(1.1378 0 0 1.138 1.618 -513.14)" stroke="#000" stroke-width="1.562" fill="#cf1126" d="M274.57 617.61h9.54v25.46h-9.54z"/><path d="M415.12 645.68c-.24-33.566 1.125-65.845 3.766-75.002s6.556-11.06 11.416-15.608c-11.512-1.043-24.218 8.647-30.06 21.408-3.707-14.398-10.64-24.156-16.74-29.056-6.098 4.9-13.29 14.808-16.567 29.183-6.01-10.712-16.555-22.588-29.028-21.254 4.434 4.62 8.48 6.333 11.178 15.286s4.044 41.016 3.075 74.6" transform="matrix(.5185 0 0 .5925 120.52 -116.466)" stroke="#000" stroke-width="3.207" fill="#cf1126"/><path d="M414.44 641.96c-.24-33.565 1.37-62.22 3.677-71.327 2.31-9.106 5.993-10.806 11.258-14.746-11.512-1.043-22.48 1.756-28.902 17.355-3.592-14.5-10.64-21.623-16.74-26.523-6.098 4.9-13.29 12.273-16.567 26.648-7.053-15.474-16.903-18.94-29.376-17.606 5.186 4.316 9.262 5.927 11.8 14.855s2.86 37.315 1.89 70.9" transform="matrix(.5654 0 0 .711 102.41 -140.62)" stroke="#000" stroke-width="2.804" fill="#cf1126"/><path d="M343.292 329.038c-.221-5.554.54-13.013 1.803-15.896 1.263-2.883 3.024-4.988 4.802-7.432-7.624-1.099-15.376-.538-19.492 10.642-2.666-10.22-6.666-15.553-11.003-19.037-4.337 3.484-8.102 8.817-10.769 19.037-4.116-11.18-11.905-11.858-19.763-10.642 1.778 2.444 3.608 4.55 4.938 7.432 1.33 2.883 2.162 10.342 1.939 15.896m19.64-195.758v22.9h8.085v-22.9h-8.085z" stroke="#000" stroke-width="1.777" fill="#cf1126"/><path opacity=".99" stroke-linejoin="bevel" d="M371.514 415.75c2 1.336 9.979 2.737 24.441.22 25.25-4.422 25.039-29.329 64.367-17.775-1.778-3.555-7.999-14.44-23.33-14.881 1.555-5.112 2.665-12.663-.223-17.334-2.962 6.59-7.549 9.655-10.875 11.81-1.024-.555-6.968-5.411-7.612-12.727-.893-14.505-7.97-17.064-8.723-16.68-4.543-.129-31.902 43.122-90.489 43.406-57.726.277-86.614-43.023-89.877-43.407-.752-.383-7.83 2.176-8.723 16.68-.644 7.317-6.657 11.96-7.667 12.607-3.312-2.062-7.857-5.098-10.82-11.69-2.888 4.672-1.778 12.223-.222 17.335-15.331.44-21.552 11.326-23.33 14.881 39.328-11.554 39.407 13.353 64.656 17.775 14.462 2.517 21.96 1.337 23.961.007" stroke="#000" stroke-width="1.777" fill="#cf1126"/><path opacity=".99" stroke-linejoin="bevel" d="M249.5 403.307c-13.698-.547-40.42-21.38-36.627-25.667 1.203-1.216 7.09.036 17.283 7.167 15.126 10.31 28.105 42.816 88.79 42.568 61.842-.25 74.533-32.259 89.656-42.568 10.193-7.131 16.552-8.269 17.27-6.875 3.64 4.11-23.108 24.892-36.805 25.44" stroke="#000" stroke-width="1.777" fill="#cf1126"/><path d="M230.741 193.03c-54.114 57.012-25.004 187.96 87.467 189.852 113.078 1.267 146.061-131.009 89.878-190.1m-166.388 2.206c-28.789 48.475 1.14 133.412 78.124 133.412 77.62 0 106.067-85.554 77.556-133.703" stroke="#000" stroke-width="1.777" fill="#cf1126"/><path d="M339.548 399.678c3.935.874 7.525 4.937 6.08 9.113-1.606 4.98-7.532 6.19-9.772 5.826-2.41-1.446-.965-3.533 6.424-4.337 4.817-1.768.43-5.026-3.212-6.586-1.98-.85-1.367-4.426.48-4.016zm-12.203-1.283c1.83-2.082 3.316 4.298 3.722 8.72.533 4.32.59 9.647-1.152 9.91-1.062.18-.17-4.958-1.268-9.67-1.432-5.458-2.05-8.045-1.302-8.96z" stroke="#cf1126" stroke-width=".266" fill="#fdd114"/><path d="M323.143 406.264c4.594 4.452-3.187 17.347-20.21 11.726-.965-1.767 6.76-.02 12.204-.964 10.36-1.636 5.916-12.737 8.006-10.762z" stroke="#cb4f46" stroke-width=".266" fill="#fdd114"/><path d="M314.814 397.426c1.83-2.08.764 4.507 1.145 8.934.372 4.16-.093 9.22-2.066 8.565-1.07-.515.683-5.186-.414-9.577-1.176-5.52-.055-6.525 1.334-7.922zm-11.684-1.768c3.25-.02 2.378.89 2.147 9.57-.254 9.723-8.466 10.81-10.418 8.143-1.64-2.092-1.04-2.722-8.38-2.02-1.64-.828-1.578-2.587-6.94-2.137-1.386.256-1.34-2.374-3.84-3.945-4.362-2.606-5.814 1.92-14.13-2.87-.52-.29-3.893-2.428-3.276-6.655.642-5.34-4.228.653-9.58-1.678-1.036-.462-4.173-1.767-6.94-4.196-3.907-3.36.184-4.04 5.462-.615 3.26 2.067 8.047-2.69 8.176-7.448.292-5.037-2.214-6.36 1.67-6.237 2.166.065 1.65 8.8-2.03 12.668-4.925 5.323-1.6 4.297.158 4.03 1.834-.46 10.178-10.8 11.57-9.912 2.166 1.473-6.506 8.083-4.564 14.34.928 2.79 6.097 5.46 10.353 5.894 5.003.833 5.017-5.962 7.045-4.675 2.807 1.842-5.363 5.31 3.215 7.838 1.894.568 2.99-4.257 4.11-4.047 2.69.44-1.76 5.634 3.053 6.46 3.355.558 2.436-4.85 4.516-4.522 2.406-.154.147 8.653 6.82 7.755 2.812-.37-1.588-15.722 1.8-15.742z" stroke="#cf1126" stroke-width=".266" fill="#fdd114"/><path d="M242.656 384.23c1.932-.413 5.244-2.208 5.382-5.106.276-3.173-4.14-4.278-9.383-3.45-2.76.415-7.45-1.38-10.21-3.726-2.76-3.45-2.76-7.31-6.07-5.656-2.484 1.103 3.45 7.45 6.346 8.97 2.9 1.517 7.59 1.38 7.866 3.586.276 2.208-1.104 5.657 6.07 5.38zm117.414 14.806c-1.066.516-1.93 10.158 4.09 10.366 7.564.27 11.367-3.565 13.262-4.928 3.146-2.392 8.817-7.17 6.192-11.293-1.313-1.495-2.04 2.754-3.553 5.24-2.06 3.648-9.114 7.975-14.518 7.385-6.62-.407-4.125-7.114-5.472-6.77z" stroke="#cf1126" stroke-width=".266" fill="#fdd114"/><path d="M375.615 394.57c-1.54-1.165 3.422-3.07 3.935-4.87.515-1.8-2.19-3.496-.687-5.468 1.578-2.597 1.664 4.895 3.67 5.11 5.55.58 1.587 4.165-.507 3.472-2.37-.707-5.482 2.63-6.41 1.755zm-4.298-11.345c-.357 2.5 1.16 3.126 1.61 1.697.534-2.68-.985-3.93-1.61-1.697z" stroke="#cf1126" stroke-width=".266" fill="#fdd114"/><path d="M375.337 380.634c-.894.07-1.018 3.173.145 3.26 1.256.098.676 2.216 1.73 2.188 1.254-.033 1.35-3.552-.07-3.585-1.32-.033-1.007-1.85-1.805-1.863zm10.049-.594c-1.062 1.344-3.078-5.178 3.704-6.11 3.224.283 5.974 5.593 5.69 10.713-.108 1.894-.19 6.164-1.232 8.25-.855 1.992-3.983 8.536-5.5 7.967-1.517-.57.397-3.31 2.94-7.113 2.055-3.114 2.845-11.76 1.8-13.276s-2.092 3.795-4.266 4.933c-1.808.948-3.697-1.795-3.982-3.122-.225-1.573 1.21-2.54 2.18-.67.775 1.405 3.156-1.384 3.1-3.377.063-3.223-2.074-.667-4.434 1.807zM400 365.488c-.855 1.233-3.793 3.983-4.362 5.12s-.665 3.13.283 5.027c.95 1.896 2.94 4.93 2.562 7.68-.38 2.75-2.276 8.44-1.233 7.966 1.042-.474 3.602-6.07 3.033-10.336-.57-4.267-2.56-6.637-2.18-8.06.377-1.42 2.748-4.076 3.223-5.878.474-1.803-.285-6.638-.948-7.017s-3.034.473-2.276 2.085c.76 1.612 2.37.663 1.897 3.413z" stroke="#cf1126" stroke-width=".266" fill="#fdd114"/><path d="M403.897 367.69c-1.065.97-.535 6.253.93 4.367 1.33-1.838-.078-5.23-.93-4.366z" stroke="#cf1126" stroke-width=".251" fill="#fdd114"/><path d="M376.027 406.918c-.5 2.312 1.778 3.044 2.404 1.723.75-2.476-1.53-3.786-2.403-1.722z" stroke="#cf1126" stroke-width=".303" fill="#fdd114"/><path d="M379.514 404.957c-.74 1.897 2.56 2.063 3.488.98 1.11-2.034-2.193-2.674-3.488-.98z" stroke="#cf1126" stroke-width=".334" fill="#fdd114"/><path d="M242.244 377.607c-1.765-.79-1.655 2.76-.826 3.725.826.966 5.64-1.51.826-3.725z" stroke="#cf1126" stroke-width=".266" fill="#cf1126"/><path d="M320.151 182.701c-17.736 3.55-29.914 13.946-24.204 17.482 3.496 2.33 19.917-4.072 23.382-9.508 6.299 9.615 23.391 13.242 27.52 11.086" stroke="#000" stroke-linecap="round" stroke-width="1.777" fill="#cf1126"/><path d="M228.173 177.083c2.944 4.55 18.196 15.52 29.166 16.324 10.97.803 35.855 5.887 40.672 3.746 4.816-2.14 18.463-11.507 21.94-9.9 3.48 1.605 23.816 12.844 31.308 12.576 7.493-.268 55.925-13.916 57.53-16.592 1.606-2.676-9.633-9.634-16.857-9.634-7.225 0-163.76 3.747-163.76 3.48z" fill="#cf1126"/><path d="M270.772 199.09c.088 2.734 2.19 4.711 7.233 4.763 8.468.177 22.793-3.828 31.348-13.443" stroke="#000" stroke-linecap="round" stroke-width="1.777" fill="#cf1126"/><path d="M245.368 195.03c-.44 2.294 3.353 5.293 10.762 5.38s33.255-3.086 41.546-11.73" stroke="#000" stroke-linecap="round" stroke-width="1.777" fill="#cf1126"/><path d="M227.87 188.083c-3.97 5.116 8.678 6.95 16.263 6.861 7.587-.088 27.165-.19 35.934-6.716" stroke="#000" stroke-linecap="round" stroke-width="1.777" fill="#cf1126"/><path d="M214.013 179.502c-3.793 5.028 8.952 9.444 24.477 9.091 14.29-.353 28.845-5.293 28.845-5.293m100.332 15.79c-.088 2.734-2.19 4.711-7.233 4.763-8.468.177-22.792-3.828-31.348-13.443" stroke="#000" stroke-linecap="round" stroke-width="1.777" fill="#cf1126"/><path d="M393.071 195.03c.441 2.294-3.352 5.293-10.761 5.38s-33.255-3.086-41.547-11.73" stroke="#000" stroke-linecap="round" stroke-width="1.777" fill="#cf1126"/><path d="M410.455 188.19c3.97 5.116-8.566 6.838-16.152 6.75-7.586-.089-27.164-.19-35.933-6.717" stroke="#000" stroke-linecap="round" stroke-width="1.777" fill="#cf1126"/><path d="M424.47 179.416c3.792 5.028-8.995 9.53-24.52 9.178-14.29-.353-28.846-5.293-28.846-5.293" stroke="#000" stroke-linecap="round" stroke-width="1.777" fill="#cf1126"/><path d="M244.472 179.032c-19.72 2.848-28.802 1.397-32.738-.485-4.916-2.163-13.336-8.752-.9-8.99 8.241-.162 12.394.468 21.762.419 23.965-.3 58.558-19.223 69.046-19.3 9.74-.072 12.326 4.431 17.88 4.523 5.686.065 7.527-4.596 17.268-4.524 10.487.078 45.08 19 69.045 19.3 9.368.05 13.521-.58 21.762-.42 12.435.24 4.017 6.828-.9 8.992-3.936 1.881-13.019 3.332-32.738.485" stroke="#000" stroke-linecap="round" stroke-width="1.777" fill="#cf1126"/><path d="M319.154 108.244c-9.277.466-22.046-1.119-26.146 9.227-6.245 11.836-4.484 25.253-1.678 25.536 5.023.555 5.5-13.4 7.643-13.42 2.238-.026 2.236 12.115 6.617 12.022 3.262-.092 5.312-12.209 6.337-12.115s3.17 11.649 7.295 11.649c4.406 0 6.27-11.556 7.295-11.65s3.076 12.024 6.338 12.116c4.38.094 4.378-12.048 6.617-12.023 2.142.022 3.086 13.883 8.109 13.329 2.806-.283 4.194-13.607-2.05-25.443-4.1-10.346-17.15-8.761-26.376-9.227z" stroke="#000" stroke-width="1.777" fill="#cf1126"/><path d="M296.878 112.482c2.492 4.185 21.924 4.086 23.02 4.086s18.039.199 22.024-3.886m-26.273-43.849v41.261s.223 2.304 3.643 2.379 3.939-1.933 3.939-2.23l-.148-41.484" stroke="#000" stroke-width="1.777" fill="#cf1126"/><path d="M319.652 73.618c15.545-.796 20.18 8.372 24.565 10.365s6.377 2.79 12.357 2.39c5.98-.397-10.364 9.967-10.364 10.365l5.98 10.762c-5.582.797-16.15-4.354-20.33-7.174-4.728-2.792-9.964-1.196-11.957-1.595l-.25-25.113z" stroke="#000" stroke-width="1.777" fill="#cf1126"/><path d="M313.4 264.67c0 4.333-3.893 7.85-8.69 7.85-4.796 0-8.69-3.517-8.69-7.85 0-4.332 3.894-7.848 8.69-7.848 4.797 0 8.69 3.516 8.69 7.848z" transform="matrix(1.0322 0 0 1.092 4.814 -227.95)" stroke="#000" stroke-width="1.674" fill="#cf1126"/><g stroke="#cf1126" stroke-width=".375" fill="#fdd114"><path d="M223.22 265.999c-1.184 1.656-2.206-2.702-6.275.355-2.296 1.961-3.214 4.967-3.199 11.248.015 5.327 3.08 8.883 4.857 8.527 2.723-.355 1.3-6.868 4.262-8.052 4.263-2.013 10.302 1.065 11.369 4.973s-2.014 8.17-5.33 7.697c-1.895-.71 1.067-3.434 1.303-4.618.237-1.184.591-5.092-2.25-6.157-2.842-1.066-2.368 2.842-2.486 3.908-.118 1.065-2.132 4.38-4.381 4.261-2.25-.118-5.826-.106-9.356-3.907-1.871-1.95-4.145-7.223-2.13-13.855 2.012-6.631 5.446-7.224 7.341-7.342 1.894-.118 6.75 1.066 6.276 2.96zm-4.856 27.594c-1.976-1.056.743-4.903-4.38-3.552-2.063.574 3.078 6.512 5.327 6.75 2.488-.238 1.794-1.852-.947-3.198zm5.447 3.2c1.065 4.854 2.074 4.443 2.25 6.867.087 3.097-5.212 1.776-5.922 3.196-.711 1.422-1.657 5.093 1.776 5.33 3.434.236 8.363-1.084 9.355 1.302 2.675 6.714 8.377 5.74 11.037 4.696 3.007-1.204 10.085-7.582 11.7-8.13 2.402-.88-2.25-2.605-4.974-.237-.71.711-6.631 6.75-9.71 6.868-2.249.25-5.733-5.451-5.565-7.46.236-1.422 5.417-.25 6.157-3.198.55-2.106.591-4.382-1.067-4.5-1.656-.118-9.472.947-9.71-.236-1.421-3.434 1.423-4.855.356-5.802-1.184-.474-5.565-1.185-5.683 1.302zm26.328 18.826c-2.506 2.624-9.1 6.826-9.1 9.794 0 1.682 1.84 4.32 3.362 4.946 2.272.896 5.757.672 8.408-1.384 2.999-2.436 4.348-4.906 3.068-5.342-4.535-1.296-4.65 4.954-6.826 5.144-2.08.173-5.243-3.166-1.088-7.321 4.154-4.154 9.892-8.31 9.694-9.497-.198-1.186-5.72 1.849-7.518 3.662zm-10.784 17.407c-.185 1.67 4.254 1.681 5.045.197.593-1.088-4.847-1.879-5.045-.197zm14.951 1.103c-2.505 2.623.297 5.607 2.211 8.052 1.06 1.307 3.494 2.58 5.017 3.207 2.272.894 6.801.583 9.452-1.472 2.999-2.436 3.235-6.714 1.415-6.734-4.707-.053-1.43 6.26-3.607 6.448-2.08.174-7.911-1.14-10.747-7.147-1.62-3.54 2.988-4.216 2.298-5.754-.702-1.653-4.24 1.587-6.038 3.4z" stroke-width=".267"/><path d="M266.556 333.951c.975 1.37 4.294-1.578 3.896-3.212-.282-1.207-4.868 1.826-3.896 3.212zm6.605 12.433c-.135 1.926.435 4.525-1.827 4.613-2.263.086-5.134-2.96-7.397-2.873-2.262.088-3.22 1.827-2.959 2.786.261.957 4.177 2.088 10.878 1.653s5.22 3.655 9.919 3.306c4.7-.348 5.396-1.914 5.048-2.958-.348-1.045-4.351-.348-5.83-.609-1.48-.262-4.09-2.61-4.438-4.612-.349-2.002-.349-5.451 1.392-5.482 3.22-.057 1.733 2.926 1.856 3.972.11.927 1.162 1.887 2.583.204 1.886-2.232.87-5.743-.957-6.96s-7.927 2.275-8.267 6.96zm16.616.349c-.342 3.45-2.812 3.701-2.524 4.96.358 1.446 1.252 1.9 1.827 5.482.328 1.766 2.525 2.514 5.31 2.35 2.275-.062 3.832-3.145 5.307-3.046 2.087.112.348 4.835 5.222 4.787 3.915-.038 4.873-3.395 6.265-3.482 1.392-.088 1.218 3.915 4.438 3.915 3.22 0 4.612-3.654 6.091-3.74 1.567.086 1.567 3.915 6.352 3.654 4.787-.262 8.355-.957 9.486-1.914 1.13-.958 1.654-4.09 3.22-4.265 1.566-.173 4.003 2.958 6.178 2.958s6.7-5.48 8.092-5.567c1.393-.088 2.524 3.393 5.657 3.393 4.873-.087 5.443-6.423 7.712-6.722 4.091-.398 4.252-2.067 4.47-2.503.436-1.218-.03-6.93-.96-9.54-.451-1.377-5.652-12.998-8.001-13.26-2.35-.26-1.654 3.134-.262 5.135 1.394 2.002 8.528 11.312 7.571 14.01-.957 2.698-6.004-1.13-10.007-1.13-5.569 0-8.952 11.258-12.879 11.66-1.724.185-3.567-1.48-2.957-2.699 1.13-1.739 2.435-5.915-1.915-5.306-4.352.608-8.788 2.609-8.093 4.96.697 2.349 3.306 4.7.435 5.655s-7.831 1.22-10.268.436c-2.437-.784-.958-6.266-2.437-6.266-1.653 0-1.74 6.44-4.09 6.613-2.348.173-4.437-.784-4.96-2.611-.522-1.827.871-4.09-.696-4.352-1.566-.26-3.133 7.224-5.482 7.05s-2.436-.696-3.828-2.176c-1.393-1.48 1.217-6.526-1.13-6.961-2.352-.435-4.7 7.484-6.267 7.397-1.568-.087-3.918-.174-4.613-1.74-.348-.784-.25-5.683-.173-7.67-.044-.94-2.263-.527-2.09.533zm79.099-21.323c4.287 6.491 8.15 15.272 10.53 15.75 1.583.232-4.961-11.746-7.136-14.445-1.828-2.784-7.082-6.964-3.394-1.305z" stroke-width=".267"/><path d="M342.16 613.74c-1.144 2.287-.735 4.493 1.225 4.166s4.492-4.166 3.84-4.9-3.513-1.39-5.065.734z" transform="matrix(.5597 0 0 .689 97.875 -81.5)"/><path d="M381.475 328.29c-.014 3.519 2.478 7.5 7.117 7.25 4.639-.25 9.725-5.38 10.101-10.646s-6.123-9.132-7.753-8.003c-1.63 1.128.612 5.055 4.776 5.297 1.782.108 1.2 3.595-2.217 6.354-3.58 2.83-8.88 2.776-10.175.823-1.003-2.758-1.915-2.778-1.85-1.076z" stroke-width=".267"/><path d="M384.27 317.624c-.68 1.394.735 4.608 2.269 4.466 1.555-.152-1.772-5.388-2.27-4.466zm13.615-2.495c.903 2.088 1.976 5.271 3.88 5.271s3.44.512 3.44 2.123-4.962 6.972-5.124 8.786c-.277 3.092 1.977 2.93 3.074 1.244 1.098-1.683 4.067-9.603 4.686-11.788.269-1.726 2.403-4.97 2.488-8.347-.135-3.806 3.368-.73 5.053-.583 1.543.067 3.22-2.783 3.441-4.833.22-2.05-1.611-2.416-1.611-4.246 0-1.025 1.958-4.32 2.05-6.516.218-1.943-3.807-7.541-5.49-7.468-1.392.073-.221 2.123.585 3.002.804.879 2.854 2.709 2.123 4.32-1.319 3.148-7.762 3.952-8.054 7.321-.293 2.416.292 10.03-1.685 10.03s-3.594-4.756-6.662-4.76c-3.44-.092-2.908 4.853-2.196 6.444zm5.055-28.917c.095 1.356 2.93 7.248 4.612 7.248 2.416 0-1.098-2.781-.879-3.806s3.682-2.57 2.27-2.93c-2.523-.772-6.128-2.303-6.002-.512zm-.22-7.614c.511 1.903 8.345 4.758 11.713 5.71s7.468 4.979 9.006 3.66c1.538-1.317-10.322-6.002-12.08-6.661s-9.005-4.613-8.639-2.71zm23.647 12.3c2.93.072 1.318-5.711.586-7.103-.733-1.39-1.83 2.636-1.684 3.808.146 1.171.22 3.221 1.098 3.295zm-17.056-28.774c-.025 1.31 8.09.38 11.86 1.39 1.627.456 7.174 3.442 8.2 2.71 1.171-1.538-7.541-4.833-12.52-4.833-1.611.025-7.512-.812-7.54.733zm-2.126 3.733c-1.453 1.555 4.894 3.294 10.542 3.513 5.627.22 9.272 3.6 8.786 6.077-.805 4.174-7.834 1.463-6.955 3.733.512 1.758 3.603 1.113 3.953 3.003.242 1.904 2.226 2.24 2.12-.109-.01-1.867 4.359-4.943 4.25-5.821-.22-1.756-2.855-7.907-9.591-8.566-6.735-.659-11.251-3.904-13.105-1.83z" stroke-width=".267"/></g><path d="M227.17 306.975c-.902-.522-4.12 2.37-2.966 3.017 2.19 1.24 4.34-2.25 2.967-3.017zm6.914-3.439c-1.563-.195-2.318 3.124-1.01 3.32 3.322.46 3.977-2.96 1.01-3.32zm168.506 9.311c-.74-.004-3.076 1.025-2.27 2.636.806 1.61 3.117 1.65 4.174.733.942-.892.73-3.354-1.904-3.37zm9.152-7.035c.237 1.772 1.532 1.485 2.562 1.098 1.172-.512 1.514-2.06.367-2.635-1.195-.598-3.17.273-2.928 1.537zm-52.907 41.418c-1.578 3.485-.22 6.893 2.297 6.237s5.032-5.47 3.173-7.003-4.423-1.548-5.47.766z" stroke="#cf1126" stroke-width=".088" fill="#cf1126"/><g fill="#cf1126"><path d="M146.545 202.67c-5.87-.535-19.21-3.204-19.745-.535-.533 2.668 7.205 33.89 11.207 37.89 4.002 4.004 22.68 12.543 24.548 11.476 1.867-1.067-3.736-20.546-5.87-24.015-2.135-3.47-8.54-16.01-8.005-16.544.533-.532-2.402-8.27-2.135-8.27z"/><path d="M134.792 201.565c1.43-7.51 10.163 1.479 9.298 11.262-.427 3.32 1.43 6.977 3.219 8.765" stroke="#000" stroke-width="1.777"/><path d="M142.3 201.92l-.327.437c4.38-7.411 8.614 3.14 9.268 15.3m-24-16.895c-.253-6.07 9.605-7.813 8.994 14.127 4.299 2.782 9.357 13.402 9.61 17.196 3.226.759 8.598 4.726 9.906 8.013" stroke="#000" stroke-width="1.777"/><path d="M151.415 322.335c.46-16.705.724-52.476-1.025-56.356-3.076-7.184-18.55-15.513-23.266-26.806-4.72-11.948-8.745-39.2-6.828-42.486 2.51-4.735 10.875 5.816 8.599 17.45 10.116 11.886 7.99 18.966 9.861 20.484 6.24 4.804 15.764 8.092 17.45 12.391 3.467 7.69-.758-10.875-3.541-14.668-2.78-3.793-7.587-12.138-4.298-14.16 3.287-2.024 9.103 3.287 9.861 4.804s8.6 10.116 10.875 12.139c4.046 3.035 14.266 9.819 14.062 15.633-.01 9.402.825 71.25.825 71.25m-34.46 22.345s-.063 6.724-.063 6.85c2.918 3.553 15.098 3.948 17.824 3.932 2.667-.078 14.128.128 16.791-4.249.064-.128.165-5.712.165-7.247" stroke="#000" stroke-width="1.777"/><path d="M148.983 334.424c-3.373.75-4.255 4.872-1.875 7.873 1.93 2.435 9.935 5.248 19.12 5.437 9.184.184 21.368-3 21.93-8.062.188-5.06-4.565-4.752-4.003-4.564" stroke="#000" stroke-width="1.777"/><path d="M148.983 325.115c-3.373.75-4.004 4.999-1.624 8 1.93 2.434 10.059 5.81 19.243 5.998 9.185.187 20.807-3.562 21.369-8.622.188-5.061-3.308-4.625-3.562-4.499" stroke="#000" stroke-width="1.777"/><path d="M168.102 330.299c12.183.187 20.056-5.81 20.056-8.997 0-3.186-3.936-3.374-6.374-2.437-2.436.936-6.185 3.316-14.056 3.373-8.06.245-15.183-5.623-17.62-5.436-2.437.187-4.346 2.83-3.562 5.623.965 2.77 9.56 8.248 21.556 7.872z" stroke="#000" stroke-width="1.777"/></g><g fill="#cf1126"><path d="M493.456 202.67c5.87-.535 19.21-3.204 19.745-.535.535 2.668-7.203 33.89-11.205 37.89-4.002 4.004-22.68 12.543-24.548 11.476-1.867-1.067 3.736-20.546 5.87-24.015 2.135-3.47 8.54-16.01 8.005-16.544-.533-.532 2.402-8.27 2.134-8.27z"/><path d="M505.215 201.565c-1.43-7.51-10.163 1.479-9.298 11.262.427 3.32-1.43 6.977-3.219 8.765" stroke="#000" stroke-width="1.777"/><path d="M497.707 201.92l.327.437c-4.38-7.411-8.614 3.14-9.268 15.3m24-16.895c.253-6.07-9.605-7.813-8.994 14.127-4.299 2.782-9.357 13.402-9.61 17.196-3.226.759-8.598 4.726-9.906 8.013" stroke="#000" stroke-width="1.777"/><path d="M488.592 322.335c-.46-16.705-.724-52.476 1.025-56.356 3.076-7.184 18.55-15.513 23.266-26.806 4.72-11.948 8.745-39.2 6.828-42.486-2.51-4.735-10.875 5.816-8.599 17.45-10.116 11.886-7.99 18.966-9.861 20.484-6.24 4.804-15.764 8.092-17.45 12.391-3.467 7.69.758-10.875 3.541-14.668 2.78-3.793 7.587-12.138 4.298-14.16-3.287-2.024-9.103 3.287-9.861 4.804s-8.6 10.116-10.875 12.139c-4.046 3.035-14.266 9.819-14.062 15.633.01 9.402-.825 71.25-.825 71.25m34.46 22.345s.063 6.724.063 6.85c-2.918 3.553-15.098 3.948-17.824 3.932-2.667-.078-14.128.128-16.791-4.249-.064-.128-.165-5.712-.165-7.247" stroke="#000" stroke-width="1.777"/><path d="M491.024 334.424c3.373.75 4.255 4.872 1.875 7.873-1.93 2.435-9.935 5.248-19.12 5.437-9.184.184-21.368-3-21.93-8.062-.188-5.06 4.565-4.752 4.003-4.564" stroke="#000" stroke-width="1.777"/><path d="M491.024 325.115c3.373.75 4.004 4.999 1.624 8-1.93 2.434-10.059 5.81-19.243 5.998-9.185.187-20.807-3.562-21.369-8.622-.188-5.061 3.308-4.625 3.562-4.499" stroke="#000" stroke-width="1.777"/><path d="M471.905 330.299c-12.183.187-20.056-5.81-20.056-8.997 0-3.186 3.936-3.374 6.374-2.437 2.436.936 6.185 3.316 14.056 3.373 8.06.245 15.183-5.623 17.62-5.436 2.437.187 4.346 2.83 3.562 5.623-.965 2.77-9.56 8.248-21.556 7.872z" stroke="#000" stroke-width="1.777"/></g></g></svg>