<svg xmlns="http://www.w3.org/2000/svg" height="480" width="640"><g fill-rule="evenodd" stroke-width="1pt"><path fill="#06f" d="M0 0h640v479.987H0z"/><path fill="#fff" d="M213.336 0h213.336v479.997H213.336z"/></g><path d="M312.499 360.851c3.608-3.752 22.812-9.615 36.465-10.791 11.798-.93 19.408-8.688 26.398-9.455 20.205-20.315 46.617-28.079 63.893-67.63 3.284-11.869 5.617-26.321 5.97-40.149-6.52-46.186-10.739-44.942-20.47-75.48" stroke="#000" stroke-width="1.025" fill="none"/><path d="M348.737 354.446c.352 3.407 10.76 15.973 28.738 13.764-1.607-3.468-5.512-5.957-11.114-11.177-2.563-2.642-17.752-4.198-17.623-2.587zm21.4-3.572c-2.09.183-3.95 1.427-.378 4.565 6.026 5.064 27.643 9.723 30.9 3.293-9.568-1.292-15.947-3.32-16.93-3.282-4.445-1.454-10.174-4.898-13.593-4.576z" fill-rule="evenodd" fill="#0c5c1d"/><path d="M359.355 349.327c4.36-2.998 7.738-2.75 10.558-3.343 7.224-.5 12.164.492 15.187 1.742 4.475 1.927 10.993 6.75 11.82 10.253-6.644-.126-11.047-5.14-19.6-7.04-4.365-.377-12.43-.938-17.965-1.613zm-11.541-1.31c12.6-7.754 24.546-21.97 25.77-36.825-15.734 12.313-26.404 30.093-25.77 36.825z" fill-rule="evenodd" fill="#0c5c1d"/><path d="M354.927 347.872c10.655-4.622 25.09-14.975 26.842-36.507-14.62 9.2-19.296 22.807-26.843 36.507zm22.486-10.378c-.822-6.078 13.773-37.834 22.288-46.008.93 12.225-10.957 46.557-22.287 46.008zm-.451 1.219c2.216 9.418 26.306 11.863 34.082.822-9.683-1.616-21.654-2.556-34.082-.822zm10.59-6.466c9.853 6.207 33.87 1.86 47.867-9.237-20.907-6.3-46.79 5.712-47.868 9.237zm18.988-13.577c1.565-6.845 21.83-20.36 34.903-19.612-8.304 11.27-11.15 9.34-15.476 14.34-2.956 3.707-13.27 6.43-19.426 5.27zm6.67-15.55c-7.176-2.72-5.575-23.422-.776-31.866 4.858 11.4 6.157 29.168.775 31.865zm9.893-7.648c-9.548-5.31-6.106-31.282-1.018-38.565 3.99 7.756 6.08 34.792 1.018 38.565zm3.657-.232c5.53-8.702 24.784-9.078 33.236-5.713-9.187 8.99-23.333 9.442-33.235 5.714zm5.69-5.59c-7.955-12.44-3.015-19.03 1.84-34.43 2.35 13.077.456 26.876-1.84 34.43zm10.084-27.584c1.37-11.53 11.814-16.975 23.688-20.94-2.465 8.49-7.588 17.677-23.688 20.94z" fill-rule="evenodd" fill="#0c5c1d"/><path d="M439.696 268.356c-12.43-2.13-13.01-13.985-12.748-25.582 3.545 6.388 12.046 14.614 12.748 25.582zm-3.158-20.096c2.942-7.205-2.225-26.69-14.916-33.867.202 11.93 8.324 26.756 14.916 33.867zm7.042-4.2c1.82-4.296 2.998-6.48 5.744-11.954 4.762-9.998 1.686-6.65 8.12-18.747 3.476 13.503-3.48 29.62-13.863 30.7zm.842-36.167c-8.602 4.718-17.326 1.658-29.267-7.907 9.853-.89 18.693 3.846 29.267 7.907zm-2.372-4.799c5.146-17.086 8.17-19.996 12.394-38.542-10.56 8.55-15.99 27.07-12.393 38.542zm-1.937-1.136c-11.587-8.412-14.31-17.963-27.646-21.447.282 4.777 19.455 24.717 27.646 21.448z" fill-rule="evenodd" fill="#0c5c1d"/><path d="M437.12 190.255c-7.397-9.205-11.48-16.72-22.437-23.373 1.752 11.23 14.02 27.547 22.437 23.373zm-14.026-20.532c2.35-12.846-13.558-21.37-19.075-27.955-.624 11.348 9.307 24.703 19.074 27.955z" fill-rule="evenodd" fill="#0c5c1d"/><path d="M422.996 154.94c3.69-11.574-6.68-19.416-11.843-25.318.825 11.292 2.535 22.944 11.843 25.318zm15.021 22.984c4.567-7.46 1.968-24.567-.986-31.774-3.687 3.95-5.45 30.425.987 31.774z" fill-rule="evenodd" fill="#0c5c1d"/><path d="M430.946 162.756c5.176-9.146 2.273-18.916-.763-26.11-3.35 10.68-5.776 20.956.763 26.11zm10.55 72.456c7.677-.984 13.11-16.994 7.825-31.312-4.918 12.742-4.908 18.806-7.824 31.312z" fill-rule="evenodd" fill="#0c5c1d"/><path d="M439.532 206.864c9.554.488 15.575-7.77 20.638-22.207-7.866 5.052-11.738 18.4-20.638 22.207zm6.454 32.27c-8.737 2.09-18.59-20.794-11.827-33.69 7.415 14.78 9.09 20.978 11.826 33.69zm-9.306 33.556c1.2-8.738 19.948-10.96 29.362-9.04-7.53 6.05-22.852 9.794-29.362 9.04z" fill-rule="evenodd" fill="#0c5c1d"/><path d="M432.237 286.56c5.324-4.65 13.747.365 27.255-25.983-18.172 10.366-25.154 22.437-27.255 25.982z" fill-rule="evenodd" fill="#0c5c1d"/><path d="M325.678 360.862c-2.895-4.11-18.177-8.544-31.83-9.721-11.798.496-22.616-2.27-32.458-7.315-20.207-20.315-42.697-33.784-59.97-73.334-3.285-11.87-5.265-22.76-5.618-36.584 6.52-46.187 7.175-50.642 25.107-81.18" stroke="#000" stroke-width="1.025" fill="none"/><path d="M282.22 354.723c-.352 3.407-12.274 13.957-28.738 13.764 1.608-3.468 17.8-7.182 22.206-13.446 1.304-1.885 6.662-1.928 6.533-.317zm-12.09-4.833c2.07-.347 3.195.672-.378 3.81-6.027 5.064-16.3 7.454-31.405 10.1 5.032-5.072 17.208-9.37 18.192-9.332 4.443-1.455 9.668-3.89 13.59-4.577z" fill-rule="evenodd" fill="#0c5c1d"/><path d="M278.9 349.353c-1.587-3.503-3.2-5.272-6.02-5.864-7.224-.5-12.92.743-15.187 1.74-2.458 1.424-10.237 6.5-11.063 10.002 5.887-1.638 9.786-6.147 18.34-7.29 4.11-1.387 9.908-1.192 13.93 1.41zm16.086-3.83c-12.6-7.754-20.513-17.686-21.738-32.542 15.735 12.315 22.372 25.81 21.738 32.543z" fill-rule="evenodd" fill="#0c5c1d"/><path d="M287.12 347.652c-11.916-5.126-16.268-14.723-24.573-30.46 14.87 7.438 21.06 15.247 24.573 30.46zm-26.77-5.35c2.584-10.615-1.928-26.238-9.686-33.908-.678 11.972 1.632 31.936 9.685 33.908z" fill-rule="evenodd" fill="#0c5c1d"/><path d="M256.25 339.494c-2.216 9.42-26.81 9.595-34.082.822 7.414 1.662 23.67 1.982 34.082-.822zm-6.54-7.474c-7.585 5.702-38.156-3.687-38.54-8.986 4.016-.502 37.46 5.46 38.54 8.986z" fill-rule="evenodd" fill="#0c5c1d"/><path d="M247.497 330.045c4.432-8.752-7.756-36.452-12.63-36.23 2.88 20.718 8.088 30.136 12.63 36.23zm-7.974-7.317c-2.824-6.592-24.1-17.84-34.902-19.612 8.81 9.252 14.477 7.953 17.494 13.836 2.2 3.96 11.758 4.667 17.41 5.776z" fill-rule="evenodd" fill="#0c5c1d"/><path d="M235.526 317.747c2.216-8.31 1.107-11.634-4.323-17.617-.553 8.752.556 12.187 4.323 17.617zm-7.973-9.281c5.98-3.92 2.326-23.977-2.993-29.582-1.107 14.457-2.548 27.23 2.993 29.582zm-10.639-14.988c10.304-3.546 2.325-22.712-.998-30.245-3.99 7.754 2.993 11.853.998 30.245zm-1.884 1.272c-8.553-8.2-23.775-8.83-32.227-5.464 10.194 3.445 25.854 5.66 32.226 5.464zm-8.975-18.284c-2.237-8.532-21.116-8.495-30.232-5.464 8.2 5.108 23.86 6.992 30.232 5.464z" fill-rule="evenodd" fill="#0c5c1d"/><path d="M212.003 289.86c-5.324-4.65-13.747.365-27.255-25.983 18.172 10.366 25.154 22.437 27.255 25.982z" fill-rule="evenodd" fill="#0c5c1d"/><path d="M209.842 290.178c7.956-12.437 3.015-19.03-1.84-34.428-2.35 13.077-.456 26.875 1.84 34.428zM197.73 261.84c-2.38-11.277-13.075-16.974-23.94-18.418 2.97 5.716 11.118 7.846 23.94 18.42z" fill-rule="evenodd" fill="#0c5c1d"/><path d="M199.59 267.575c12.558-1.142 14.072-12.916 14.725-24.497-4.037 6.09-13.16 13.618-14.726 24.497zm-.117-14.815c7.326.736 16.47-15.19 13.205-27.99-5.975 14.18-6.508 19.156-13.205 27.99zm-3.117-13.542c7.726-.464 14.228-16.07 9.92-30.713-3.573 13.54-1.943 19.477-9.92 30.713zM195 246.21c-1.86-4.517-5.395-5.967-7.05-11.863-3-10.546-8.707-12.21-7.834-20.452C193.392 229.35 196.898 238.59 195 246.21zm.662-11.566c-3.332-29.88 2.588-17.166-10.355-45.336 19.28 17.268 13.95 44.17 10.355 45.336z" fill-rule="evenodd" fill="#0c5c1d"/><path d="M196.546 222.004c-.643-9.545 7.516-15.698 21.87-20.995-4.923 7.946-18.21 12.033-21.87 20.994zm3.43-21.902c-5.145-17.086-8.17-19.997-12.394-38.542 10.56 8.548 15.99 27.07 12.394 38.542zm4.724-.644c11.588-8.412 14.312-17.964 27.647-21.448-.282 4.776-19.455 24.716-27.646 21.448z" fill-rule="evenodd" fill="#0c5c1d"/><path d="M203.914 191.546c7.398-9.205 11.48-16.72 22.438-23.372-1.753 11.23-14.02 27.547-22.438 23.372zm16.87-28.88c.377-13.054 17.71-18.08 24.477-23.372-1.752 11.23-14.246 22.224-24.476 23.372z" fill-rule="evenodd" fill="#0c5c1d"/><path d="M219.377 153.695c-2.306-11.927 8.913-18.496 14.734-23.752-2.145 11.117-5.21 22.487-14.733 23.752zm-15.347 19.211c-4.567-7.458-1.968-24.567.986-31.774 3.688 3.95 5.45 30.425-.986 31.774zm7.968-10.552c-3.81-9.794.467-19.046 4.505-25.73 1.782 11.05 2.707 21.57-4.505 25.73z" fill-rule="evenodd" fill="#0c5c1d"/><path d="M273.407 324.1c34.727-33.967 64.923-63.407 113.24-93.754-78.21 60.92-75.795 65.674-108.71 96.247-1.36-1.133-3.17-1.36-4.53-2.492z" fill-rule="evenodd" fill="#6f8593"/><path d="M211.605 332.115l12.938 14.217 39.213-59.53 16.503-17.533-3.996-5.814-25.342 24.773-2.915 5.806-36.402 38.08zm214.04.905l-16.562 14.67-36.948-59.982-21.486-23.42 5.806-4.002 28.513 28.85 2.914 5.806 37.76 38.08z" fill-rule="evenodd" fill="#6a0d06"/><path d="M372.104 296.718c.34-2.152 3.167-6.34-3.173-12.003.153-3.02 3.246-6.15 5.665-7.698 2.037 0 7.924 4.11 10.53 8.717 1.474 3.21 2.228 8.19.34 12.003-1.398 2.113-3.02 4.567-4.756 5.55-.83.6-2.682.413-4.19-.23-2.378-1.206-4.19-4.678-4.416-6.34z" fill-rule="evenodd" fill="#bbcdcd"/><path d="M292.86 190.758l-28.915-29.18-1.732.068-.6 1.927-.93 2.68-3.425 3.22-45.163-42.354 42.472 46.325 2.005.022 6.196-6.448 2.61.605 21.295 24.94 6.186-1.807zm37.736 173.922c52.913-85.93 99.007-145.15 14.57-221.08-3.16-3.18-14.066-13.247-20.898-15.416-.95-6.15 3.71-15.864-8.2-16.668-5.066.27-7.567 2.08-7.464 6.65.01 3.556 1.888 5.11.92 8.29-.357 1.59-4.303 5.213-4.06 9.835 1.533 9.848 5.335 12.258 6.49 13.66 2.065 2.054 3.3 3.5 9.37 6.006.67.807 2.463 2.314 3.383 3.326 11.15 2.386 21.312 1.17 28.515 4.76 3.14.967 8.176 6.296 9.814 8.965 20.344 22.305 29.148 58.1-1.96 95.89 6.232.51 21.146-25.02 24.553-46.703-4.767 32.338-15.315 43.632-20.542 53.296 10.45-6.96 18.86-31.473 20.818-36.51-8.286 44.62-51.19 99.71-78.184 111.277 24.434-5.665 40.826-30.014 49.52-38.737-8.466 17.46-25.88 42.166-26.646 53.17z" fill-rule="evenodd"/><path d="M366.96 326.366c-33.822-34.193-87.798-85.827-114.6-91.49 41.75 26.95 78.513 63.183 110.07 93.982 1.358-1.133 3.17-1.36 4.53-2.492z" fill-rule="evenodd" fill="#6f8593"/><path d="M345.78 193.034l31.808-31.453 1.732.07.6 1.927.93 2.68 3.424 3.22 45.163-42.354-42.472 46.326-2.004.02-6.196-6.447-2.61.607-27.077 30-3.296-4.596z" fill-rule="evenodd"/><path d="M261.64 181.42c1.663-9.058 4.455-15.626 13.816-17.21 24.534-1.058 47.258-1.21 72.924-.68 7.322 5.812-.3 17.74-7.927 18.344 11.703 20.23 27.708 35.704 29.897 59.558.754 12.532-3.66 20.655-8.093 25.167-33.727.82-50.068 5.018-78.26 7.203-7.877.947-13.798-8.213-13.723-15.838.046-7.88 3.286-14.044 12.043-15.135 2.718-.295 6.502-.114 9.9-.04-6.57-19.624-31.933-42.874-30.576-61.37z" fill-rule="evenodd" fill="#e3cf6e"/><path d="M305.927 133.148c-2.91 9.347 4.403 17.374 5.557 18.776 2.066 2.053 3.415 3.728 9.482 6.233.672.807 9.355 5.757 10.597 6.93 9.235 2.42 14.14-1.728 24.655.852-2.705-6.683-30.798-34.087-50.29-32.792z" fill-rule="evenodd" fill="#336446"/><path d="M306.162 137.394c-2.828 4.622 4.643 15.69 5.797 17.092 2.065 2.054 3.414 3.73 9.482 6.233.672.807 3.68 2.328 4.12 2.86l7.953 1.454c-2.706-6.682-18.073-29.8-27.353-27.64z" fill-rule="evenodd" fill="#402e08"/><path d="M309.16 121.594l-1.89 1.376 2.752 1.375-.86-2.75z" fill-rule="evenodd"/><path d="M305.445 140.632c1.533 9.847 5.2 12.526 6.436 13.852 1.985 2.13 3.496 3.49 9.564 6.233 2.435 2.01 3.36 2.57 5.243 3.58l6.424.956c-2.705-6.682-18.726-21.905-27.665-24.62z" fill-rule="evenodd" fill="#8c361d"/><path d="M263.895 295.918c-.34-2.153-3.166-6.34 3.174-12.003-.153-3.02-3.246-6.152-5.665-7.7-2.038 0-7.925 4.113-10.53 8.718-1.474 3.21-2.228 8.19-.34 12.003 1.398 2.114 3.02 4.567 4.755 5.55.83.6 2.682.413 4.19-.23 2.378-1.206 4.19-4.678 4.415-6.338z" fill-rule="evenodd" fill="#bbcdcd"/><path d="M268.426 327.278c-2.87 3.323-14.115 9.814-16.307 12.005-1.813 2.415 2.49 5.737 5.208 6.114 4.83-3.624 9.663-8.606 14.04-11.548 6.105-5.64 5.702-6.105 15.63-3.174-1.436-5.284-11.476-9.434-17.213-10.642-9.665 1.056-14.12 5.057-16.08 10.642 6.415-4.83 10.795-7.17 14.72-3.398z" fill-rule="evenodd" fill="#d4be72"/><path d="M373.765 296.577c.18-1.033.76-1.59.777-3.62 2.117 3.046 3.128 4.596 5.88 8.464-.992 1.325-2.422.7-3.77.058-1.258-.806-3.06-3.4-2.887-4.9zm-111.243-.68c-.18-1.033-.76-1.59-.777-3.62-2.117 3.046-3.128 4.596-5.88 8.464.99 1.325 2.422.7 3.77.058 1.258-.806 3.06-3.4 2.887-4.9z" fill-rule="evenodd" fill="#fff"/><path d="M369.91 329.543c2.87 3.322 14.116 9.814 16.307 12.005 1.812 2.414-2.49 5.737-5.208 6.114-4.833-3.624-9.664-8.607-14.04-11.548-5.004-6.01-7.175-5.737-15.63-3.173 1.435-5.283 11.475-9.434 17.212-10.64 9.665 1.055 14.12 5.056 16.08 10.64-6.415-4.83-10.796-7.17-14.72-3.397z" fill-rule="evenodd" fill="#d4be72"/><path d="M292.06 242.87c2.402 3.445 4.403 11.05 4.725 15.934.426 9.447-9.157 14.25-12.414 13.852-6.19-.75-11.263-5.418-11.77-12.65.987-8.434 4.537-13.107 10.41-13.453 3.845.668 8.168 5.26 8.168 10.81-.106 4.59-1.414 9.18-4.245 9.287-6.885-.533-6.485-4.51-7.607-6.645-.293-1.574-.54-5.836.242-6.885 1.027-1.275 5.764-2.962 8.085.32 2.51 2.56-3.708-1.36-6.164.397-1.256 1.79-.427 4.698-.08 5.846.427 1.148.374 4.938 5.123 4.725 1.737-.265 2.35-3.82 2.483-7.287.268-2.373-3.07-7.15-6.406-8.165-2.322-.373-8.006 4.376-7.767 11.05.456 7.58 6.673 10.195 10.01 9.687 3.388-.906 10.462-3.575 10.17-11.128-.75-8.328-2.3-11.772-4.968-15.775 1.04 0 .963 0 2.005.08zm49.646-58.846l-1.443-2.322h-31.067c-8.808.802-22.222 2.136-26.838 4.136-11.823 5.82-15.043-4.456-15.685-7.018-.687-2.35.78-6.592 3.077-8.086.908-1.736 5.983-3.636 9.052-2.488 3.47 1.467 4.98 5.848 4.425 8.812-1.04 4.404-9.376 7.124-6.412 2.642.373-1.97 1.874-7.447-.768-11.37l-2.42.48c3.363 7 .278 10.47.118 12.472-.158 3.364 2.716 3.07 4.942 2.984 1.52-.08 4.087-2.004 5.128-3.046 1.253-1.092 1.446-3.21 1.6-5.68.393-6.52-5.578-11.158-9.608-10.572-12.25 3.044-12.545 13.264-9.77 18.575 1.548 2.668 3.338 4.298 6.326 5.846 2.51.747 6.303.318 9.288-.803 5.91-2.12 15.487-4.003 27.42-4.296l32.636-.266z" fill-rule="evenodd"/><path d="M330.924 235.013l1.283 1.87-.193.02c-.41-.42-.75-.715-1.015-.886a3.046 3.046 0 0 0-.884-.393c-.176-.047-.434-.052-.772-.016l-.54.058 3.656 5.33c.242.352.412.57.512.655.103.085.237.155.4.21.166.052.352.066.56.044l.24-.026.13.19-3.794.404-.13-.19.24-.025c.21-.023.355-.076.435-.16.06-.06.078-.148.052-.27-.017-.084-.145-.3-.382-.647l-3.655-5.33-.524.056c-.488.052-.774.188-.862.408-.12.31-.046.722.22 1.24l-.202.022-1.283-1.87 6.507-.693zm-18.844 2.441l1.93 2.813.144-.015c.46-.05.7-.223.716-.52.02-.297-.13-.717-.44-1.26l.203-.02 2.48 3.616-.2.022a5.547 5.547 0 0 0-.938-.94c-.308-.236-.582-.388-.822-.453-.242-.07-.536-.086-.882-.05l1.337 1.95c.26.38.437.61.527.69.094.082.206.145.336.19a1.2 1.2 0 0 0 .504.033l.433-.046c.677-.072 1.116-.278 1.316-.62.205-.344.186-.83-.054-1.46l.196-.02 1.18 2.23-6.26.666-.13-.19.24-.024c.21-.022.356-.076.434-.16.06-.06.076-.147.047-.268-.017-.086-.144-.302-.382-.65l-3.118-4.543a6.159 6.159 0 0 0-.42-.573 1.141 1.141 0 0 0-.388-.255c-.202-.08-.42-.11-.654-.083l-.24.025-.13-.19 6.063-.645 1.4 2.043-.2.02c-.448-.487-.84-.83-1.178-1.027a3.108 3.108 0 0 0-1.118-.393c-.242-.04-.637-.03-1.185.028l-.75.08zm-6.195 7.438l.13.19-3.788.402-.13-.19.24-.024c.21-.023.356-.076.435-.16.06-.06.075-.147.046-.268-.016-.087-.144-.302-.38-.648l-3.12-4.546c-.24-.353-.41-.57-.51-.656a1.153 1.153 0 0 0-.4-.203 1.264 1.264 0 0 0-.55-.053l-.24.026-.13-.188 3.788-.403.13.188-.24.025c-.212.022-.356.076-.436.16-.06.06-.076.148-.05.27.016.085.143.302.38.647l3.118 4.546c.242.354.414.572.513.655.104.084.24.154.402.21.165.05.35.066.553.044l.24-.025zm-5.932-1.768l1.39 2.455-6.43.684-.13-.188.24-.027c.21-.022.355-.076.435-.162.06-.057.075-.146.045-.266-.017-.086-.143-.302-.38-.65l-3.12-4.544c-.24-.353-.413-.572-.512-.656s-.232-.152-.395-.203a1.247 1.247 0 0 0-.552-.052l-.24.025-.13-.188 3.863-.41.13.187-.317.033c-.21.023-.355.076-.435.16-.06.06-.077.148-.05.27.015.084.143.3.382.648l3.018 4.4c.243.356.418.58.53.673.107.09.24.152.398.187.11.02.336.014.678-.022l.604-.064c.385-.04.66-.14.828-.296.17-.156.25-.384.244-.682-.003-.3-.107-.728-.312-1.29l.22-.024zm44.147-2.1l-.128-.188.24-.026c.21-.022.35-.07.417-.143a.312.312 0 0 0 .072-.286c-.017-.074-.147-.29-.392-.646l-3.117-4.545c-.242-.355-.414-.573-.513-.657s-.232-.153-.397-.203a1.266 1.266 0 0 0-.553-.052l-.24.025-.128-.188 3.242-.345c.866-.092 1.64-.054 2.32.113.834.208 1.606.57 2.32 1.093a7.542 7.542 0 0 1 1.8 1.837c.332.485.558.943.676 1.372.115.424.135.785.06 1.08-.08.294-.233.54-.463.74-.23.194-.56.363-.99.504-.19.062-.517.12-.984.17l-3.242.344zm-1.708-6.81l3.698 5.39c.196.285.33.46.403.52a.658.658 0 0 0 .245.133c.132.04.287.05.47.03.594-.062.915-.303.964-.724.068-.57-.275-1.403-1.03-2.503-.61-.888-1.24-1.58-1.896-2.08-.515-.39-1.006-.64-1.472-.75-.33-.078-.79-.083-1.382-.017zm-3.132 5.218l-2.56.272.156.706c.054.234.13.424.23.57.133.194.313.328.54.402.134.045.4.06.794.047l.13.188-2.41.256-.13-.188c.235-.066.38-.19.433-.374.05-.188.018-.558-.097-1.11l-1.19-5.79.1-.01 6.5 5.387c.617.51 1.053.825 1.31.947.192.092.406.136.64.13l.128.188-3.504.374-.13-.19.143-.016c.283-.03.454-.09.517-.175.04-.063.026-.146-.044-.248a1.133 1.133 0 0 0-.16-.185c-.03-.03-.17-.152-.422-.365l-.975-.82zm-.442-.357l-2.712-2.266.522 2.498 2.19-.233zm-17.213.969l1.328 1.936c.256.373.44.608.555.702.116.09.254.156.414.202.16.044.406.05.738.013l.13.19-3.71.394-.128-.188c.335-.036.542-.088.62-.158a.272.272 0 0 0 .09-.262c-.016-.1-.152-.337-.408-.71l-3.075-4.485c-.258-.374-.443-.605-.558-.694-.114-.095-.252-.164-.412-.21s-.407-.05-.74-.014l-.127-.188 3.366-.36c.874-.092 1.555-.103 2.04-.03.485.072.964.25 1.435.535.468.283.846.632 1.132 1.05.35.51.445.95.29 1.325-.102.237-.338.432-.706.584l3.346 2.153c.435.277.727.448.874.513.22.09.426.13.626.12l.13.188-2.28.243-4.495-2.9-.475.05zm-2.325-3.39l2.077 3.028.305-.032c.494-.053.835-.135 1.023-.246.185-.114.27-.292.256-.53-.013-.243-.144-.546-.394-.91-.36-.526-.758-.9-1.19-1.125-.43-.225-.93-.307-1.504-.246l-.572.06zm-10.665 4.222c.793.08 1.402.213 1.83.4.61.267 1.084.647 1.422 1.14.356.518.432.972.226 1.358-.255.47-.896.757-1.922.867l-3.68.393-.128-.188c.335-.036.54-.09.62-.16.077-.074.107-.16.09-.26s-.153-.338-.41-.712l-3.075-4.484c-.256-.375-.442-.606-.556-.695a1.074 1.074 0 0 0-.41-.208c-.162-.045-.408-.05-.74-.015l-.128-.188 3.472-.37c.83-.088 1.466-.08 1.91.026.44.102.858.284 1.25.544.39.258.694.544.91.86.228.333.307.644.233.933-.075.284-.38.537-.912.76zm-2.04.07c.506-.055.84-.15 1.005-.283a.606.606 0 0 0 .242-.518c-.008-.21-.116-.47-.325-.774a2.792 2.792 0 0 0-.706-.728 2.502 2.502 0 0 0-.847-.39c-.304-.078-.716-.086-1.233-.028l1.865 2.72zm.274.397l1.52 2.216.17.255c.124.183.27.317.43.4.162.083.34.112.532.092.284-.03.505-.117.662-.26.16-.15.224-.344.196-.585-.03-.245-.143-.508-.336-.79a3.367 3.367 0 0 0-.83-.842 2.67 2.67 0 0 0-1.016-.47c-.343-.073-.788-.08-1.33-.017z" fill="#8c361d"/><path d="M327.9 235.856l1.82 2.812.146-.015c.462-.05.707-.222.736-.52.03-.296-.102-.716-.392-1.26l.204-.02 2.343 3.617-.204.02c-.298-.388-.6-.7-.9-.937-.3-.238-.567-.39-.805-.455-.24-.07-.533-.085-.88-.048l1.26 1.947c.247.38.415.61.5.692.092.08.202.144.33.188.128.044.296.055.503.034l.436-.047c.68-.072 1.127-.278 1.34-.62.218-.343.22-.83 0-1.46l.2-.02 1.094 2.23-6.287.666-.12-.187.24-.026c.21-.022.357-.076.44-.16.062-.06.08-.147.057-.268-.014-.087-.134-.303-.358-.65l-2.943-4.544c-.203-.312-.336-.504-.4-.573a1.067 1.067 0 0 0-.378-.255 1.328 1.328 0 0 0-.65-.083l-.24.025-.123-.188 6.088-.645 1.323 2.043-.204.02c-.426-.488-.806-.83-1.136-1.027a3.019 3.019 0 0 0-1.104-.395c-.24-.04-.635-.03-1.185.028l-.75.08zm-17.75 1.461l3.408-.36.308 1.37-2.864.304.172.718c1.262-.087 2.4.105 3.417.574.835.387 1.468.912 1.896 1.574.275.425.417.855.428 1.29.008.43-.147.78-.466 1.05-.32.267-.756.43-1.306.488-.594.063-1.12.006-1.572-.17-.32-.127-.54-.285-.664-.475-.095-.147-.12-.283-.08-.407.047-.124.146-.195.3-.212.14-.014.3 0 .477.038s.515.156 1.01.35c.312.12.563.198.756.236.137.03.275.036.414.02.293-.03.476-.158.548-.383.075-.225.02-.48-.163-.766-.39-.6-1.02-1.05-1.89-1.357a6.165 6.165 0 0 0-2.743-.307c-.1.01-.242.027-.433.05l-.953-3.623zm-3.677.236l3.66 5.65c.274.425.47.695.586.81.114.11.256.197.43.258s.4.08.674.05l.166-.018.122.19-3.83.405-.122-.188.193-.022c.312-.032.51-.09.6-.172a.297.297 0 0 0 .087-.308c-.03-.125-.187-.404-.47-.84l-2.32-3.58c-.206-.32-.35-.517-.433-.592a.908.908 0 0 0-.314-.184.734.734 0 0 0-.356-.055c-.182.02-.37.097-.56.233l-.216-.173 1.927-1.445.176-.02zm14.864 5.959l-.122-.188.24-.026c.213-.022.354-.07.424-.143a.333.333 0 0 0 .085-.286c-.015-.076-.138-.292-.37-.65l-2.942-4.543c-.23-.354-.39-.573-.488-.657s-.226-.152-.39-.203a1.226 1.226 0 0 0-.548-.05l-.242.024-.122-.187 3.256-.345c.868-.093 1.64-.054 2.314.113a6.305 6.305 0 0 1 2.278 1.094 7.069 7.069 0 0 1 1.728 1.837c.315.486.523.944.625 1.373.1.424.105.784.018 1.08-.09.293-.253.54-.49.74-.237.194-.573.363-1.01.504-.192.063-.52.12-.99.17l-3.256.345zm-1.447-6.81l3.49 5.39c.186.285.313.458.384.52.07.062.15.105.24.133.13.04.285.05.47.03.596-.062.926-.303.99-.725.09-.568-.22-1.403-.932-2.503-.576-.887-1.18-1.58-1.818-2.08-.5-.388-.98-.638-1.443-.75-.324-.077-.785-.083-1.38-.016z" fill="#8c361d"/><path d="M349.082 233.477l1.96 2.812.144-.016c.46-.05.695-.222.71-.52.015-.296-.137-.716-.454-1.26l.203-.02 2.52 3.617-.202.023a5.61 5.61 0 0 0-.947-.94c-.31-.236-.586-.388-.827-.453-.244-.07-.538-.086-.883-.05l1.357 1.948c.264.38.443.61.535.693a.994.994 0 0 0 .336.19c.13.043.298.055.504.033l.433-.047c.676-.07 1.112-.278 1.31-.62.2-.343.177-.83-.07-1.46l.197-.02 1.204 2.23-6.253.667-.132-.19.24-.025c.21-.02.354-.076.433-.16.06-.058.075-.147.044-.267-.018-.085-.147-.3-.388-.648l-3.167-4.545c-.218-.312-.362-.504-.43-.573a1.127 1.127 0 0 0-.39-.254c-.2-.08-.42-.11-.653-.084l-.24.026-.13-.188 6.056-.646 1.422 2.042-.2.022c-.453-.488-.848-.83-1.19-1.028a3.15 3.15 0 0 0-1.122-.395c-.242-.04-.636-.03-1.184.027l-.748.08zm-20.372 6.633l-1.212-4.765 2.946-.314.13.19-.233.024c-.213.023-.36.077-.437.16-.056.06-.07.147-.047.265.018.085.147.3.386.64l3.174 4.557c.246.353.42.572.52.656.1.085.235.154.404.21.165.05.35.065.552.043l.235-.024.13.188-3.777.403-.13-.19.234-.023c.214-.024.36-.077.438-.162.055-.058.07-.146.043-.267-.018-.085-.148-.302-.388-.647l-3.568-5.122 1.616 6.6-.13.014-7.177-5.956 3.39 4.866c.237.34.39.547.464.623.164.165.36.294.59.386.23.09.51.116.84.08l.132.19-2.475.263-.13-.19.074-.007a.878.878 0 0 0 .398-.12c.1-.07.156-.15.166-.247s-.023-.226-.094-.39c-.02-.038-.136-.21-.352-.52l-3.046-4.373c-.243-.35-.415-.565-.513-.646a1.349 1.349 0 0 0-.956-.253l-.23.025-.13-.188 2.956-.315 5.206 4.338zm-12.418-3.142l1.96 2.813.144-.014c.46-.05.695-.223.71-.52.015-.297-.137-.717-.452-1.26l.2-.02 2.522 3.616-.203.022a5.57 5.57 0 0 0-.946-.94c-.31-.236-.587-.387-.828-.453-.243-.068-.537-.084-.882-.047l1.356 1.947c.265.38.444.61.535.692.094.08.206.144.337.19.13.043.297.054.505.032l.432-.046c.675-.072 1.112-.278 1.31-.62.2-.344.177-.83-.07-1.46l.196-.02 1.205 2.23-6.254.666-.13-.188.24-.026c.21-.022.353-.076.43-.16.06-.06.076-.147.045-.268-.018-.086-.148-.302-.39-.65l-3.166-4.543c-.218-.314-.36-.505-.428-.575-.12-.115-.248-.2-.39-.254-.2-.08-.42-.108-.655-.082l-.24.025-.13-.188 6.056-.646 1.424 2.042-.203.02c-.452-.487-.847-.83-1.187-1.027a3.142 3.142 0 0 0-1.123-.394c-.242-.04-.637-.03-1.185.03l-.748.078zm1.174 6.668l.13.19-3.78.402-.133-.19.24-.024c.21-.023.354-.076.432-.16.06-.06.075-.147.043-.27-.017-.085-.147-.3-.388-.646l-3.167-4.546c-.246-.353-.42-.572-.52-.656a1.136 1.136 0 0 0-.4-.203 1.278 1.278 0 0 0-.552-.052l-.24.026-.13-.187 3.783-.404.13.187-.24.026c-.21.02-.353.075-.43.16-.06.058-.076.147-.05.268.018.086.148.303.39.648l3.166 4.546c.245.353.42.57.52.655.103.084.238.154.403.21.166.05.35.066.552.044l.24-.024zm-9.072-6.248l1.303 1.87-.192.02c-.414-.42-.757-.716-1.026-.887a3.153 3.153 0 0 0-.888-.392c-.177-.046-.435-.052-.773-.016l-.54.058 3.714 5.33c.246.353.42.572.52.655.105.085.24.154.404.21.165.05.352.066.558.044l.24-.026.13.188-3.787.404-.132-.19.24-.024c.21-.022.353-.077.432-.16.06-.06.077-.148.05-.27-.02-.085-.15-.3-.39-.647l-3.713-5.33-.524.056c-.487.053-.772.19-.857.41-.116.307-.04.72.235 1.24l-.203.02-1.302-1.87 6.5-.692zm-17.614 2.302l1.96 2.812.145-.015c.46-.05.696-.222.71-.52.015-.296-.136-.716-.452-1.26l.2-.02 2.522 3.616-.202.022a5.682 5.682 0 0 0-.946-.94c-.31-.236-.587-.387-.827-.453-.244-.07-.537-.085-.883-.048l1.357 1.947c.265.38.444.612.534.693.095.082.207.145.34.19.128.043.297.054.503.032l.433-.046c.676-.073 1.114-.28 1.31-.62.2-.344.177-.83-.07-1.46l.197-.022 1.204 2.23-6.254.667-.13-.188.24-.026c.21-.02.353-.075.43-.16.06-.058.075-.146.045-.267-.018-.086-.147-.302-.39-.648l-3.166-4.545c-.22-.312-.362-.504-.43-.573a1.12 1.12 0 0 0-.39-.255c-.2-.08-.418-.108-.652-.083l-.24.024-.132-.188 6.056-.646 1.424 2.044-.203.02c-.452-.488-.847-.83-1.187-1.027a3.162 3.162 0 0 0-1.123-.395c-.24-.04-.637-.03-1.184.028l-.75.08zm-4.308-.14l1.662 2.296-.218.023a5.393 5.393 0 0 0-1.732-1.31c-.648-.31-1.207-.44-1.678-.39-.362.038-.585.163-.67.373-.08.205-.038.428.13.67.107.153.238.284.397.395.214.148.49.29.826.42.244.096.77.253 1.572.474 1.124.307 1.958.622 2.5.943.536.322.963.71 1.28 1.166.403.58.512 1.1.332 1.57-.182.464-.635.735-1.36.812a3.342 3.342 0 0 1-.693.003 7.82 7.82 0 0 1-.935-.168 1.668 1.668 0 0 0-.494-.057.3.3 0 0 0-.22.133c-.056.08-.067.192-.034.34l-.198.02-1.818-2.61.198-.02c.667.716 1.36 1.245 2.072 1.584.717.337 1.332.477 1.848.422.398-.044.643-.18.734-.413.094-.232.044-.487-.148-.762a2.01 2.01 0 0 0-.468-.46 3.488 3.488 0 0 0-.713-.388c-.28-.12-.735-.265-1.357-.435-.875-.24-1.53-.452-1.97-.638a5.87 5.87 0 0 1-1.175-.658c-.34-.252-.62-.54-.847-.863-.383-.55-.498-1.04-.344-1.473.152-.433.55-.684 1.195-.752.235-.025.48-.023.74.01.196.022.45.076.768.162.318.084.524.12.62.11.092-.01.146-.045.162-.105.016-.06-.026-.196-.124-.408l.162-.017zm13.935 2.756l1.334 1.915c.262.376.45.61.564.703.117.09.254.157.417.202.165.044.41.05.738.014l.13.188-3.675.392-.132-.19c.337-.035.543-.087.62-.157a.275.275 0 0 0 .087-.262c-.016-.1-.156-.337-.415-.71l-3.125-4.484c-.26-.374-.448-.605-.564-.695-.116-.093-.254-.162-.415-.207s-.407-.05-.74-.015l-.13-.187 3.154-.336c1.04-.11 1.907-.013 2.605.29.698.307 1.232.724 1.6 1.254.313.45.435.848.366 1.198-.068.35-.32.61-.75.78-.29.12-.845.222-1.666.31zm-2.357-3.383l2.08 2.986c.122-.008.213-.013.274-.02.434-.046.683-.205.747-.473.064-.273-.086-.67-.446-1.184-.357-.514-.736-.877-1.136-1.09a2.22 2.22 0 0 0-1.3-.244l-.218.023zm39.713-1.185c.792.08 1.405.214 1.833.402.613.266 1.092.646 1.436 1.138.36.52.442.972.24 1.36-.25.468-.887.756-1.91.865l-3.677.392-.133-.188c.335-.036.54-.09.62-.158a.276.276 0 0 0 .085-.263c-.016-.1-.154-.337-.415-.71l-3.124-4.486c-.26-.372-.45-.603-.565-.692a1.117 1.117 0 0 0-.414-.21c-.162-.043-.41-.05-.74-.014l-.13-.188 3.468-.37c.828-.087 1.466-.08 1.91.026.442.103.86.285 1.255.545.395.258.7.544.92.86.233.332.315.644.244.933-.073.284-.374.537-.904.758zm-2.038.07c.505-.054.84-.15 1-.282a.6.6 0 0 0 .236-.518c-.01-.21-.12-.47-.33-.775a2.913 2.913 0 0 0-.716-.73 2.602 2.602 0 0 0-.85-.39c-.307-.076-.718-.085-1.235-.026l1.895 2.72zm.277.397l1.545 2.217.17.255c.13.183.275.318.436.402.164.08.34.11.534.09.284-.03.504-.117.66-.262.156-.147.22-.343.19-.583-.034-.245-.148-.51-.345-.79a3.462 3.462 0 0 0-.84-.842 2.683 2.683 0 0 0-1.02-.47c-.345-.074-.79-.08-1.33-.018zm7.448-.519l1.35 1.936c.26.374.447.607.562.7.116.09.255.158.416.203.16.045.406.05.738.014l.132.188-3.704.395-.132-.19c.335-.034.54-.088.618-.158a.27.27 0 0 0 .088-.26c-.018-.1-.155-.338-.415-.713l-3.125-4.483c-.26-.375-.45-.606-.564-.696a1.102 1.102 0 0 0-.415-.207c-.16-.045-.41-.05-.74-.015l-.13-.188 3.36-.36c.878-.092 1.558-.103 2.044-.03s.966.25 1.44.535c.47.282.852.632 1.143 1.05.355.508.456.95.305 1.324-.1.237-.333.43-.7.583l3.37 2.155c.437.277.73.45.878.512.22.09.428.13.627.12l.132.188-2.28.244-4.525-2.9-.475.05zm-2.362-3.39l2.11 3.028.305-.032c.494-.053.833-.135 1.02-.247.184-.114.267-.29.25-.53-.016-.242-.15-.545-.404-.908-.37-.527-.77-.902-1.204-1.126-.43-.223-.933-.305-1.507-.244l-.572.06z" fill="#8c361d"/><path d="M337.078 234.465l2.662 5.65c.2.425.35.694.444.81.095.11.224.197.386.258.163.062.385.078.665.05l.17-.02.09.19-3.903.406-.09-.19.197-.02c.317-.033.526-.09.63-.172a.345.345 0 0 0 .14-.31c-.007-.123-.115-.402-.32-.837l-1.688-3.582c-.15-.32-.26-.515-.33-.59a.685.685 0 0 0-.28-.184.684.684 0 0 0-.348-.055 1.378 1.378 0 0 0-.6.232l-.186-.174 2.18-1.444.18-.02zm-1.288 7.525l-4.36.455-.052-.113c.637-1.623.978-2.707 1.02-3.25a2.982 2.982 0 0 0-.277-1.547 1.937 1.937 0 0 0-.772-.85c-.35-.213-.694-.302-1.037-.267-.56.06-.872.366-.935.922l-.234-.046c-.11-.672-.037-1.185.216-1.54.254-.354.643-.558 1.167-.613.376-.038.756.007 1.143.138.385.13.734.33 1.043.597.306.263.52.52.636.767.213.453.294.925.244 1.418-.072.668-.462 1.628-1.17 2.88l1.6-.166c.394-.04.64-.083.743-.126a.42.42 0 0 0 .223-.183c.042-.083.07-.247.083-.495l.196-.02.525 2.04zm-15.5-5.775l2.663 5.65c.2.425.35.694.444.81.094.11.223.197.387.258.162.062.383.078.664.05l.17-.02.09.19-3.903.406-.09-.19.197-.02c.317-.033.527-.09.63-.172a.35.35 0 0 0 .142-.31c-.01-.123-.116-.402-.32-.836l-1.688-3.583c-.15-.32-.26-.517-.33-.592a.714.714 0 0 0-.282-.184.681.681 0 0 0-.347-.055 1.389 1.389 0 0 0-.602.232l-.183-.174 2.18-1.444.18-.02zm-10.61 1.671l1.325 2.812.148-.016c.47-.05.746-.22.826-.518.082-.297.024-.718-.17-1.26l.21-.022 1.703 3.618-.208.022a4.006 4.006 0 0 0-.735-.94c-.256-.236-.498-.39-.723-.453-.23-.07-.52-.087-.872-.05l.917 1.947c.18.38.305.61.378.693.077.08.175.143.295.19.12.042.287.054.498.032l.443-.047c.69-.072 1.175-.278 1.45-.62.278-.343.365-.83.258-1.46l.203-.02.7 2.23-6.404.667-.09-.19.247-.025c.215-.022.37-.076.468-.16.073-.058.108-.147.104-.268.002-.087-.08-.302-.242-.65l-2.142-4.545c-.147-.31-.246-.503-.298-.572a.846.846 0 0 0-.332-.255 1.257 1.257 0 0 0-.636-.084l-.246.027-.088-.187 6.203-.646.963 2.042-.208.02c-.34-.487-.66-.83-.955-1.027a2.553 2.553 0 0 0-1.034-.395c-.233-.04-.63-.03-1.19.028l-.766.08zm-7.913 7.656l-.09-.19.247-.024c.215-.022.364-.07.448-.143a.384.384 0 0 0 .135-.287c0-.074-.085-.29-.254-.646l-2.14-4.545c-.167-.354-.29-.572-.373-.657a.865.865 0 0 0-.354-.203 1.21 1.21 0 0 0-.54-.052l-.246.026-.09-.187 3.32-.346c.884-.09 1.65-.054 2.294.114.79.208 1.483.572 2.084 1.094a5.487 5.487 0 0 1 1.405 1.837c.23.486.356.943.382 1.372.025.424-.033.786-.172 1.082a1.98 1.98 0 0 1-.62.738c-.272.195-.637.364-1.1.505-.202.063-.543.12-1.02.17l-3.316.345zm-.246-6.81l2.54 5.39c.135.285.233.46.292.52a.5.5 0 0 0 .217.132c.122.04.275.052.462.032.608-.064.98-.304 1.12-.726.19-.568.027-1.403-.493-2.503-.418-.887-.9-1.58-1.45-2.078-.432-.39-.87-.642-1.31-.752-.313-.08-.77-.083-1.38-.017zm26.011.028c.69.303 1.206.6 1.552.886.35.285.616.626.804 1.023.262.557.26 1.053-.01 1.487-.268.43-.788.685-1.56.765-.733.077-1.378-.032-1.938-.327-.558-.295-.952-.684-1.18-1.17-.176-.37-.213-.707-.115-1.01.1-.302.367-.596.797-.884-.783-.356-1.32-.658-1.613-.906a2.661 2.661 0 0 1-.682-.896c-.218-.463-.2-.89.055-1.283.255-.398.75-.635 1.483-.71.707-.074 1.323.025 1.85.298.527.27.893.622 1.098 1.057.155.326.187.625.097.898-.086.27-.3.527-.638.773zm-.54-.216a1.35 1.35 0 0 0 .035-.602 2.59 2.59 0 0 0-.23-.703c-.208-.443-.468-.77-.783-.983a1.104 1.104 0 0 0-.76-.204c-.245.025-.414.13-.507.314-.093.18-.084.394.03.638.118.248.334.496.65.745.32.245.84.51 1.566.794zm-.585 1.19a.698.698 0 0 0-.117.283c-.017.127 0 .308.048.54.05.234.132.475.25.723.15.32.32.584.51.792.187.205.383.346.59.425.208.077.4.108.57.09.265-.028.446-.14.544-.34.095-.203.07-.462-.08-.778-.31-.66-1.082-1.238-2.315-1.737z" fill="#8c361d"/></svg>